<?xml version="1.0" encoding="utf-8"?>
<!-- Generator: Adobe Illustrator 16.0.0, SVG Export Plug-In . SVG Version: 6.00 Build 0)  -->
<!DOCTYPE svg PUBLIC "-//W3C//DTD SVG 1.1//EN" "http://www.w3.org/Graphics/SVG/1.1/DTD/svg11.dtd">
<svg version="1.1" xmlns="http://www.w3.org/2000/svg" xmlns:xlink="http://www.w3.org/1999/xlink" x="0px" y="0px" width="60px"
	 height="60px" viewBox="0 0 60 60" enable-background="new 0 0 60 60" xml:space="preserve">
<g id="Layer_1" display="none">
	<g display="inline">
		<path fill="#FFFFFF" d="M11.625,25.2c0-0.15,0.15-0.3,0.375-0.3h3.225c0.45,0,1.125,0.15,1.35,0.825l0.6,2.55
			c0,0.15-0.075,0.3-0.225,0.375H16.8c-0.075,0-0.225-0.075-0.3-0.15c-1.05-1.35-2.7-2.325-4.65-3
			C11.7,25.5,11.625,25.35,11.625,25.2z"/>
		<path fill="#FFFFFF" d="M19.275,35.4H16.5c-0.15,0-0.3-0.075-0.3-0.226l-2.4-7.65c-0.075-0.15,0-0.3,0.15-0.375
			c0.15-0.075,0.3-0.075,0.375,0c1.725,1.2,3,2.775,3.45,3.825v0.075l0.3,1.05L21,25.125c0.075-0.15,0.15-0.225,0.3-0.225h2.55
			c0.15,0,0.225,0.075,0.3,0.15c0.075,0.075,0.075,0.225,0,0.3l-4.575,9.825C19.575,35.325,19.425,35.4,19.275,35.4z M26.85,35.175
			c0,0.15-0.15,0.3-0.375,0.3h-2.4c-0.075,0-0.225-0.074-0.3-0.149C23.7,35.25,23.7,35.175,23.7,35.1l1.8-9.825
			c0-0.15,0.15-0.3,0.375-0.3h2.4c0.075,0,0.225,0.075,0.3,0.15c0.075,0.075,0.075,0.15,0.075,0.225L26.85,35.175z M34.95,29.175
			c1.725,0.75,2.475,1.575,2.475,2.775c0,2.1-2.024,3.45-5.175,3.45c-1.125,0-2.25-0.15-3.075-0.45
			c-0.15-0.075-0.225-0.226-0.225-0.375L29.25,33c0-0.075,0.075-0.15,0.15-0.225c0.075-0.075,0.225-0.075,0.3,0
			C30.6,33.15,31.275,33.3,32.475,33.3c0.825,0,1.801-0.3,1.801-0.975c0-0.45-0.375-0.75-1.575-1.275
			c-1.125-0.45-2.625-1.275-2.625-2.775c0-1.95,2.1-3.3,5.024-3.3c1.051,0,1.875,0.15,2.4,0.3c0.15,0.075,0.3,0.225,0.225,0.375
			l-0.3,1.5c0,0.075-0.075,0.15-0.149,0.225c-0.075,0.075-0.226,0.075-0.301,0C36.525,27.225,35.925,27,34.95,27h-0.075
			c-1.125,0-1.725,0.45-1.725,0.9C33.225,28.425,33.9,28.725,34.95,29.175L34.95,29.175z M46.05,25.2
			c0-0.15-0.149-0.225-0.375-0.225h-2.1c-0.825,0-1.351,0.225-1.65,0.9l-4.35,9.15c-0.075,0.074,0,0.225,0,0.3
			c0.075,0.075,0.149,0.149,0.3,0.149h2.475c0.15,0,0.301-0.074,0.301-0.225c0.3-0.75,0.524-1.2,0.6-1.35h3.975
			c0.075,0.3,0.226,1.05,0.301,1.35c0,0.15,0.149,0.225,0.375,0.225H48c0.075,0,0.225-0.074,0.3-0.149s0.075-0.15,0.075-0.3
			L46.05,25.2z M42.15,31.725l1.649-3.899l0.226,0.9l0.75,3H42.15z"/>
	</g>
	
		<path display="inline" fill="none" stroke="#FFFFFF" stroke-width="2" stroke-linecap="round" stroke-linejoin="round" stroke-miterlimit="10" d="
		M56.25,48.75H3.75c-1.65,0-3-1.35-3-3v-31.5c0-1.65,1.35-3,3-3h52.5c1.65,0,3,1.35,3,3v31.5C59.25,47.4,57.9,48.75,56.25,48.75z"/>
</g>
<g id="Layer_2">
	<g>
		<path fill-rule="evenodd" clip-rule="evenodd" fill="#FFFFFF" d="M9.967,35.436c-0.367,0-0.733,0-1.1,0
			c-0.023-0.046-0.068-0.037-0.107-0.042C6.495,35.11,4.67,33.48,4.131,31.27c-0.052-0.212-0.041-0.44-0.15-0.639
			c0-0.394,0-0.787,0-1.181c0.053-0.029,0.037-0.082,0.042-0.126c0.286-2.297,2.019-4.174,4.281-4.644
			c0.161-0.034,0.334-0.018,0.48-0.115c0.38,0,0.761,0,1.14,0c0.112,0.076,0.246,0.055,0.369,0.074
			c2.766,0.434,4.768,2.995,4.527,5.798c-0.199,2.3-1.74,4.166-3.953,4.801C10.57,35.322,10.26,35.337,9.967,35.436z M11.098,30.108
			c0.572-0.28,0.803-0.688,0.703-1.243c-0.077-0.416-0.385-0.633-0.727-0.821c-0.146-0.081-0.388-0.081-0.431-0.223
			c-0.043-0.146,0.061-0.337,0.103-0.508c0.116-0.471,0.115-0.466-0.369-0.561c-0.107-0.021-0.128,0.015-0.148,0.097
			c-0.054,0.224-0.122,0.445-0.164,0.67c-0.027,0.143-0.087,0.152-0.21,0.121c-0.308-0.078-0.308-0.073-0.229-0.383
			c0.019-0.073,0.036-0.145,0.054-0.218c0.113-0.463,0.112-0.461-0.357-0.555c-0.104-0.021-0.146,0.008-0.169,0.11
			c-0.051,0.23-0.117,0.458-0.167,0.69c-0.026,0.124-0.083,0.15-0.199,0.118c-0.222-0.064-0.446-0.115-0.669-0.171
			c-0.377-0.096-0.367-0.094-0.475,0.285c-0.057,0.196-0.041,0.305,0.188,0.32c0.085,0.005,0.173,0.038,0.253,0.072
			c0.165,0.07,0.242,0.197,0.198,0.375c-0.213,0.861-0.427,1.722-0.644,2.582c-0.039,0.152-0.134,0.223-0.304,0.188
			c-0.137-0.026-0.301-0.144-0.403-0.069c-0.104,0.076-0.134,0.257-0.196,0.392c-0.022,0.049-0.042,0.1-0.066,0.148
			C6.631,31.6,6.634,31.64,6.734,31.66c0.179,0.035,0.355,0.086,0.532,0.134c0.176,0.046,0.422,0.045,0.507,0.16
			c0.101,0.134-0.048,0.353-0.089,0.534c-0.101,0.446-0.104,0.438,0.336,0.552c0.146,0.038,0.172-0.015,0.197-0.131
			c0.049-0.226,0.108-0.448,0.164-0.672c0.012-0.045,0.021-0.125,0.057-0.12c0.133,0.019,0.269,0.04,0.39,0.094
			c0.104,0.046,0.023,0.143,0.01,0.215c-0.023,0.112-0.055,0.224-0.083,0.335c-0.115,0.46-0.114,0.458,0.359,0.552
			c0.099,0.021,0.146,0.002,0.168-0.106c0.043-0.213,0.117-0.419,0.152-0.632c0.03-0.187,0.119-0.227,0.287-0.187
			c0.219,0.054,0.444,0.049,0.668,0.042c0.637-0.021,1.043-0.333,1.229-0.96c0.181-0.609,0.035-1.018-0.499-1.336
			C11.113,30.131,11.11,30.124,11.098,30.108z"/>
		<path fill-rule="evenodd" clip-rule="evenodd" fill="#FFFFFF" d="M19.616,24.564c-0.283,1.17-0.566,2.34-0.854,3.536
			c0.23-0.069,0.431-0.158,0.647-0.198c1.483-0.271,2.678,0.55,2.968,2.043c0.398,2.05-0.629,4.128-2.502,5.052
			c-0.422,0.207-0.868,0.339-1.336,0.398c-0.037,0.005-0.083-0.011-0.104,0.04c-0.055,0-0.109,0-0.164,0
			c-0.067-0.062-0.135-0.06-0.203,0c-0.109,0-0.218,0-0.326,0c-0.109-0.064-0.217-0.064-0.327,0c-0.108,0-0.217,0-0.325,0
			c-0.024-0.063-0.079-0.04-0.122-0.047c-0.572-0.08-1.135-0.188-1.675-0.4c-0.157-0.063-0.19-0.134-0.15-0.299
			c0.25-1.006,0.486-2.014,0.727-3.021c0.521-2.195,1.043-4.389,1.561-6.583c0.032-0.137,0.082-0.207,0.231-0.22
			c0.222-0.019,0.443-0.058,0.663-0.1c0.375-0.071,0.762-0.081,1.128-0.202C19.507,24.564,19.562,24.564,19.616,24.564z
			 M18.002,33.739c0.598,0,1.033-0.139,1.446-0.536c0.835-0.805,1.131-1.792,0.893-2.929c-0.075-0.357-0.276-0.625-0.661-0.686
			c-0.397-0.063-0.782-0.009-1.143,0.183c-0.14,0.074-0.219,0.178-0.257,0.338c-0.239,1.022-0.487,2.041-0.732,3.062
			C17.411,33.738,17.411,33.738,18.002,33.739z"/>
		<path fill-rule="evenodd" clip-rule="evenodd" fill="#FFFFFF" d="M40.501,35.436c-0.108-0.081-0.241-0.065-0.362-0.098
			c-1.103-0.285-1.736-1.029-1.899-2.117c-0.26-1.729,0.198-3.264,1.519-4.458c1.07-0.968,2.335-1.202,3.692-0.733
			c1.006,0.349,1.472,1.168,1.594,2.173c0.168,1.396-0.161,2.683-1.043,3.795c-0.626,0.789-1.439,1.284-2.458,1.404
			c-0.022,0.002-0.042,0.022-0.065,0.034C41.152,35.436,40.826,35.436,40.501,35.436z M40.199,32.137
			c0.003,0.442,0.029,0.771,0.168,1.082c0.115,0.259,0.312,0.412,0.582,0.456c0.42,0.069,0.807-0.009,1.14-0.3
			c0.51-0.442,0.765-1.022,0.893-1.667c0.105-0.532,0.122-1.063-0.06-1.585c-0.111-0.325-0.333-0.512-0.679-0.559
			c-0.465-0.063-0.858,0.075-1.183,0.403C40.436,30.599,40.23,31.39,40.199,32.137z"/>
		<path fill-rule="evenodd" clip-rule="evenodd" fill="#FFFFFF" d="M34.556,35.436c-0.121-0.079-0.268-0.065-0.401-0.1
			c-1.191-0.307-1.929-1.055-2.107-2.278c-0.215-1.47,0.114-2.809,1.127-3.928c0.734-0.81,1.679-1.223,2.761-1.301
			c0.769-0.057,1.517,0.036,2.229,0.346c0.108,0.047,0.143,0.082,0.087,0.201c-0.198,0.43-0.391,0.864-0.571,1.301
			c-0.055,0.131-0.112,0.155-0.24,0.101c-0.559-0.238-1.142-0.314-1.729-0.156c-0.938,0.251-1.385,0.942-1.553,1.844
			c-0.084,0.449-0.096,0.904,0.034,1.352c0.162,0.559,0.508,0.83,1.086,0.871c0.522,0.035,1.028-0.036,1.518-0.22
			c0.131-0.05,0.158-0.022,0.168,0.109c0.032,0.44,0.072,0.879,0.121,1.317c0.015,0.125-0.03,0.178-0.146,0.215
			c-0.373,0.123-0.746,0.244-1.14,0.285c-0.027,0.002-0.054,0.008-0.062,0.04C35.345,35.436,34.95,35.436,34.556,35.436z"/>
		<path fill-rule="evenodd" clip-rule="evenodd" fill="#FFFFFF" d="M17.417,35.436c0.109-0.064,0.218-0.064,0.327,0
			C17.634,35.436,17.526,35.436,17.417,35.436z"/>
		<path fill-rule="evenodd" clip-rule="evenodd" fill="#FFFFFF" d="M18.069,35.436c0.068-0.06,0.135-0.062,0.203,0
			C18.204,35.436,18.137,35.436,18.069,35.436z"/>
		<path fill-rule="evenodd" clip-rule="evenodd" fill="#FFFFFF" d="M53.882,35.238c-0.285,0-0.568-0.005-0.854,0.003
			c-0.135,0.003-0.154-0.026-0.122-0.16c0.301-1.25,0.6-2.503,0.887-3.756c0.085-0.368,0.185-0.739,0.115-1.125
			c-0.072-0.39-0.295-0.599-0.687-0.628c-0.292-0.022-0.582,0.004-0.872,0.044c-0.122,0.016-0.144,0.093-0.167,0.192
			c-0.417,1.752-0.838,3.503-1.248,5.257c-0.035,0.146-0.094,0.178-0.232,0.176c-0.555-0.006-1.113-0.007-1.669,0
			c-0.15,0.003-0.192-0.018-0.151-0.185c0.534-2.189,1.063-4.384,1.589-6.577c0.021-0.094,0.052-0.148,0.154-0.183
			c1.06-0.358,2.146-0.526,3.263-0.431c0.853,0.073,1.565,0.394,1.925,1.242c0.273,0.646,0.244,1.315,0.091,1.978
			c-0.308,1.34-0.635,2.675-0.948,4.013c-0.025,0.104-0.067,0.145-0.178,0.143C54.479,35.234,54.181,35.238,53.882,35.238z"/>
		<path fill-rule="evenodd" clip-rule="evenodd" fill="#FFFFFF" d="M29.387,35.403c-0.204,0-0.408,0.001-0.611,0.002
			c-0.338-0.028-0.675-0.065-0.994-0.188c-0.771-0.3-1.17-0.982-1.142-1.919c0.023-0.779,0.224-1.527,0.401-2.276
			c0.358-1.529,0.726-3.055,1.081-4.585c0.039-0.167,0.097-0.246,0.276-0.269c0.571-0.076,1.14-0.167,1.706-0.264
			c0.191-0.034,0.199,0.023,0.158,0.185c-0.152,0.589-0.286,1.184-0.438,1.774c-0.033,0.126-0.003,0.147,0.116,0.146
			c0.644-0.003,1.288,0.004,1.933-0.004c0.16-0.003,0.197,0.037,0.156,0.194c-0.114,0.438-0.223,0.878-0.324,1.32
			c-0.028,0.126-0.08,0.173-0.214,0.171c-0.645-0.008-1.289-0.002-1.934-0.006c-0.104,0-0.174,0.008-0.203,0.134
			c-0.208,0.911-0.422,1.82-0.634,2.729c-0.007,0.027-0.013,0.055-0.016,0.081c-0.098,0.719,0.18,1.045,0.906,1.066
			c0.405,0.013,0.797-0.058,1.178-0.183c0.119-0.042,0.146-0.021,0.158,0.1c0.032,0.419,0.069,0.837,0.121,1.256
			c0.017,0.136-0.026,0.19-0.15,0.229C30.417,35.257,29.911,35.373,29.387,35.403z"/>
		<path fill-rule="evenodd" clip-rule="evenodd" fill="#FFFFFF" d="M46.288,35.238c-0.271,0-0.542-0.011-0.813,0.004
			c-0.177,0.01-0.198-0.05-0.161-0.205c0.263-1.086,0.52-2.172,0.776-3.26c0.281-1.188,0.567-2.371,0.843-3.558
			c0.036-0.155,0.086-0.221,0.264-0.217c0.543,0.016,1.085,0.011,1.627,0.003c0.161-0.003,0.212,0.026,0.169,0.202
			c-0.552,2.283-1.101,4.568-1.641,6.854c-0.034,0.143-0.087,0.187-0.229,0.18C46.846,35.231,46.567,35.238,46.288,35.238z"/>
		<path fill-rule="evenodd" clip-rule="evenodd" fill="#FFFFFF" d="M22.633,35.238c0.182-0.77,0.358-1.52,0.536-2.27
			c0.376-1.586,0.756-3.172,1.128-4.76c0.036-0.151,0.087-0.208,0.251-0.206c0.549,0.013,1.099,0.01,1.648,0.002
			c0.151-0.002,0.2,0.022,0.159,0.191c-0.553,2.29-1.101,4.579-1.646,6.87c-0.03,0.127-0.074,0.177-0.211,0.175
			C23.883,35.235,23.268,35.238,22.633,35.238z"/>
		<path fill-rule="evenodd" clip-rule="evenodd" fill="#FFFFFF" d="M27.068,25.747c-0.004,0.897-0.914,1.578-1.776,1.329
			c-0.525-0.153-0.784-0.526-0.746-1.082c0.057-0.87,0.998-1.5,1.825-1.223C26.841,24.929,27.071,25.25,27.068,25.747z"/>
		<path fill-rule="evenodd" clip-rule="evenodd" fill="#FFFFFF" d="M49.707,25.737c0,0.9-0.9,1.583-1.767,1.342
			c-0.58-0.162-0.853-0.622-0.731-1.234c0.161-0.812,1.021-1.327,1.792-1.075C49.477,24.924,49.708,25.241,49.707,25.737z"/>
		<path fill-rule="evenodd" clip-rule="evenodd" fill="#FFFFFF" d="M9.669,31.57c-0.327-0.003-0.64-0.092-0.957-0.164
			c-0.096-0.023-0.092-0.074-0.073-0.15c0.093-0.359,0.181-0.72,0.271-1.081c0.016-0.064,0.03-0.113,0.12-0.09
			c0.349,0.083,0.7,0.155,1.017,0.331c0.338,0.189,0.471,0.431,0.4,0.718c-0.067,0.279-0.308,0.431-0.696,0.437
			C9.723,31.571,9.696,31.57,9.669,31.57z"/>
		<path fill-rule="evenodd" clip-rule="evenodd" fill="#FFFFFF" d="M9.937,29.619c-0.253,0.001-0.495-0.071-0.738-0.126
			c-0.095-0.021-0.102-0.074-0.083-0.148c0.08-0.321,0.163-0.641,0.24-0.964c0.021-0.088,0.058-0.102,0.144-0.082
			c0.238,0.054,0.474,0.11,0.696,0.213c0.358,0.167,0.504,0.401,0.435,0.688C10.557,29.5,10.349,29.626,9.937,29.619z"/>
	</g>
	<path fill-rule="evenodd" clip-rule="evenodd" fill="none" stroke="#FFFFFF" stroke-miterlimit="10" d="M58.955,45.891
		c0,1.165-0.847,2.109-1.892,2.109H2.936c-1.044,0-1.891-0.944-1.891-2.109V14.109C1.045,12.945,1.892,12,2.936,12h54.127
		c1.045,0,1.892,0.945,1.892,2.109V45.891z"/>
</g>
</svg>
