<?xml version="1.0" encoding="utf-8"?>
<!-- Generator: Adobe Illustrator 16.0.0, SVG Export Plug-In . SVG Version: 6.00 Build 0)  -->
<!DOCTYPE svg PUBLIC "-//W3C//DTD SVG 1.1//EN" "http://www.w3.org/Graphics/SVG/1.1/DTD/svg11.dtd">
<svg version="1.1" xmlns="http://www.w3.org/2000/svg" xmlns:xlink="http://www.w3.org/1999/xlink" x="0px" y="0px" width="60px"
	 height="60px" viewBox="0 0 60 60" enable-background="new 0 0 60 60" xml:space="preserve">
<g id="Layer_1" display="none">
	<g display="inline">
		<path fill-rule="evenodd" clip-rule="evenodd" fill="#EC56B4" d="M11.85,42.231c-1.494,1.918-2.466,2.073-4.26,0.785
			c-2.012-1.444-4-2.922-6.109-4.467c0.195-0.315,0.402-0.652,0.648-1.053c2.142,1.58,4.226,3.072,6.253,4.636
			c0.835,0.646,1.355,0.608,1.965-0.292c2.225-3.291,4.492-6.551,6.774-9.801c0.574-0.817,0.47-1.377-0.371-1.893
			c-1.487-0.912-2.952-1.858-4.491-2.831c0.242-0.379,0.441-0.691,0.763-1.194c1.941,1.405,3.766,2.864,5.74,4.082
			c0.695,0.429,1.755,0.267,2.953,0.412c-0.354-0.56-0.501-0.843-0.695-1.087c-4.607-5.813-6.936-12.566-8.199-19.768
			c-0.168-0.959,0.167-1.212,1.111-1.328c4.353-0.536,8.545-1.666,12.346-3.927c1.273-0.756,2.42-1.726,3.716-2.664
			c4.695,4.276,10.675,5.933,17.097,6.911c-0.938,8.007-3.475,15.29-8.691,21.704c1.373,0.079,2.416,0.26,3.545-0.832
			c1.356-1.31,3.146-2.17,4.819-3.273c0.266,0.335,0.491,0.62,0.722,0.91c-0.126,0.145-0.189,0.264-0.289,0.327
			c-1.364,0.879-2.728,1.76-4.103,2.621c-0.859,0.537-1.011,1.118-0.39,1.996c2.271,3.207,4.52,6.428,6.706,9.692
			c0.624,0.926,1.157,0.935,1.966,0.32c2.035-1.548,4.1-3.062,6.207-4.63c0.354,0.39,0.632,0.695,0.934,1.026
			c-2.226,1.626-4.376,3.238-6.57,4.789c-1.335,0.947-2.5,0.737-3.415-0.582c-2.335-3.37-4.66-6.747-6.933-10.159
			c-0.407-0.609-0.796-0.854-1.525-0.849c-4.146,0.033-8.296-0.06-12.439,0.07c-1.024,0.032-2.007,0.803-3.045,1.114
			c-2.668,0.805-3.49,2.623-3.025,5.223c0.05,0.287,0.006,0.592,0.006,0.883c1.308,0.091,2.003-0.464,2.548-1.978
			c0.778-2.159,0.778-2.161,3.097-2.161c1.283-0.002,2.565,0.002,3.847,0.007c0.127,0,0.254,0.032,0.376,0.05
			c1.155,2.919,1.601,3.206,4.842,3.271c0.488,0.009,1.056,0.08,1.444,0.337c3.203,2.124,6.4,4.257,9.541,6.473
			c2.015,1.417,1.89,4.158-0.134,5.343c-1.224,0.718-2.373,0.323-3.495-0.262c-1.01,2.855-2.446,3.557-4.665,2.62
			c-0.873,0.948-1.541,2.005-2.493,2.624c-1.18,0.766-2.378,0.015-3.457-0.634c-1.027,2.637-1.67,3.003-4.496,2.607
			c-0.188-0.027-0.412-0.004-0.581,0.077c-2.527,1.22-3.532,0.869-4.675-1.646c-2.216,0.144-3.088-0.453-3.86-2.642
			c-2.476-0.276-3.089-0.772-3.689-3.044c-1.501-0.001-2.757-0.555-3.28-2.084c-0.45-1.317,0.029-2.429,1.227-3.424
			C13.069,43.845,12.478,43.063,11.85,42.231z M14.034,9.797c0.135,0.763,0.221,1.392,0.357,2.009
			c1.444,6.495,3.833,12.548,8.19,17.703c0.604,0.717,1.232,1.023,2.185,1.008c3.501-0.056,7.006,0.017,10.507-0.06
			c0.627-0.015,1.415-0.354,1.836-0.811c2.724-2.959,4.589-6.447,5.996-10.191c1.17-3.107,2.045-6.287,2.456-9.661
			c-5.794-0.943-11.225-2.541-15.771-6.275C25.189,7.287,19.82,8.837,14.034,9.797z M35.04,42.837
			c3.103,2.127,6.091,4.185,9.09,6.225c1.188,0.805,2.217,0.708,2.808-0.207c0.605-0.941,0.317-1.933-0.8-2.691
			c-2.651-1.797-5.329-3.557-7.947-5.397c-0.985-0.693-1.969-1.05-3.188-0.994c-1.523,0.07-3.096-0.386-3.776-1.737
			c-0.849-1.689-2.123-1.638-3.569-1.567c-0.298,0.014-0.603,0.039-0.896-0.004c-0.852-0.128-1.25,0.181-1.524,1.05
			c-0.685,2.17-2.225,3.244-4.025,3.049c-0.708-0.077-1.061-0.342-1.035-1.129c0.05-1.58-0.042-3.165,0.051-4.741
			c0.026-0.441,0.401-0.983,0.778-1.258c0.802-0.585,1.711-1.024,2.576-1.523c-1.497-0.253-2.928-0.267-4.356-0.239
			c-0.224,0.005-0.534,0.126-0.652,0.296c-2.093,3.055-4.161,6.122-6.137,9.04c0.711,1.031,1.325,1.942,1.965,2.836
			c0.131,0.182,0.359,0.42,0.543,0.42c1.438,0.002,2.341,0.831,3.003,1.946c2.241-0.803,3.174-0.492,4.667,1.521
			c1.337-0.646,2.636-0.63,3.749,0.481c1.322,1.318,0.936,2.761,0.105,4.206c1.691,0.455,2.443,1.448,2.313,3.137
			c-0.02,0.257,0.608,0.844,0.756,0.789c0.6-0.223,1.381-0.517,1.612-1.012c0.229-0.49,0.059-1.369-0.267-1.861
			c-0.418-0.637-1.164-1.058-1.818-1.615c0.272-0.34,0.504-0.629,0.779-0.97c1.455,1.018,2.835,2.008,4.245,2.963
			c1.029,0.697,1.987,0.582,2.604-0.25c0.65-0.878,0.444-1.915-0.6-2.634c-1.496-1.035-3.025-2.02-4.567-3.045
			c0.306-0.403,0.532-0.701,0.825-1.087c0.572,0.386,1.098,0.732,1.616,1.089c1.727,1.187,3.435,2.395,5.177,3.553
			c0.963,0.64,2.062,0.443,2.59-0.426c0.595-0.979,0.3-1.797-0.569-2.451c-0.342-0.256-0.703-0.487-1.055-0.73
			c-1.922-1.327-3.843-2.654-5.778-3.991C34.599,43.483,34.79,43.204,35.04,42.837z M26.163,50.368
			c-0.403-0.495-0.719-1.234-1.233-1.418c-0.522-0.185-1.445-0.028-1.827,0.349c-0.84,0.827-1.567,1.829-2.102,2.881
			c-0.247,0.486-0.156,1.441,0.184,1.848c0.338,0.403,1.2,0.566,1.797,0.503C23.75,54.449,25.92,51.327,26.163,50.368z
			 M18.514,51.863c1.276,0.055,3.153-2.103,2.942-3.259c-0.184-1.002-1.305-1.862-2.026-1.308c-0.973,0.749-1.864,1.82-2.326,2.943
			C16.776,51.037,17.616,51.766,18.514,51.863z M15.125,45.616c-0.87,0.047-1.483,0.457-1.562,1.44
			c-0.076,0.932,0.662,1.8,1.579,1.802c0.929,0.004,1.547-0.459,1.64-1.422C16.862,46.578,16.008,45.648,15.125,45.616z M27.8,55.5
			c-0.01-0.19-0.018-0.382-0.027-0.572c-0.526-0.373-1.006-0.914-1.591-1.074c-0.705-0.193-1.646,0.843-1.614,1.625
			c0.036,0.84,0.554,1.532,1.331,1.35C26.598,56.667,27.17,55.965,27.8,55.5z"/>
		<path fill-rule="evenodd" clip-rule="evenodd" fill="#EC56B4" d="M48.01,37.331c0.423-0.269,0.705-0.448,1.074-0.681
			c0.239,0.356,0.457,0.681,0.719,1.072c-0.383,0.233-0.696,0.421-1.071,0.649C48.48,38.012,48.271,37.71,48.01,37.331z"/>
		<path fill-rule="evenodd" clip-rule="evenodd" fill="#EC56B4" d="M10.612,36.878c0.405,0.308,0.699,0.53,1.043,0.793
			c-0.243,0.363-0.45,0.673-0.691,1.034c-0.354-0.245-0.656-0.451-1.029-0.707C10.15,37.641,10.339,37.328,10.612,36.878z"/>
		<path fill-rule="evenodd" clip-rule="evenodd" fill="#EC56B4" d="M49.42,39.453c0.394-0.229,0.709-0.416,1.082-0.636
			c0.232,0.373,0.428,0.686,0.652,1.049c-0.36,0.253-0.665,0.467-1.043,0.732C49.874,40.204,49.662,39.854,49.42,39.453z"/>
		<path fill-rule="evenodd" clip-rule="evenodd" fill="#EC56B4" d="M9.447,40.843c-0.369-0.237-0.677-0.438-1.075-0.694
			c0.255-0.373,0.481-0.703,0.743-1.086c0.355,0.267,0.651,0.485,1.004,0.75C9.881,40.178,9.682,40.482,9.447,40.843z"/>
		<path fill-rule="evenodd" clip-rule="evenodd" fill="#EC56B4" d="M26.826,21.25c3.526-2.434,6.965-4.809,10.48-7.235
			c0.255,0.326,0.478,0.611,0.778,0.996c-3.883,2.681-7.698,5.315-11.612,8.016c-1.164-1.679-2.274-3.281-3.413-4.924
			c0.368-0.242,0.676-0.445,1.05-0.691C25.014,18.687,25.872,19.9,26.826,21.25z"/>
	</g>
</g>
<g id="Layer_2" display="none">
	<g display="inline">
		<path fill-rule="evenodd" clip-rule="evenodd" fill="#EC56B4" d="M20.789,28.994c0.454-1.779,1.003-3.543,1.293-5.348
			c0.07-0.43-0.64-1.101-1.129-1.485c-1.797-1.411-3.406-2.87-3.545-5.396c-0.153-2.795,1.246-4.692,3.385-6.165
			c4.463-3.071,11.534-2.882,15.883,0.374c3.803,2.849,3.953,7.313,0.319,10.383c-1.941,1.641-4.209,2.551-6.752,2.642
			c-1.32,0.047-2.274,0.467-3.306,1.407c-1.538,1.403-3.363,2.584-5.247,3.479c-1.189,0.565-1.583,1.082-1.569,2.363
			c0.041,4.212-3.109,7.85-7.023,8.294c-4.853,0.551-8.863-1.969-9.957-6.255c-1.162-4.552,1.358-9.202,5.725-10.563
			c4.637-1.444,9.154,0.767,10.887,5.329c0.1,0.259,0.216,0.512,0.324,0.768C20.313,28.878,20.552,28.936,20.789,28.994z
			 M24.402,24.598c0.666-0.626,0.967-0.813,1.135-1.082c0.92-1.473,2.261-1.676,3.91-1.843c1.927-0.195,3.941-0.825,5.633-1.772
			c3.08-1.723,3.063-5.084,0.192-7.13c-3.594-2.561-9.981-2.555-13.52,0.012c-2.692,1.953-2.854,4.981-0.161,6.857
			C23.256,20.8,24.995,21.695,24.402,24.598z"/>
		<path fill-rule="evenodd" clip-rule="evenodd" fill="#EC56B4" d="M1.75,51.59c0.18-4.729,3.801-9.467,7.613-10.134
			c4.527-0.792,7.713,1.798,10.586,9.08c1.21-1.403,2.226-2.58,3.445-3.993c-1.084-0.862-2.025-1.611-3.188-2.538
			c1.706-1.721,3.199-3.188,4.648-4.699c1.463-1.525,2.883-3.094,4.483-4.817c2.103,2.258,3.925,4.212,6.14,6.59
			c-0.591,0.434-1.398,0.898-2.047,1.527c-1.401,1.357-2.97,2.514-2.729,4.969c0.162,1.652-2.947,4.015-4.678,4.015
			c-7.528,0.002-15.057,0.001-22.584,0.001C2.877,51.59,2.314,51.59,1.75,51.59z M29.673,38.128
			c-1.938,2.004-3.748,3.876-5.604,5.795c0.366,0.728,0.832,1.201,1.756,0.405c0.325-0.281,0.844-0.563,1.229-0.511
			c2.669,0.359,3.499-1.841,4.839-3.126C31.083,39.755,30.385,38.95,29.673,38.128z"/>
		<path fill-rule="evenodd" clip-rule="evenodd" fill="#EC56B4" d="M54.584,31.027c-0.005,4.996-3.651,8.56-8.761,8.566
			c-4.824,0.006-8.563-3.692-8.553-8.461c0.012-5.08,3.636-8.761,8.621-8.753C50.966,22.386,54.588,25.99,54.584,31.027z"/>
		<path fill-rule="evenodd" clip-rule="evenodd" fill="#EC56B4" d="M34.02,51.526c0.205-4.478,5.23-10.059,11.425-10.118
			c6.636-0.063,12.199,4.289,12.806,10.118C50.214,51.526,42.184,51.526,34.02,51.526z"/>
	</g>
</g>
<g id="Layer_3" display="none">
	<g display="inline">
		<path fill="#EC56B4" d="M29.976,4.059C15.668,4.047,4.086,15.61,4.07,29.922C4.054,44.324,15.609,55.924,29.987,55.941
			c14.249,0.017,25.927-11.637,25.942-25.891C55.945,15.682,44.35,4.069,29.976,4.059z M47.559,32.33
			c-0.049,1.619-0.605,2.129-2.227,2.174c-0.418,0.011-0.843-0.024-1.251,0.046c-1.188,0.202-1.641,1.327-0.918,2.269
			c0.253,0.329,0.569,0.606,0.863,0.902c1,1.01,1.05,2.142,0.061,3.178c-1.089,1.143-2.203,2.262-3.348,3.346
			c-1.162,1.101-2.127,1.091-3.303,0.043c-0.312-0.277-0.58-0.605-0.903-0.867c-0.801-0.655-1.796-0.328-2.005,0.685
			c-0.102,0.493-0.038,1.018-0.079,1.526c-0.112,1.391-0.815,2.162-2.19,2.223c-1.575,0.066-3.159,0.069-4.734,0.003
			c-1.605-0.07-2.209-0.76-2.262-2.377c-0.011-0.37-0.016-0.74-0.021-1.112c-0.009-0.643-0.374-1.01-0.93-1.256
			c-0.548-0.245-0.958-0.059-1.393,0.296c-2.634,2.157-2.639,2.15-5.019-0.229c-0.82-0.82-1.664-1.619-2.449-2.474
			c-0.978-1.064-0.959-1.84,0.001-2.928c0.275-0.313,0.579-0.603,0.873-0.898c0.391-0.393,0.583-0.821,0.347-1.379
			c-0.235-0.554-0.582-0.914-1.224-0.981c-0.985-0.104-2.149,0.341-2.888-0.593c-0.752-0.949-0.339-2.154-0.397-3.247
			c-0.049-0.879-0.016-1.764-0.008-2.645c0.017-2.052,0.579-2.642,2.629-2.728c0.847-0.036,1.749,0.063,1.854-1.149
			c0.815-0.381,1.124,0.448,1.656,0.72c1.102,0.563,2.17,0.494,2.935-0.321c0.739-0.79,0.922-1.703,0.413-2.683
			c-0.415-0.796-1.093-1.276-2-1.292c-0.966-0.018-1.656,0.499-2.145,1.308c-0.292,0.482-0.307,1.237-1.154,1.179
			c-2.06-1.655-2.103-2.493-0.238-4.373c0.88-0.889,1.763-1.779,2.624-2.687c1.253-1.318,2.122-1.354,3.413-0.109
			c0.234,0.225,0.472,0.447,0.691,0.687c0.431,0.473,0.922,0.546,1.512,0.322c0.596-0.227,0.841-0.632,0.909-1.257
			c0.383-3.457,0.393-3.456,3.961-3.456c0.882,0,1.765-0.018,2.645,0.008c1.798,0.051,2.521,0.766,2.601,2.543
			c0.016,0.37-0.019,0.749,0.043,1.11c0.192,1.115,1.177,1.489,2.046,0.798c2.799-2.228,2.799-2.228,5.389,0.362
			c0.69,0.688,1.391,1.366,2.063,2.071c1.049,1.102,1.046,1.973,0.076,3.173c-0.347,0.429-0.613,0.92-0.916,1.382
			c-0.669-0.121-0.628-0.7-0.771-1.173c-0.456-1.509-1.732-2.23-3.081-1.755c-1.193,0.421-1.841,1.724-1.447,2.914
			c0.438,1.333,1.834,1.922,3.282,1.412c0.531-0.188,1.006-0.769,1.659-0.299c0.627,0.641,1.436,0.538,2.221,0.567
			c1.813,0.07,2.524,0.784,2.544,2.568C47.586,29.359,47.604,30.846,47.559,32.33z"/>
		<path fill-rule="evenodd" clip-rule="evenodd" fill="#EC56B4" d="M42.806,24.739c-1.261,1.092-2.594,1.829-4.267,0.856
			c-1.308-0.761-1.864-2.287-1.357-3.713c0.485-1.367,1.855-2.25,3.248-2.09c1.482,0.169,2.594,1.347,2.704,2.878
			c0.021,0.322,0.021,0.646,0.029,0.97C43.044,24.007,42.925,24.374,42.806,24.739z"/>
		<path fill-rule="evenodd" clip-rule="evenodd" fill="#EC56B4" d="M16.344,23.065c0.083-0.266,0.165-0.529,0.245-0.795
			c0.464-1.542,1.722-2.553,3.103-2.489c1.408,0.065,2.625,1.11,2.942,2.529c0.307,1.366-0.433,2.822-1.747,3.439
			c-1.324,0.622-2.759,0.234-3.833-1.04c-0.148-0.176-0.278-0.369-0.417-0.554C16.407,23.828,16.347,23.454,16.344,23.065z"/>
		<path fill-rule="evenodd" clip-rule="evenodd" fill="#EC56B4" d="M32.844,30.072c-0.015,1.852-1.211,3.048-3.049,3.045
			c-1.715-0.001-3.107-1.375-3.116-3.073c-0.009-1.77,1.396-3.124,3.214-3.096C31.722,26.976,32.858,28.178,32.844,30.072z"/>
		<path fill="#EC56B4" d="M35.37,39.934c-0.189-1.013-0.574-1.945-0.984-2.876c-0.312-0.398-0.601-0.816-0.938-1.191
			c-2.061-2.299-5.078-2.356-7.141-0.137c-0.375,0.403-0.704,0.85-1.055,1.277c-0.429,0.972-0.819,1.957-1.016,3.011
			c-0.143,0.765,0.137,1.144,0.932,1.142c3.095-0.005,6.192-0.01,9.287,0.01C35.379,41.175,35.52,40.738,35.37,39.934z
			 M29.858,40.01c-0.609,0.021-0.912-0.598-0.803-1.188c0.132-0.719,0.393-1.405,0.671-2.106l0,0c0-0.435-0.062-0.815-0.291-1.18
			c-0.137-0.215-0.184-0.468,0.096-0.565c0.202-0.072,0.465-0.081,0.66-0.004c0.291,0.114,0.19,0.379,0.057,0.572
			c-0.254,0.367-0.267,0.776-0.261,1.194c0.208,0.705,0.469,1.401,0.609,2.12C30.708,39.414,30.335,39.994,29.858,40.01z"/>
		<path fill="#EC56B4" d="M21.907,27.551c-2.769-1.006-4.618-0.534-6.252,1.596c-0.772,1.008-1.208,2.16-1.551,3.375
			c-0.318,1.127,0.04,1.497,1.179,1.479c3.327-0.056,6.654-0.042,9.981-0.056C25.088,31.318,24.061,29.139,21.907,27.551z
			 M19.572,27.816c0.246-0.011,0.575-0.103,0.631,0.31c-0.097,0.277-0.269,0.509-0.548,0.568c-0.332,0.071-0.513-0.198-0.586-0.456
			C18.946,27.802,19.321,27.827,19.572,27.816z M19.634,32.863c-0.59,0.046-0.833-0.531-0.789-1.073
			c0.062-0.78,0.262-1.539,0.866-2.605c0.296,1.064,0.55,1.795,0.691,2.547C20.508,32.297,20.146,32.825,19.634,32.863z"/>
		<path fill="none" d="M39.318,31.801c-0.079,0.534,0.261,1.085,0.821,1.086c0.493,0,0.756-0.535,0.738-1.021
			c-0.03-0.832-0.294-1.612-0.851-2.738C39.706,30.293,39.43,31.035,39.318,31.801z"/>
		<path fill="#EC56B4" d="M45.692,32.996c-0.324-4.216-3.983-6.782-7.876-5.463c-2.132,1.608-3.241,3.75-3.352,6.416
			c3.339,0.011,6.679,0.026,10.019,0.033C45.141,33.983,45.773,34.068,45.692,32.996z M40.053,27.801
			c0.251,0.042,0.615-0.05,0.612,0.351c-0.004,0.285-0.228,0.546-0.514,0.552c-0.357,0.007-0.598-0.281-0.617-0.615
			C39.517,27.769,39.843,27.84,40.053,27.801z M40.14,32.887c-0.561-0.001-0.9-0.552-0.821-1.086
			c0.111-0.766,0.388-1.507,0.709-2.673c0.557,1.125,0.82,1.906,0.851,2.738C40.896,32.352,40.633,32.887,40.14,32.887z"/>
	</g>
</g>
<g id="Layer_4">
	<g>
		<path fill-rule="evenodd" clip-rule="evenodd" fill="#EC56B4" d="M20.475,49.382c0.301-0.908,0.336-1.885,0.82-2.224
			c0.498-0.351,1.432-0.079,2.314-0.079c0-0.802,0.036-1.473-0.009-2.138c-0.056-0.831,0.265-1.201,1.114-1.132
			c0.489,0.041,0.985,0.008,1.55,0.008c0-1.411,0-2.715,0-4.171c-0.458,0-0.874,0-1.291,0c-4.977,0-9.954,0.002-14.931-0.002
			c-1.303-0.002-1.396-0.097-1.397-1.411c-0.002-10.062-0.002-20.123,0-30.185c0-1.387,0.078-1.466,1.447-1.468
			c3.223-0.005,6.445-0.034,9.667,0.025c0.628,0.012,1.404,0.208,1.847,0.61c2.319,2.101,4.971,2.675,8.061,2.535
			c4.752-0.216,9.521-0.059,14.284-0.056c1.307,0.001,1.389,0.082,1.389,1.418c0.004,6.373,0.004,12.747,0.004,19.12
			c0,0.354,0,0.71,0,1.045c5.059,1.662,7.341,4.515,6.841,8.491c-0.458,3.646-3.384,6.483-6.891,6.683
			c-4.178,0.237-7.044-2.122-8.197-6.802c-3.048,0-6.111,0-9.265,0c0,1.292,0,2.592,0,3.987c0.33,0.023,0.673,0.063,1.017,0.068
			c1.506,0.027,1.538,0.056,1.543,1.593c0.002,0.496,0.001,0.992,0.001,1.547c0.863,0.059,1.814-0.143,2.355,0.238
			c0.486,0.343,0.521,1.324,0.808,2.187c0.378,0,0.94,0,1.504,0c3.222,0,6.444-0.014,9.667,0.012c0.578,0.005,1.466-0.306,1.5,0.701
			c0.036,1.047-0.869,0.738-1.441,0.742c-3.474,0.026-6.946,0.016-10.42,0.017c-0.316,0-0.632,0-1.092,0
			c0,0.592-0.019,1.115,0.004,1.636c0.029,0.714-0.268,1.055-1.006,1.053c-3.509-0.011-7.018-0.011-10.526,0.001
			c-0.751,0.002-1.019-0.358-0.976-1.067c0.029-0.49,0.005-0.983,0.005-1.587c-0.879,0-1.622,0-2.363,0
			c-3.115,0-6.23,0.007-9.345-0.006c-0.537-0.002-1.291,0.198-1.318-0.669c-0.027-0.883,0.73-0.712,1.27-0.713
			c3.473-0.013,6.946-0.007,10.419-0.008C19.824,49.382,20.211,49.382,20.475,49.382z M43.831,15.521c-11.306,0-22.488,0-33.669,0
			c0,7.601,0,15.106,0,22.658c9.022,0,17.986,0,26.965,0c0.679-3.873,2.971-6.116,6.704-6.842
			C43.831,26.008,43.831,20.79,43.831,15.521z M43.832,11.188c-4.813,0-9.506-0.181-14.177,0.062
			c-3.321,0.173-6.172-0.452-8.655-2.713c-0.391-0.356-1.094-0.508-1.656-0.518c-2.79-0.05-5.582-0.023-8.373-0.016
			c-0.271,0-0.543,0.05-0.796,0.075c0,1.997,0,3.911,0,5.835c11.253,0,22.433,0,33.656,0C43.832,13.002,43.832,12.159,43.832,11.188
			z M38.631,38.904c-0.016,3.423,2.706,6.165,6.104,6.15c3.295-0.015,6.005-2.713,6.035-6.01c0.032-3.416-2.669-6.17-6.064-6.181
			C41.33,32.853,38.646,35.521,38.631,38.904z M25.134,45.265c0,0.796-0.021,1.475,0.006,2.15c0.03,0.738-0.31,1.046-1.028,1.021
			c-0.562-0.02-1.126-0.004-1.757-0.004c0,1.231,0,2.35,0,3.509c3.186,0,6.31,0,9.436,0c0-1.191,0-2.31,0-3.508
			c-0.591,0-1.088-0.033-1.581,0.007c-0.841,0.069-1.173-0.283-1.111-1.122c0.049-0.663,0.009-1.333,0.009-2.053
			C27.733,45.265,26.5,45.265,25.134,45.265z"/>
		<path fill-rule="evenodd" clip-rule="evenodd" fill="#EC56B4" d="M15.361,25.724c-0.709-2.265-0.481-3.495,0.706-4.421
			c1.038-0.81,2.401-0.913,3.504-0.18c1.758,1.168,1.654,2.826,1.039,4.561c1.118-0.527,2.177-1.026,3.237-1.526
			c-0.93-2.918-0.655-4.406,1.034-5.576c1.326-0.92,3.138-0.873,4.395,0.171c1.222,1.015,2.103,2.653,0.707,5.478
			c1.079,0.488,2.158,0.976,3.395,1.534c-0.75-1.921-0.723-3.65,1.278-4.721c1.116-0.598,2.239-0.437,3.212,0.35
			c1.465,1.184,1.342,2.713,0.789,4.264c0.084,0.088,0.122,0.161,0.182,0.185c2.272,0.957,2.342,1.073,2.343,3.577
			c0.003,2.879,0.131,2.443-2.493,2.447c-8.196,0.013-16.393-0.013-24.588,0.026c-1.063,0.005-1.447-0.367-1.336-1.371
			c0.016-0.141,0.013-0.287,0.001-0.429C12.593,28.035,12.698,26.133,15.361,25.724z M21.964,30.377c3.392,0,6.68,0,10.025,0
			c0-0.849,0-1.597-0.001-2.345c-0.003-1.461-2.273-2.771-3.612-2.087c-0.96,0.49-1.891,0.458-2.867-0.022
			c-0.354-0.174-0.855-0.183-1.255-0.101c-0.55,0.113-1.101,0.329-1.589,0.609c-0.294,0.17-0.645,0.533-0.668,0.833
			C21.913,28.283,21.964,29.313,21.964,30.377z M14.195,30.395c2.18,0,4.225,0,6.373,0c0-0.823,0.008-1.565-0.002-2.307
			c-0.012-0.988-0.481-1.212-1.431-0.925c-0.638,0.193-1.421,0.301-2.035,0.111c-1.72-0.531-2.911,0.206-2.904,1.958
			C14.197,29.587,14.195,29.941,14.195,30.395z M39.732,30.42c0-0.593,0.002-1.056-0.001-1.519
			c-0.008-1.264-1.472-2.243-2.613-1.701c-0.855,0.406-1.632,0.353-2.455-0.074c-0.619-0.32-1.176-0.125-1.253,0.596
			c-0.095,0.871-0.022,1.76-0.022,2.697C35.56,30.42,37.58,30.42,39.732,30.42z M29.218,21.81c0.018-1.302-0.991-2.377-2.238-2.384
			c-1.193-0.007-2.251,1.035-2.283,2.25c-0.04,1.44,1.167,3.108,2.256,3.123C28.019,24.813,29.197,23.258,29.218,21.81z
			 M37.588,23.871c0.013-0.935-0.661-1.676-1.555-1.708c-0.896-0.032-1.615,0.688-1.624,1.625c-0.01,1.074,0.824,2.225,1.619,2.236
			C36.743,26.034,37.572,24.889,37.588,23.871z M18.075,22.162c-0.908-0.026-1.535,0.575-1.584,1.521
			c-0.06,1.156,0.74,2.331,1.592,2.34c0.73,0.008,1.521-1.094,1.55-2.161C19.659,22.934,18.975,22.188,18.075,22.162z"/>
		<path fill-rule="evenodd" clip-rule="evenodd" fill="#EC56B4" d="M13.986,10.159c0.716,0.001,1.44-0.067,2.141,0.034
			c0.292,0.042,0.531,0.443,0.794,0.681c-0.26,0.243-0.51,0.681-0.78,0.695c-1.427,0.071-2.861,0.078-4.287,0.001
			c-0.293-0.016-0.561-0.483-0.84-0.742c0.276-0.224,0.532-0.599,0.833-0.64C12.547,10.092,13.271,10.157,13.986,10.159z"/>
		<path fill-rule="evenodd" clip-rule="evenodd" fill="#EC56B4" d="M19.698,11.602c-0.213,0-0.429,0.022-0.638-0.007
			c-0.168-0.023-0.411-0.063-0.475-0.177c-0.14-0.249-0.186-0.55-0.271-0.83c0.692-0.142,1.381-0.355,2.079-0.385
			c0.211-0.008,0.567,0.472,0.618,0.769c0.028,0.167-0.409,0.46-0.684,0.612C20.165,11.675,19.912,11.602,19.698,11.602z"/>
		<path fill-rule="evenodd" clip-rule="evenodd" fill="#EC56B4" d="M45.341,39.644c0,0.998,0.066,1.826-0.032,2.635
			c-0.04,0.326-0.438,0.608-0.673,0.911c-0.251-0.293-0.678-0.563-0.718-0.882c-0.102-0.836-0.034-1.693-0.034-2.665
			c-0.94,0-1.762,0.062-2.565-0.031c-0.327-0.037-0.614-0.411-0.921-0.633c0.32-0.244,0.619-0.65,0.967-0.699
			c0.767-0.106,1.559-0.032,2.517-0.032c0-0.872-0.083-1.689,0.036-2.477c0.057-0.375,0.498-0.693,0.764-1.038
			c0.222,0.346,0.586,0.671,0.634,1.038c0.099,0.769,0.03,1.557,0.03,2.479c0.894,0,1.704,0.003,2.514-0.002
			c0.499-0.002,1.058,0.057,0.907,0.696c-0.069,0.292-0.595,0.622-0.948,0.668C47.051,39.714,46.262,39.644,45.341,39.644z"/>
	</g>
</g>
<g id="Layer_5" display="none">
	<g display="inline">
		<path fill-rule="evenodd" clip-rule="evenodd" fill="#EC56B4" d="M7.639,56.5c-0.12-0.153-0.34-0.303-0.345-0.459
			c-0.083-2.43-0.792-5.021,1.037-7.086c0.729-0.823,1.895-1.336,2.95-1.779c1.716-0.723,2.027-2.213,0.727-3.495
			c-0.485-0.478-0.869-1.254-0.93-1.928c-0.137-1.518-0.095-3.059-0.03-4.586c0.072-1.709,1.262-2.791,2.985-2.821
			c0.862-0.015,1.726-0.016,2.588,0.001c1.692,0.033,2.908,1.147,2.983,2.842c0.066,1.487,0.128,2.992-0.033,4.465
			c-0.082,0.743-0.516,1.577-1.049,2.11c-1.064,1.064-0.88,2.737,0.521,3.284c0.692,0.27,1.398,0.503,2.233,0.799
			c0.981-1.468,2.556-2.136,4.233-2.618c0.929-0.267,1.519-0.863,1.584-1.819c0.063-0.929,0.268-1.838-0.824-2.565
			c-0.635-0.424-1.127-1.452-1.2-2.252c-0.173-1.905-0.103-3.84-0.047-5.759c0.053-1.833,1.38-3.141,3.224-3.224
			c1.213-0.054,2.432-0.055,3.646-0.003c1.873,0.079,3.248,1.451,3.295,3.306c0.047,1.843,0.146,3.702-0.048,5.524
			c-0.095,0.874-0.639,1.865-1.287,2.479c-1.24,1.175-1.11,3.47,0.458,4.18c0.578,0.261,1.237,0.498,0.82,1.191
			c-0.159,0.265-0.981,0.185-1.499,0.167c-0.813-0.027-1.621-0.133-2.704-0.229c0.632,2.052,1.114,3.803,1.719,5.51
			c0.333,0.938,0.203,1.582-0.524,2.289c-2.486,2.42-1.933,2.368-4.179-0.06c-0.609-0.659-0.763-1.252-0.497-2.098
			c0.548-1.739,1.005-3.507,1.497-5.251c-3.1-1.04-7.901,1.736-7.205,5.211c0.212,1.057,0.079,2.194,0.011,3.288
			c-0.029,0.469-0.293,0.925-0.45,1.387c-0.157,0-0.314,0-0.471,0c-0.192-0.433-0.543-0.863-0.548-1.299
			c-0.021-1.802,0.066-3.606,0.1-5.41c0.003-0.209-0.006-0.479-0.127-0.618c-0.548-0.621-3.087-1.06-3.955-0.674
			c0.311,0.992,0.518,2.048,0.964,2.99c0.745,1.571,0.404,2.751-0.97,3.723c-0.19,0.134-0.322,0.356-0.519,0.474
			c-0.191,0.115-0.438,0.222-0.649,0.203c-0.818-0.072-2.325-2.323-2.109-3.129c0.389-1.453,0.791-2.902,1.308-4.794
			c-1.242,0.32-2.161,0.499-3.041,0.794C9.47,49.367,8.71,50.433,8.66,52.354c-0.026,0.981,0.046,1.968-0.032,2.943
			C8.595,55.708,8.291,56.1,8.11,56.5C7.954,56.5,7.796,56.5,7.639,56.5z M33.67,37.438c0.106-0.044,0.211-0.09,0.315-0.135
			c-0.315-0.481-0.524-1.199-0.967-1.396c-1.207-0.539-2.506-0.88-3.781-1.258c-0.742-0.219-2.61,0.73-2.738,1.34
			c-0.467,2.224,0.009,3.326,1.905,4.499c0.847,0.523,1.667,1.1,2.69,0.403C32.346,40.04,34.139,39.608,33.67,37.438z
			 M12.448,40.813c0.141,0.55,0.127,1.224,0.452,1.625c1.124,1.39,2.459,1.436,4.09,0.578c1.174-0.617,1.11-1.551,1.097-2.574
			c-0.013-1.012-0.929-0.763-1.448-1.039c-0.439-0.235-0.956-0.325-1.438-0.478C13.582,38.412,12.563,39.131,12.448,40.813z
			 M33.566,34.438c0.423-2.394-0.342-3.361-2.524-3.367c-0.745-0.001-1.491-0.007-2.236,0.002c-1.76,0.021-2.48,0.912-2.168,2.821
			c1.24-0.973,2.527-1.081,3.941-0.442C31.525,33.88,32.558,34.113,33.566,34.438z M17.926,38.107
			c0.335-1.551-0.172-2.258-1.673-2.297c-0.741-0.019-1.487-0.046-2.223,0.016c-1.084,0.09-1.491,0.68-1.305,1.864
			C14.597,36.234,16.174,38.094,17.926,38.107z M28.41,44.849c1.123,0,2.212,0,3.36,0c-0.119-0.886-0.213-1.591-0.296-2.2
			c-0.997,0-1.876,0-2.79,0C28.601,43.313,28.507,44.068,28.41,44.849z M30.257,53.998c0.332-0.659,0.929-1.282,0.86-1.822
			c-0.143-1.122-0.637-2.199-1.098-3.645c-0.333,1.146-0.491,1.979-0.815,2.742C28.729,52.393,28.995,53.201,30.257,53.998z
			 M14.314,45.221c-0.059,0.532-0.112,1.021-0.169,1.539c0.791,0,1.539,0,2.348,0c-0.089-0.594-0.16-1.067-0.232-1.55
			c-0.38,0.041-0.688,0.098-0.995,0.099C14.964,45.311,14.663,45.256,14.314,45.221z M15.228,53.999
			c1.111-0.949,1.111-1.009-0.093-3.62C15.163,51.771,13.822,52.792,15.228,53.999z"/>
		<path fill-rule="evenodd" clip-rule="evenodd" fill="#EC56B4" d="M46.506,3.5c1.997,0.75,2.701,2.206,2.654,4.304
			c-0.096,4.158-0.025,8.319-0.029,12.48c-0.004,2.591-1.294,3.891-3.908,3.906c-2.982,0.017-5.965,0.022-8.948-0.008
			c-0.763-0.008-1.219,0.179-1.707,0.87c-0.582,0.827-1.489,1.452-2.332,2.059c-0.555,0.399-1.342,0.341-1.629,1.267
			c-0.181,0.587-1.008,0.422-1.164-0.138c-0.188-0.68-0.691-0.682-1.117-0.966c-0.986-0.661-2.001-1.364-2.748-2.263
			c-0.492-0.592-0.888-0.836-1.618-0.829c-2.943,0.031-5.887,0.018-8.831,0.011c-2.846-0.006-4.107-1.255-4.118-4.08
			c-0.009-2.315-0.004-4.631,0-6.946c0.001-0.594-0.034-1.345,0.803-1.229c0.298,0.042,0.7,0.772,0.712,1.198
			c0.069,2.353,0.03,4.709,0.034,7.063c0.004,1.868,0.553,2.409,2.473,2.414c3.022,0.007,6.044,0.026,9.066-0.01
			c1.214-0.014,2.042,0.376,2.667,1.498c1.492,2.673,5.139,2.688,6.624,0.016c0.628-1.13,1.441-1.524,2.654-1.511
			c3.061,0.031,6.123,0.017,9.184,0.007c1.802-0.006,2.424-0.618,2.428-2.382c0.007-4.278,0.01-8.556-0.001-12.833
			c-0.005-1.672-0.691-2.383-2.354-2.385C35.175,5,25.048,5,14.922,5.01c-1.767,0.002-2.354,0.639-2.362,2.449
			c-0.003,0.549,0.078,1.119-0.045,1.64c-0.07,0.298-0.462,0.704-0.728,0.718c-0.24,0.012-0.663-0.405-0.732-0.696
			c-0.646-2.733,0.267-4.582,2.708-5.621C24.678,3.5,35.592,3.5,46.506,3.5z"/>
		<path fill-rule="evenodd" clip-rule="evenodd" fill="#EC56B4" d="M38.968,56.5c-0.171-0.407-0.464-0.807-0.491-1.224
			c-0.069-1.094-0.046-2.196-0.018-3.292c0.039-1.558-0.323-2.927-1.495-4.057c-0.235-0.227-0.139-0.798-0.195-1.211
			c0.418,0.054,0.882,0.013,1.24,0.189c0.365,0.18,0.627,0.572,0.975,0.912c0.511-0.185,1.054-0.387,1.603-0.576
			c2.013-0.696,2.313-2.128,0.868-3.653c-0.445-0.468-0.778-1.208-0.828-1.85c-0.119-1.52-0.078-3.057-0.028-4.585
			c0.053-1.627,1.243-2.762,2.873-2.807c0.941-0.024,1.884-0.029,2.823,0.002c1.604,0.054,2.791,1.241,2.828,2.858
			c0.034,1.449,0.127,2.915-0.039,4.347c-0.09,0.776-0.516,1.638-1.055,2.211c-1.032,1.097-0.813,2.756,0.597,3.292
			c0.438,0.167,0.893,0.293,1.323,0.477c1.723,0.735,2.871,2.009,2.95,3.897c0.069,1.682-0.166,3.378-0.268,5.068
			c-0.235,0-0.472,0-0.707,0c-0.152-0.464-0.403-0.92-0.438-1.393c-0.069-0.976-0.007-1.96-0.025-2.939
			c-0.05-2.633-3.138-4.687-5.581-3.721c-0.006,0.038-0.023,0.082-0.014,0.116c0.399,1.308,0.805,2.615,1.202,3.925
			c0.301,0.996-1.125,3.242-2.158,3.403c-0.113,0.018-0.235,0.009-0.348-0.019c-0.931-0.225-2.217-2.413-1.962-3.343
			c0.375-1.375,0.76-2.746,1.145-4.128c-1.55-0.546-2.634,0.326-3.8,0.759c-0.125,0.047-0.168,0.456-0.163,0.696
			c0.034,1.877,0.114,3.756,0.115,5.633c0,0.337-0.298,0.674-0.458,1.01C39.282,56.5,39.126,56.5,38.968,56.5z M41.895,40.839
			c0.205,0.562,0.262,1.265,0.639,1.662c1.405,1.479,2.314,1.461,4.114,0.443c1.104-0.626,1.015-1.548,1.003-2.527
			c-0.013-0.944-0.862-0.737-1.366-0.972c-0.528-0.244-1.106-0.387-1.666-0.563C43.127,38.412,42.053,39.209,41.895,40.839z
			 M47.524,38.097c0.267-1.559-0.253-2.249-1.74-2.286c-0.74-0.019-1.486-0.046-2.223,0.017c-1.053,0.089-1.483,0.696-1.347,1.933
			C44.12,36.152,45.729,38.154,47.524,38.097z M43.837,45.207c-0.058,0.591-0.103,1.053-0.149,1.543c0.8,0,1.545,0,2.37,0
			c-0.084-0.585-0.15-1.034-0.224-1.533c-0.371,0.036-0.675,0.092-0.979,0.092C44.549,45.308,44.243,45.251,43.837,45.207z
			 M44.773,53.947c1.035-0.823,1.003-1.834-0.159-3.319C44.737,51.809,43.318,52.907,44.773,53.947z"/>
		<path fill-rule="evenodd" clip-rule="evenodd" fill="#EC56B4" d="M29.995,10.354c-3.373,0-6.744,0-10.117,0
			c-0.196,0-0.399,0.034-0.587-0.006c-0.638-0.139-1.738,0.44-1.729-0.766c0.008-1.12,1.057-0.657,1.666-0.685
			c1.448-0.064,2.9-0.021,4.351-0.021c5.764,0,11.529,0,17.294,0c0.313,0,0.67-0.092,0.929,0.029
			c0.333,0.154,0.586,0.48,0.873,0.732c-0.305,0.238-0.583,0.532-0.925,0.694c-0.225,0.106-0.54,0.022-0.813,0.022
			C37.288,10.354,33.642,10.354,29.995,10.354z"/>
		<path fill-rule="evenodd" clip-rule="evenodd" fill="#EC56B4" d="M30.095,14.652c-3.645,0-7.29,0.001-10.936-0.001
			c-0.352,0-0.731,0.047-1.047-0.067c-0.239-0.087-0.574-0.417-0.551-0.602c0.034-0.282,0.286-0.642,0.542-0.765
			c0.292-0.139,0.69-0.063,1.042-0.064c7.291-0.002,14.582-0.002,21.873-0.001c0.274,0,0.603-0.091,0.81,0.027
			c0.328,0.188,0.574,0.517,0.854,0.787c-0.275,0.225-0.524,0.581-0.834,0.645c-0.525,0.11-1.09,0.041-1.64,0.041
			C36.838,14.653,33.467,14.652,30.095,14.652z"/>
		<path fill-rule="evenodd" clip-rule="evenodd" fill="#EC56B4" d="M30.141,17.447c1.879,0,3.758-0.005,5.637,0.004
			c0.589,0.002,1.342-0.022,1.252,0.797c-0.032,0.294-0.769,0.725-1.188,0.731c-3.835,0.057-7.671,0.056-11.506,0
			c-0.416-0.006-1.136-0.427-1.177-0.729c-0.114-0.838,0.644-0.798,1.23-0.799C26.306,17.442,28.223,17.447,30.141,17.447z"/>
	</g>
</g>
<g id="Layer_6" display="none">
	<g display="inline">
		<path fill-rule="evenodd" clip-rule="evenodd" fill="#EC56B4" d="M40.702,29.653c-5.504,0.46-9.877-2.118-14.381-4.337
			c-1.212-0.597-2.528-1.118-3.851-1.323c-2.207-0.342-3.874,1.669-3.46,3.857c0.474,2.504,0.894,5.019,1.307,7.534
			c0.208,1.263-0.1,1.658-1.351,1.876c-0.9,0.155-1.801,0.314-2.707,0.437c-2.204,0.295-3.963-0.892-4.39-3.046
			c-0.503-2.535-0.958-5.082-1.364-7.635c-0.304-1.91,0.418-3.314,2.141-4.11c0.607-0.28,0.709-0.644,0.784-1.207
			c0.971-7.259,5.976-12.854,12.83-14.373c9.682-2.147,18.871,4.263,20.266,14.167c0.104,0.734,0.289,1.185,1.028,1.542
			c1.482,0.715,2.204,2.036,1.961,3.665c-0.409,2.744-0.889,5.481-1.468,8.194c-0.431,2.017-2.2,3.072-4.344,2.802
			c-1.939-0.243-1.919-0.232-2.896,1.465c-1.492,2.595-3.206,5.021-5.775,6.67c-3.689,2.367-7.803,2.188-11.087-0.695
			c-1.55-1.361-2.766-3.11-4.085-4.723c-0.505-0.618-0.443-1.324,0.262-1.782c0.729-0.474,1.239-0.067,1.741,0.521
			c1.277,1.496,2.445,3.147,3.956,4.367c2.611,2.109,5.41,2.123,8.112,0.139c3.264-2.396,5.472-5.564,6.15-9.649
			C40.312,32.626,40.479,31.232,40.702,29.653z M18.634,22.722c2.117-1.951,4.756-1.543,7.365-0.286
			c2.156,1.039,4.251,2.214,6.322,3.417c1.737,1.009,3.554,1.493,5.561,1.378c0.679-0.039,1.008-0.252,0.925-0.941
			c-0.264-2.185-0.316-4.423-0.854-6.539c-0.777-3.054-2.523-5.521-5.786-6.343c-3.4-0.856-6.579-0.223-9.35,2.008
			c-1.551,1.249-2.577,2.887-3.254,4.747c-0.251,0.689-0.716,1.174-1.454,0.938c-0.386-0.123-0.816-0.581-0.922-0.97
			c-0.104-0.377,0.135-0.88,0.306-1.294c3.897-9.446,14.62-9.512,19.993-6.127c3.134,1.974,4.882,4.929,5.894,8.404
			c0.102,0.348,0.397,0.64,0.603,0.958c-0.493-7.51-7.398-13.819-15.878-12.723c-6.425,0.831-12.626,7.269-12.11,12.353
			C16.865,22.04,17.642,22.339,18.634,22.722z M16.027,24.57c-0.795,0.143-1.39,0.245-1.981,0.359
			c-0.954,0.183-1.383,0.794-1.229,1.722c0.415,2.508,0.863,5.01,1.329,7.509c0.15,0.804,0.666,1.305,1.522,1.221
			c0.699-0.068,1.385-0.26,2.149-0.411C17.213,31.469,16.63,28.08,16.027,24.57z M42.344,34.988
			c0.428,0.108,0.644,0.179,0.866,0.218c2.096,0.359,2.332,0.204,2.729-1.89c0.376-1.979,0.739-3.96,1.086-5.944
			c0.324-1.858-0.002-2.304-1.861-2.61c-0.364-0.06-0.736-0.077-1.217-0.124C43.41,28.106,42.883,31.508,42.344,34.988z"/>
		<path fill-rule="evenodd" clip-rule="evenodd" fill="#EC56B4" d="M35.514,49.89c-2.529,4.151-8.346,4.371-11.066,0.015
			c-2.277,0.925-4.561,1.853-6.844,2.78c-0.247,0.101-0.49,0.211-0.742,0.295c-0.708,0.234-1.318,0.087-1.621-0.624
			c-0.323-0.761-0.024-1.335,0.735-1.649c1.755-0.727,3.514-1.446,5.272-2.164c1.056-0.432,2.118-0.849,3.173-1.283
			c0.885-0.364,1.579-0.221,1.916,0.749c0.609,1.757,1.873,2.707,3.68,2.706c1.816-0.002,3.043-0.996,3.657-2.739
			c0.294-0.834,0.915-1.06,1.737-0.725c2.778,1.133,5.556,2.269,8.338,3.393c0.814,0.328,1.333,0.856,0.946,1.748
			c-0.367,0.846-1.092,0.794-1.844,0.484C40.427,51.88,37.997,50.899,35.514,49.89z"/>
	</g>
</g>
</svg>
