<svg xmlns="http://www.w3.org/2000/svg" viewBox="0 0 80 80"><path fill="none" stroke="#fff" stroke-width="2" stroke-miterlimit="10" d="M75 65H5c-2.2 0-4-1.8-4-4V19c0-2.2 1.8-4 4-4h70c2.2 0 4 1.8 4 4v42c0 2.2-1.8 4-4 4z" stroke-linecap="round" stroke-linejoin="round"/><g fill="#fff"><path d="M42 54.8c0-1.3-.8-2.1-1.9-2.1-1.2 0-2 .9-2 2.1 0 1.3.9 2.1 2.1 2.1.6 0 1.2-.2 1.7-.6l-.4-.7c-.3.3-.8.4-1.2.4-.6 0-1.1-.3-1.2-1h3c-.1 0-.1-.1-.1-.2zm-3-.4c.1-.6.4-1 1.1-1 .6 0 .9.4 1 1H39zM28.3 52.7v.5c-.3-.4-.7-.6-1.3-.6-1.1 0-2 .9-2 2.1 0 1.2.9 2.1 2 2.1.6 0 1-.2 1.3-.6v.5h.9v-4h-.9zm-1.2 3.4c-.8 0-1.2-.6-1.2-1.3 0-.7.5-1.3 1.2-1.3s1.2.6 1.2 1.3c0 .7-.5 1.3-1.2 1.3zM53.2 52.7v.5c-.3-.4-.7-.6-1.3-.6-1.1 0-2 .9-2 2.1 0 1.2.9 2.1 2 2.1.6 0 1-.2 1.3-.6v.5h.8v-4h-.8zM52 56.1c-.8 0-1.2-.6-1.2-1.3 0-.7.5-1.3 1.2-1.3s1.2.6 1.2 1.3c0 .7-.5 1.3-1.2 1.3zM24.2 56.8h-.9v-2.3c0-.7-.3-1.1-.9-1.1-.6 0-1 .4-1 1.1v2.2h-.9v-2.3c0-.7-.3-1.1-.9-1.1-.6 0-1 .4-1 1.1v2.2h-.9v-4.1h.9v.5c.3-.5.8-.6 1.2-.6.6 0 1.1.3 1.3.7.4-.6.9-.7 1.4-.7 1 0 1.6.7 1.6 1.6v2.8zM31.8 56.9c-.7 0-1.3-.2-1.8-.5l.4-.7c.3.2.7.4 1.3.4.6 0 .9-.2.9-.5 0-.2-.2-.4-.7-.4l-.4-.1c-.9-.1-1.4-.5-1.4-1.2 0-.8.7-1.3 1.7-1.3.6 0 1.2.1 1.7.4l-.4.7c-.2-.2-.7-.3-1.3-.3-.5 0-.8.2-.8.5s.3.3.7.4l.4.1c.9.1 1.4.5 1.4 1.2.1.7-.5 1.3-1.7 1.3zM36.5 56.9c-1 0-1.4-.6-1.4-1.5v-1.8h-.8v-.8h.7v-1.2h.9v1.2h1.4v.8h-1.4v1.8c0 .4.1.7.6.7.2 0 .5-.1.8-.2l.3.8c-.3.1-.8.2-1.1.2zM45.3 53.6c-.2-.1-.4-.1-.6-.1-.6 0-.9.4-.9 1v2.3H43v-4.1h.9v.5c.2-.4.6-.6 1.1-.6.2 0 .4 0 .6.1l-.3.9zM47.9 56.1c.4 0 .7-.1 1.1-.4l.4.7c-.4.3-.8.5-1.5.5-1.3 0-2.2-.9-2.2-2.1 0-1.2.9-2.1 2.2-2.1.6 0 1 .1 1.5.5l-.4.6c-.3-.2-.7-.4-1.1-.4-.7 0-1.2.5-1.2 1.3s.5 1.3 1.2 1.4zM57.5 53.6c-.2-.1-.4-.1-.6-.1-.6 0-.9.4-.9 1v2.3h-.9v-4.1h.9v.5c.2-.4.6-.6 1.1-.6.2 0 .4 0 .6.1l-.2.9zM61.3 51.1v2.1c-.3-.4-.7-.6-1.3-.6-1.1 0-2 .9-2 2.1 0 1.2.9 2.1 2 2.1.6 0 1-.2 1.3-.6v.5h.9V51h-.9zm-1.1 5c-.8 0-1.2-.6-1.2-1.3 0-.7.5-1.3 1.2-1.3s1.2.6 1.2 1.3c0 .7-.5 1.3-1.2 1.3zM40 27.2c-2.4-2.2-5.5-3.6-9-3.6-7.3 0-13.2 5.9-13.2 13.2S23.7 49.9 31 49.9c3.5 0 6.7-1.4 9-3.6-2.6-2.4-4.2-5.8-4.2-9.6s1.6-7.1 4.2-9.5zM49 23.6c-3.5 0-6.7 1.4-9 3.6 2.6 2.4 4.2 5.8 4.2 9.6S42.6 44 40 46.4c2.4 2.2 5.5 3.6 9 3.6 7.3 0 13.2-5.9 13.2-13.2S56.3 23.6 49 23.6z"/></g></svg>