<?xml version="1.0" encoding="utf-8"?>
<!-- Generator: Adobe Illustrator 16.0.0, SVG Export Plug-In . SVG Version: 6.00 Build 0)  -->
<!DOCTYPE svg PUBLIC "-//W3C//DTD SVG 1.1//EN" "http://www.w3.org/Graphics/SVG/1.1/DTD/svg11.dtd">
<svg version="1.1" xmlns="http://www.w3.org/2000/svg" xmlns:xlink="http://www.w3.org/1999/xlink" x="0px" y="0px" width="60px"
	 height="60px" viewBox="0 0 60 60" enable-background="new 0 0 60 60" xml:space="preserve">
<g id="Layer_1" display="none">
	<g id="Layer_1_1_">
		<g display="inline">
			<path fill="#FFFFFF" d="M11.625,25.2c0-0.15,0.15-0.3,0.375-0.3h3.225c0.45,0,1.125,0.15,1.35,0.825l0.6,2.55
				c0,0.15-0.075,0.3-0.225,0.375H16.8c-0.075,0-0.225-0.075-0.3-0.15c-1.05-1.35-2.7-2.325-4.65-3
				C11.7,25.5,11.625,25.35,11.625,25.2z"/>
			<path fill="#FFFFFF" d="M19.275,35.4H16.5c-0.15,0-0.3-0.075-0.3-0.227l-2.4-7.65c-0.075-0.15,0-0.3,0.15-0.375
				c0.15-0.075,0.3-0.075,0.375,0c1.725,1.2,3,2.775,3.45,3.826v0.074l0.3,1.051L21,25.125c0.075-0.15,0.15-0.225,0.3-0.225h2.55
				c0.15,0,0.225,0.075,0.3,0.15c0.075,0.075,0.075,0.225,0,0.3l-4.575,9.825C19.575,35.325,19.425,35.4,19.275,35.4z M26.85,35.175
				c0,0.15-0.15,0.3-0.375,0.3h-2.4c-0.075,0-0.225-0.074-0.3-0.148C23.7,35.25,23.7,35.175,23.7,35.1l1.8-9.825
				c0-0.15,0.15-0.3,0.375-0.3h2.4c0.075,0,0.225,0.075,0.3,0.15c0.075,0.075,0.075,0.15,0.075,0.225L26.85,35.175z M34.95,29.175
				c1.725,0.75,2.475,1.575,2.475,2.775c0,2.1-2.024,3.45-5.175,3.45c-1.125,0-2.25-0.15-3.075-0.45
				c-0.15-0.075-0.225-0.226-0.225-0.375L29.25,33c0-0.075,0.075-0.15,0.15-0.225c0.075-0.075,0.225-0.075,0.3,0
				C30.6,33.15,31.275,33.3,32.475,33.3c0.825,0,1.801-0.3,1.801-0.975c0-0.45-0.375-0.75-1.574-1.275
				c-1.125-0.45-2.625-1.275-2.625-2.775c0-1.95,2.1-3.3,5.023-3.3c1.051,0,1.875,0.15,2.4,0.3c0.15,0.075,0.3,0.225,0.225,0.375
				l-0.3,1.5c0,0.075-0.075,0.15-0.149,0.225s-0.226,0.075-0.301,0C36.525,27.225,35.925,27,34.95,27h-0.075
				c-1.125,0-1.725,0.45-1.725,0.9C33.225,28.425,33.9,28.725,34.95,29.175L34.95,29.175z M46.05,25.2
				c0-0.15-0.149-0.225-0.375-0.225h-2.1c-0.825,0-1.351,0.225-1.65,0.9l-4.35,9.15c-0.075,0.074,0,0.225,0,0.3
				c0.075,0.075,0.149,0.149,0.3,0.149h2.475c0.15,0,0.301-0.074,0.301-0.226c0.301-0.75,0.524-1.2,0.601-1.351h3.976
				c0.074,0.301,0.226,1.051,0.301,1.351c0,0.149,0.148,0.226,0.375,0.226H48c0.075,0,0.225-0.074,0.3-0.149s0.075-0.15,0.075-0.3
				L46.05,25.2z M42.15,31.725l1.648-3.898l0.227,0.9l0.75,3H42.15V31.725z"/>
		</g>
		
			<path display="inline" fill="none" stroke="#FFFFFF" stroke-width="2" stroke-linecap="round" stroke-linejoin="round" stroke-miterlimit="10" d="
			M56.25,48.75H3.75c-1.65,0-3-1.35-3-3v-31.5c0-1.65,1.35-3,3-3h52.5c1.65,0,3,1.35,3,3v31.5C59.25,47.4,57.9,48.75,56.25,48.75z"
			/>
	</g>
	<g>
		<path display="inline" fill="#FFFFFF" d="M9.967,35.436c-0.367,0-0.733,0-1.1,0c-0.023-0.045-0.068-0.037-0.107-0.041
			c-2.265-0.285-4.09-1.914-4.629-4.125c-0.052-0.211-0.041-0.439-0.15-0.639c0-0.394,0-0.787,0-1.181
			c0.053-0.029,0.037-0.082,0.042-0.126c0.286-2.297,2.019-4.174,4.281-4.644c0.161-0.034,0.334-0.018,0.48-0.115
			c0.38,0,0.761,0,1.14,0c0.112,0.076,0.246,0.055,0.369,0.074c2.766,0.434,4.768,2.995,4.527,5.798
			c-0.199,2.299-1.74,4.167-3.953,4.801C10.57,35.322,10.26,35.337,9.967,35.436z M11.098,30.108
			c0.572-0.28,0.803-0.688,0.703-1.243c-0.077-0.416-0.385-0.633-0.727-0.821c-0.146-0.081-0.388-0.081-0.431-0.223
			c-0.043-0.146,0.061-0.337,0.103-0.508c0.116-0.471,0.115-0.466-0.369-0.561c-0.107-0.021-0.128,0.015-0.148,0.097
			c-0.054,0.224-0.122,0.445-0.164,0.67c-0.027,0.143-0.087,0.152-0.21,0.121c-0.308-0.078-0.308-0.073-0.229-0.383
			c0.019-0.073,0.036-0.145,0.054-0.218c0.113-0.463,0.112-0.461-0.357-0.555c-0.104-0.021-0.146,0.008-0.169,0.11
			c-0.051,0.23-0.117,0.458-0.167,0.69c-0.026,0.124-0.083,0.15-0.199,0.118c-0.222-0.064-0.446-0.115-0.669-0.171
			c-0.377-0.096-0.367-0.094-0.475,0.285c-0.057,0.196-0.041,0.305,0.188,0.32c0.085,0.005,0.173,0.038,0.253,0.072
			c0.165,0.07,0.242,0.197,0.198,0.375c-0.213,0.861-0.427,1.722-0.644,2.582c-0.039,0.152-0.134,0.223-0.304,0.188
			c-0.137-0.025-0.301-0.144-0.403-0.068c-0.104,0.076-0.134,0.257-0.196,0.392c-0.022,0.049-0.042,0.101-0.066,0.147
			C6.631,31.6,6.634,31.641,6.734,31.66c0.179,0.035,0.355,0.086,0.532,0.134c0.176,0.046,0.422,0.045,0.507,0.16
			c0.101,0.134-0.048,0.353-0.089,0.534C7.583,32.934,7.58,32.926,8.02,33.04c0.146,0.038,0.172-0.015,0.197-0.131
			c0.049-0.226,0.108-0.448,0.164-0.673c0.012-0.045,0.021-0.125,0.057-0.119c0.133,0.019,0.269,0.04,0.39,0.094
			c0.104,0.046,0.023,0.143,0.01,0.215c-0.023,0.112-0.055,0.225-0.083,0.335c-0.115,0.46-0.114,0.458,0.359,0.552
			c0.099,0.021,0.146,0.002,0.168-0.105c0.043-0.213,0.117-0.419,0.152-0.632c0.03-0.187,0.119-0.228,0.287-0.187
			c0.219,0.053,0.444,0.049,0.668,0.041c0.637-0.021,1.043-0.332,1.229-0.959c0.181-0.609,0.035-1.019-0.499-1.337
			C11.113,30.131,11.11,30.124,11.098,30.108z"/>
		<path display="inline" fill="#FFFFFF" d="M19.616,24.564c-0.283,1.17-0.566,2.34-0.854,3.536c0.23-0.069,0.431-0.158,0.647-0.198
			c1.483-0.271,2.678,0.55,2.968,2.043c0.398,2.05-0.629,4.128-2.502,5.052c-0.422,0.207-0.868,0.339-1.336,0.397
			c-0.037,0.006-0.083-0.011-0.104,0.041c-0.055,0-0.109,0-0.164,0c-0.067-0.063-0.135-0.061-0.203,0c-0.109,0-0.218,0-0.326,0
			c-0.109-0.064-0.217-0.064-0.327,0c-0.108,0-0.217,0-0.325,0c-0.024-0.063-0.079-0.041-0.122-0.047
			c-0.572-0.08-1.135-0.188-1.675-0.4c-0.157-0.063-0.19-0.135-0.15-0.299c0.25-1.006,0.486-2.015,0.727-3.021
			c0.521-2.195,1.043-4.389,1.561-6.583c0.032-0.137,0.082-0.207,0.231-0.22c0.222-0.019,0.443-0.058,0.663-0.1
			c0.375-0.071,0.762-0.081,1.128-0.202C19.507,24.564,19.562,24.564,19.616,24.564z M18.002,33.739c0.598,0,1.033-0.14,1.446-0.536
			c0.835-0.805,1.131-1.792,0.893-2.929c-0.075-0.357-0.276-0.625-0.661-0.686c-0.397-0.063-0.782-0.009-1.143,0.183
			c-0.14,0.074-0.219,0.178-0.257,0.338c-0.239,1.022-0.487,2.042-0.732,3.062C17.411,33.738,17.411,33.738,18.002,33.739z"/>
		<path display="inline" fill="#FFFFFF" d="M40.501,35.436c-0.108-0.08-0.241-0.064-0.362-0.098
			c-1.103-0.285-1.736-1.029-1.898-2.117c-0.26-1.729,0.197-3.264,1.519-4.458c1.07-0.968,2.335-1.202,3.692-0.733
			c1.006,0.349,1.472,1.168,1.594,2.173c0.168,1.396-0.161,2.683-1.043,3.795c-0.626,0.789-1.439,1.284-2.458,1.404
			c-0.022,0.002-0.042,0.021-0.065,0.033C41.152,35.436,40.826,35.436,40.501,35.436z M40.199,32.137
			c0.003,0.442,0.029,0.771,0.168,1.082c0.115,0.26,0.313,0.412,0.582,0.456c0.42,0.069,0.807-0.009,1.14-0.3
			c0.511-0.441,0.765-1.021,0.894-1.667c0.104-0.532,0.121-1.063-0.061-1.585c-0.111-0.325-0.333-0.512-0.679-0.559
			c-0.466-0.063-0.858,0.075-1.183,0.403C40.436,30.6,40.23,31.391,40.199,32.137z"/>
		<path display="inline" fill="#FFFFFF" d="M34.557,35.436c-0.121-0.078-0.269-0.064-0.402-0.1c-1.19-0.307-1.928-1.055-2.106-2.277
			c-0.215-1.471,0.114-2.81,1.127-3.929c0.734-0.81,1.679-1.223,2.761-1.301c0.77-0.057,1.518,0.036,2.229,0.346
			c0.108,0.047,0.144,0.082,0.087,0.201c-0.197,0.43-0.391,0.864-0.57,1.301c-0.056,0.131-0.113,0.155-0.24,0.101
			c-0.56-0.238-1.143-0.314-1.729-0.156c-0.938,0.251-1.385,0.942-1.553,1.844c-0.084,0.449-0.097,0.904,0.034,1.353
			c0.162,0.559,0.508,0.83,1.086,0.871c0.521,0.035,1.027-0.037,1.518-0.221c0.131-0.05,0.158-0.021,0.168,0.109
			c0.032,0.439,0.072,0.879,0.121,1.316c0.016,0.125-0.029,0.179-0.146,0.215c-0.373,0.123-0.746,0.244-1.14,0.285
			c-0.026,0.002-0.054,0.008-0.062,0.041C35.346,35.436,34.95,35.436,34.557,35.436z"/>
		<path display="inline" fill="#FFFFFF" d="M17.417,35.436c0.109-0.063,0.218-0.063,0.327,0
			C17.634,35.436,17.526,35.436,17.417,35.436z"/>
		<path display="inline" fill="#FFFFFF" d="M18.069,35.436c0.068-0.06,0.135-0.062,0.203,0
			C18.204,35.436,18.137,35.436,18.069,35.436z"/>
		<path display="inline" fill="#FFFFFF" d="M53.882,35.238c-0.284,0-0.567-0.006-0.854,0.003c-0.135,0.003-0.153-0.026-0.121-0.16
			c0.301-1.25,0.6-2.503,0.887-3.756c0.085-0.368,0.186-0.739,0.115-1.125c-0.072-0.39-0.295-0.599-0.688-0.628
			c-0.291-0.022-0.582,0.004-0.871,0.044c-0.123,0.016-0.145,0.093-0.168,0.192c-0.416,1.752-0.838,3.502-1.248,5.256
			c-0.035,0.146-0.094,0.179-0.231,0.177c-0.556-0.007-1.113-0.007-1.669,0c-0.15,0.003-0.192-0.019-0.151-0.185
			c0.534-2.189,1.063-4.385,1.589-6.578c0.021-0.094,0.053-0.148,0.154-0.183c1.061-0.358,2.146-0.526,3.264-0.431
			c0.853,0.073,1.564,0.394,1.924,1.242c0.273,0.646,0.244,1.315,0.092,1.978c-0.309,1.34-0.635,2.675-0.948,4.013
			c-0.024,0.104-0.067,0.146-0.179,0.144C54.479,35.234,54.182,35.238,53.882,35.238z"/>
		<path display="inline" fill="#FFFFFF" d="M29.387,35.402c-0.204,0-0.408,0.002-0.611,0.002c-0.338-0.027-0.675-0.064-0.994-0.188
			c-0.771-0.3-1.17-0.982-1.142-1.919c0.023-0.778,0.224-1.526,0.401-2.276c0.358-1.528,0.726-3.055,1.081-4.584
			c0.039-0.167,0.097-0.246,0.276-0.269c0.571-0.076,1.14-0.167,1.706-0.264c0.191-0.034,0.199,0.023,0.158,0.185
			c-0.152,0.589-0.286,1.184-0.438,1.774c-0.033,0.126-0.003,0.147,0.116,0.146c0.644-0.003,1.289,0.004,1.933-0.004
			c0.16-0.003,0.197,0.037,0.156,0.194c-0.114,0.438-0.223,0.878-0.324,1.32c-0.028,0.126-0.08,0.173-0.214,0.171
			c-0.646-0.008-1.289-0.002-1.934-0.006c-0.104,0-0.174,0.008-0.203,0.134c-0.208,0.911-0.422,1.821-0.634,2.729
			c-0.007,0.027-0.013,0.055-0.016,0.081c-0.098,0.72,0.18,1.045,0.906,1.065c0.405,0.014,0.797-0.058,1.178-0.183
			c0.119-0.042,0.146-0.021,0.157,0.101c0.033,0.418,0.07,0.837,0.121,1.256c0.018,0.136-0.025,0.189-0.149,0.229
			C30.417,35.257,29.911,35.373,29.387,35.402z"/>
		<path display="inline" fill="#FFFFFF" d="M46.288,35.238c-0.271,0-0.542-0.012-0.813,0.004c-0.177,0.01-0.197-0.051-0.16-0.205
			c0.263-1.086,0.52-2.172,0.775-3.26c0.281-1.188,0.567-2.371,0.844-3.559c0.035-0.155,0.086-0.221,0.264-0.217
			c0.543,0.016,1.085,0.011,1.627,0.003c0.16-0.003,0.212,0.026,0.169,0.202c-0.552,2.283-1.101,4.568-1.642,6.854
			c-0.033,0.144-0.086,0.188-0.229,0.181C46.846,35.23,46.566,35.238,46.288,35.238z"/>
		<path display="inline" fill="#FFFFFF" d="M22.633,35.238c0.182-0.771,0.358-1.521,0.536-2.271c0.376-1.586,0.756-3.172,1.128-4.76
			c0.036-0.151,0.087-0.208,0.251-0.206c0.549,0.013,1.099,0.01,1.648,0.002c0.151-0.002,0.2,0.022,0.159,0.191
			c-0.553,2.29-1.101,4.579-1.646,6.87c-0.03,0.127-0.074,0.178-0.211,0.176C23.883,35.234,23.268,35.238,22.633,35.238z"/>
		<path display="inline" fill="#FFFFFF" d="M27.068,25.747c-0.004,0.897-0.914,1.578-1.776,1.329
			c-0.525-0.153-0.784-0.526-0.746-1.082c0.057-0.87,0.998-1.5,1.825-1.223C26.841,24.929,27.071,25.25,27.068,25.747z"/>
		<path display="inline" fill="#FFFFFF" d="M49.707,25.737c0,0.9-0.9,1.583-1.768,1.342c-0.58-0.162-0.853-0.622-0.73-1.234
			c0.161-0.812,1.021-1.327,1.792-1.075C49.477,24.924,49.708,25.241,49.707,25.737z"/>
		<path display="inline" fill="#FFFFFF" d="M9.669,31.57c-0.327-0.004-0.64-0.092-0.957-0.164c-0.096-0.023-0.092-0.074-0.073-0.15
			c0.093-0.359,0.181-0.72,0.271-1.081c0.016-0.064,0.03-0.113,0.12-0.09c0.349,0.083,0.7,0.155,1.017,0.331
			c0.338,0.189,0.471,0.432,0.4,0.718c-0.067,0.279-0.308,0.431-0.696,0.437C9.723,31.57,9.696,31.57,9.669,31.57z"/>
		<path display="inline" fill="#FFFFFF" d="M9.937,29.619c-0.253,0.001-0.495-0.071-0.738-0.126
			c-0.095-0.021-0.102-0.074-0.083-0.148c0.08-0.321,0.163-0.641,0.24-0.964c0.021-0.088,0.058-0.102,0.144-0.082
			c0.238,0.054,0.474,0.11,0.696,0.213c0.358,0.167,0.504,0.401,0.435,0.688C10.557,29.5,10.349,29.626,9.937,29.619z"/>
	</g>
	<path display="inline" fill="none" stroke="#FFFFFF" stroke-miterlimit="10" d="M58.955,45.891c0,1.166-0.848,2.109-1.893,2.109
		H2.936c-1.044,0-1.891-0.943-1.891-2.109V14.109C1.045,12.945,1.892,12,2.936,12h54.126c1.045,0,1.893,0.945,1.893,2.109V45.891z"
		/>
	<g display="inline">
		<path fill-rule="evenodd" clip-rule="evenodd" fill="#FFFFFF" d="M16.357,29.558c-0.612-0.097-1.262,0.126-1.846-0.304
			c-0.587-0.433-0.626-1.17,0.007-1.542c0.375-0.221,0.801-0.284,1.234-0.284c1.34,0.002,2.613,0.333,3.863,0.783
			c0.098,0.019,0.155-0.012,0.142-0.122c-0.001-0.088-0.002-0.177-0.003-0.265c0.036-0.766,0.065-1.532-0.015-2.297
			c-0.069-0.22-0.293-0.197-0.443-0.239c-1.367-0.376-2.759-0.596-4.18-0.522c-1.012,0.053-2.007,0.254-2.879,0.786
			c-1.283,0.782-1.878,1.987-1.78,3.468c0.103,1.543,0.986,2.554,2.401,3.126c0.866,0.349,1.79,0.403,2.699,0.528
			c0.471,0.065,0.82,0.297,0.895,0.777c0.081,0.515-0.224,0.85-0.663,1.06c-0.263,0.124-0.545,0.188-0.842,0.217
			c-1.375,0.135-2.696-0.106-3.994-0.536c-0.126-0.064-0.264-0.125-0.266,0.103c-0.006,0.819,0.004,1.64-0.005,2.459
			c-0.003,0.315,0.213,0.271,0.405,0.285c0.656,0.258,1.354,0.275,2.042,0.354c1.031,0.071,2.062,0.111,3.092,0.002
			c0.243-0.04,0.488-0.066,0.727-0.122c1.903-0.444,3.249-1.901,3.338-3.583C20.427,31.052,18.327,29.872,16.357,29.558z"/>
		<path fill-rule="evenodd" clip-rule="evenodd" fill="#FFFFFF" d="M30.267,28.119c-1.122,0-2.155,0.038-3.183-0.015
			c-0.543-0.027-0.767,0.169-0.978,0.648c-0.397,0.903-0.795,1.828-1.63,2.449c0.005-1.972,0.008-3.944,0.018-5.916
			c0.001-0.295,0.011-0.566-0.417-0.417c-0.762,0.172-1.52,0.45-2.289,0.482c-0.606,0.025-0.685,0.209-0.682,0.73
			c0.019,3.527,0.007,7.054,0.016,10.58c0,0.204-0.121,0.45,0.113,0.618c1.025,0.096,2.051,0.053,3.077,0.021
			c0.051,0.049,0.096,0.066,0.123-0.021c0.127-1.167,0.024-2.337,0.055-3.505c0.246,0.116,0.304,0.369,0.42,0.578
			c0.443,0.803,0.687,1.683,0.992,2.539c0.013,0.323,0.153,0.453,0.503,0.445c1.075-0.023,2.15-0.004,3.225-0.014
			c0.124-0.002,0.339,0.105,0.347-0.168c-0.382-1.322-0.992-2.55-1.673-3.733c-0.332-0.575-0.338-0.966,0.073-1.526
			C29.202,30.775,29.789,29.512,30.267,28.119z"/>
		<path fill-rule="evenodd" clip-rule="evenodd" fill="#FFFFFF" d="M45.127,28.135c-0.003-1.056-0.028-2.111-0.044-3.167
			c-0.102-0.263-0.297-0.099-0.456-0.099c-0.818,0.146-1.906,0.292-2.725,0.438c-0.045,0.023-0.402,0.046-0.402,0.07
			c0-0.005,0-0.011,0-0.017c0,0.019,0.191,0.038,0.153,0.056c-0.11,0.032,0.04,0.086,0.106,0.15
			c-0.01,1.842,0.043,3.684,0.037,5.525c-0.006,1.888,0.028,3.775,0.038,5.662c0.001,0.233-0.123,0.588,0.346,0.572
			c0.939-0.031,1.891,0.071,2.83-0.054c0.223-0.203,0.107-0.466,0.107-0.696C45.128,33.763,45.133,30.949,45.127,28.135z
			 M42.038,26.808c0.007,3.189,0.019,6.378-0.002,9.568C42.057,33.187,42.045,29.998,42.038,26.808z"/>
		<path fill-rule="evenodd" clip-rule="evenodd" fill="#FFFFFF" d="M36.158,29.718c0-1.864,0-1.864-1.861-1.631
			c-2.134,0.268-3.395,1.455-3.53,3.578c-0.118,1.815-0.038,3.645-0.039,5.467c0,0.049,0.069,0.098,0.107,0.146
			c1.033,0.078,2.066,0.088,3.1-0.004c0.209-0.153,0.101-0.374,0.104-0.56c0.016-1.351-0.004-2.701,0.027-4.051
			c0.031-1.337,0.35-1.682,1.685-1.873c0.313-0.044,0.438-0.154,0.41-0.466C36.144,30.125,36.158,29.92,36.158,29.718z"/>
		<path fill-rule="evenodd" clip-rule="evenodd" fill="#FFFFFF" d="M37.217,28.238c-0.013,2.903-0.023,5.806-0.045,8.708
			c-0.002,0.29,0.086,0.393,0.383,0.388c0.832-0.017,1.666-0.016,2.498,0c0.294,0.005,0.387-0.093,0.384-0.385
			c-0.02-2.903-0.029-5.805-0.041-8.708C39.336,28.065,38.276,28.068,37.217,28.238z"/>
		<path fill-rule="evenodd" clip-rule="evenodd" fill="#FFFFFF" d="M38.747,27.156c1.051-0.032,1.705-0.633,1.683-1.549
			c-0.024-0.997-0.816-1.602-2.014-1.537c-0.628,0.034-1.262,0.876-1.229,1.632C37.222,26.573,37.878,27.183,38.747,27.156z"/>
		<path fill-rule="evenodd" clip-rule="evenodd" fill="#FFFFFF" d="M49.913,25.292c0.002-0.479-0.179-0.529-0.552-0.417
			c-0.858,0.166-1.717,0.331-2.574,0.496c-0.145,0.037-0.139,0.154-0.139,0.265c-0.001,3.76,0.002,7.52-0.008,11.28
			c-0.001,0.326,0.098,0.427,0.421,0.418c0.787-0.021,1.576-0.026,2.363,0.002c0.39,0.015,0.485-0.12,0.485-0.494
			C49.897,32.992,49.894,29.142,49.913,25.292z"/>
	</g>
</g>
<g id="Layer_2">
	<path fill="none" stroke="#FFFFFF" stroke-miterlimit="10" d="M58.955,45.891c0,1.166-0.848,2.109-1.893,2.109H2.936
		c-1.044,0-1.891-0.943-1.891-2.109V14.109C1.045,12.945,1.892,12,2.936,12h54.126c1.045,0,1.893,0.945,1.893,2.109V45.891z"/>
	<path fill-rule="evenodd" clip-rule="evenodd" fill="#FFFFFF" d="M44.876,26.416c1.208,0,2.415,0,3.623,0
		c0.032,0.072,0.101,0.063,0.162,0.071c0.993,0.131,1.812,0.505,2.15,1.547c0,0.334,0,0.668,0,1.002
		c-0.02,0.016-0.051,0.028-0.056,0.047c-0.227,0.886-0.801,1.402-1.688,1.575c-0.271,0.053-0.158,0.199-0.107,0.336
		c0.308,0.839,0.617,1.676,0.926,2.513c-0.77,0-1.539-0.001-2.31-0.002c-0.337-1.098-0.674-2.195-1.042-3.393
		c-0.234,1.209-0.445,2.302-0.657,3.395c-6.008,0.001-12.017,0.002-18.024,0.001c-1.387,0-2.773-0.005-4.16-0.008
		c0.278-1.511,0.56-3.021,0.83-4.534c0.053-0.298,0.271-0.68,0.099-0.872c-0.171-0.191-0.585-0.024-0.888-0.063
		c-0.299-0.038-0.387,0.095-0.436,0.368c-0.306,1.702-0.628,3.401-0.944,5.102c-2.818,0.001-5.638,0.002-8.456,0.003
		c-0.502-1.433-1.005-2.866-1.507-4.299c-0.178,0.6-0.296,1.186-0.388,1.776c-0.136,0.869-0.364,1.723-0.426,2.604
		c-0.052,0-0.104,0-0.154,0c-0.121-0.1-0.268-0.073-0.405-0.074c-0.461-0.003-0.922-0.002-1.383-0.001
		c-0.169,0-0.338,0.008-0.447-0.156c0-0.025,0-0.051,0-0.077c0.087-0.04,0.072-0.126,0.086-0.197
		c0.167-0.878,0.336-1.755,0.496-2.633c0.246-1.343,0.485-2.687,0.729-4.029c0.848,0,1.695,0,2.543,0
		c-0.054,0.137,0.034,0.246,0.076,0.362c0.355,0.974,0.714,1.946,1.07,2.919c0.116,0.314,0.231,0.63,0.347,0.944
		c0.188-0.571,0.306-1.131,0.396-1.694c0.134-0.845,0.368-1.674,0.424-2.531c4.728,0,9.455,0,14.183,0
		c-0.052,0.354-0.081,0.712-0.16,1.059c-0.152,0.667,0.041,0.545-0.649,0.559c-0.257,0.006-0.513,0.001-0.77,0.001
		c-0.999,0-0.989,0.002-1.137,0.991c-0.033,0.223,0.027,0.261,0.222,0.259c0.538-0.006,1.076,0.007,1.614-0.003
		c0.22-0.004,0.309,0.06,0.256,0.286c-0.079,0.336-0.146,0.673-0.219,1.01c-0.028,0.028-0.056,0.057-0.084,0.085
		c-0.371,0.006-0.742,0.017-1.113,0.018c-0.995,0.002-0.985,0.002-1.166,0.974c-0.049,0.263,0.031,0.304,0.264,0.302
		c1.013-0.01,2.026-0.015,3.038,0.003c0.268,0.006,0.321-0.117,0.358-0.33c0.113-0.655,0.243-1.308,0.36-1.963
		c0.193-1.083,0.382-2.166,0.573-3.249c0.797,0,1.593,0,2.39,0c-0.088,0.49-0.173,0.982-0.264,1.473
		c-0.214,1.144-0.425,2.289-0.651,3.431c-0.056,0.279,0.023,0.36,0.301,0.343c0.344-0.021,0.691-0.011,1.037-0.003
		c0.166,0.004,0.248-0.04,0.28-0.223c0.299-1.675,0.609-3.348,0.915-5.021c0.797,0,1.594,0,2.39,0
		c-0.09,0.478-0.18,0.956-0.269,1.435c-0.217,1.158-0.427,2.318-0.655,3.475c-0.055,0.279,0.018,0.357,0.295,0.338
		c0.333-0.024,0.669-0.023,1-0.001c0.263,0.019,0.351-0.085,0.393-0.332c0.135-0.809,0.308-1.611,0.44-2.42
		c0.136-0.832,0.364-1.648,0.415-2.494c1.516,0,3.031,0,4.548,0c0.029,0.402-0.146,0.778-0.161,1.174
		c-0.015,0.379-0.2,0.494-0.563,0.451c-0.278-0.032-0.563-0.007-0.846-0.007c-0.945,0-0.938,0.002-1.108,0.943
		c-0.044,0.245,0.019,0.314,0.263,0.308c0.526-0.016,1.052-0.009,1.578-0.005c0.116,0.001,0.286-0.043,0.241,0.181
		c-0.078,0.396-0.093,0.806-0.255,1.184c-0.025,0.005-0.051,0.01-0.075,0.016c-0.386,0.007-0.77,0.018-1.154,0.019
		c-0.955,0.003-0.947,0.003-1.088,0.969c-0.036,0.242,0.011,0.313,0.261,0.309c0.988-0.013,1.977-0.017,2.965,0.003
		c0.288,0.005,0.364-0.103,0.407-0.362c0.127-0.771,0.293-1.536,0.424-2.307C44.539,28.331,44.777,27.386,44.876,26.416z
		 M16.823,31.012c-0.001,0.035-0.003,0.07-0.004,0.105c-0.002,0.025-0.005,0.051-0.007,0.076c-0.021,0.139-0.03,0.28-0.064,0.416
		c-0.068,0.264,0.005,0.354,0.293,0.349c0.986-0.018,1.975-0.01,2.961-0.004c0.188,0.001,0.312-0.022,0.352-0.245
		c0.198-1.121,0.405-2.242,0.621-3.36c0.051-0.266-0.04-0.323-0.289-0.319c-0.77,0.014-1.539,0.005-2.309,0.005
		c-0.966,0-0.952,0.003-1.129,0.954c-0.054,0.285,0.059,0.291,0.269,0.289c0.513-0.008,1.025,0.008,1.538-0.007
		c0.275-0.008,0.445,0.017,0.326,0.364c-0.07,0.203-0.095,0.426-0.111,0.643c-0.024,0.309-0.143,0.436-0.479,0.412
		c-0.51-0.035-1.024-0.013-1.538-0.008c-0.132,0.002-0.292-0.052-0.364,0.129C16.866,30.878,16.845,30.944,16.823,31.012z
		 M48.496,28.654c-0.006-0.031-0.016-0.135-0.049-0.229c-0.15-0.428-1.008-0.75-1.429-0.544c-0.081,0.04-0.102,0.113-0.115,0.186
		c-0.1,0.529-0.194,1.06-0.291,1.589c-0.033,0.182,0.066,0.235,0.221,0.211c0.302-0.048,0.604-0.09,0.9-0.164
		C48.229,29.578,48.499,29.217,48.496,28.654z"/>
	<path fill-rule="evenodd" clip-rule="evenodd" fill="#7DB72D" d="M30.031,29.899c0.006,0.076,0.005,0.149-0.064,0.201
		C29.988,30.033,30.01,29.967,30.031,29.899z"/>
	<path fill-rule="evenodd" clip-rule="evenodd" fill="#7CB62A" d="M30.042,29.957c0,0.056-0.021,0.09-0.084,0.085
		C29.986,30.014,30.014,29.985,30.042,29.957z"/>
	<path fill-rule="evenodd" clip-rule="evenodd" fill="#7CB62A" d="M30.038,29.992c-0.025,0.005-0.051,0.01-0.075,0.016
		C29.987,30.002,30.012,29.997,30.038,29.992z"/>
</g>
</svg>
