<svg xmlns="http://www.w3.org/2000/svg" viewBox="0 0 80 80"><g fill="#fff"><path d="M35 44.4h.3c.3 0 .5-.1.6-.3l.9-1.3h2.3l-.5.9h2.8l-.3 1.3h-3.3c-.4.6-.9.8-1.4.8h-1.7l.3-1.4M34.6 46.3h6.1l-.4 1.4h-2.5l-.4 1.4h2.4l-.4 1.4H37l-.6 2c-.1.3 0 .5.5.5h2l-.4 1.3h-3.7c-.7 0-1-.4-.7-1.2l.7-2.6h-1.5l.4-1.4h1.5l.4-1.4h-1.5l.5-1.4zM46.5 42.7c-1 0-2.2.9-2.2.9l.1-.8h-2.1l-2.9 10.7c-.1.5.2.8 1.1.8h2.2l.3-1.2h-.9c-.2 0-.3-.1-.2-.3l1-3.8h4.4c.9 0 1.5-.3 1.6-.9l1.5-5.4h-3.9zm.3 4.6c0 .2-.2.3-.4.3h-3.1l.3-1.1H47l-.2.8zm.6-2h-2.1c-1 0-1.5.4-1.5.4l.4-1.4h3.5l-.3 1z"/><path d="M44.1 49.4h2v.9h.5c.3 0 .4-.1.4-.3l.2-.6h1.7l-.2.8c-.2.7-.7 1-1.5 1.1H46v1.5c0 .2.2.4.6.4h1l-.3 1.2h-2.4c-.7 0-1-.3-1-1l.2-4M57.3 42.8c-.9 0-2.1.6-2.1.6l.1-.6H53l-.5 1.6h.5l-2.2 7.7h-.4l-.4 1.5h4.5l-.2.7h2.3l.2-.7h.5l.4-1.5h-.5l2.2-7.7h.5l.5-1.6h-3.1zm-2.7 9.3h-1.7l.5-1.6h1.7l-.5 1.6zm.9-3c-.8 0-1.9.6-1.9.6l.6-2.2H56s-.3.7-.5 1.6zm.9-3.1c-.9.1-1.9.5-1.9.5l.6-2.1h1.7c0 .1-.2.9-.4 1.6z"/><path d="M60.3 42.7h2.2l.1.8c0 .2.1.3.4.3h.4l-.4 1.4h-1.6c-.6 0-.9-.2-1-.7l-.1-1.8zM59.7 45.7h7.1l-.4 1.5h-2.3l-.4 1.4H66l-.5 1.4H63l-.6.9h1.2l.3 1.7c0 .2.2.3.4.3h.4l-.4 1.4H63c-.7 0-1.1-.2-1.1-.7l-.3-1.6-1.1 1.7c-.3.5-.7.7-1.2.7h-2.1l.4-1.4h.6c.3 0 .5-.1.7-.4l1.8-2.5h-2.3l.4-1.5h2.5l.4-1.4h-2.5l.5-1.5"/></g><g fill="#fff"><path d="M19.9 35.6C19.6 37 19 38 18 38.7c-1 .7-2.2 1.1-3.7 1.1-1.4 0-2.5-.4-3.2-1.1-.5-.5-.7-1.2-.7-2 0-.3 0-.7.1-1.1l1.6-7.8h2.5L13 35.5c0 .2-.1.4-.1.6 0 .4.1.7.3 1 .3.4.8.6 1.4.6.8 0 1.4-.2 1.9-.6.5-.4.8-.9.9-1.6l1.6-7.7h2.4l-1.5 7.8M30.2 32.6h1.9l-1.5 6.9h-1.9l1.5-6.9M30.8 30h1.9l-.4 1.7h-1.9l.4-1.7M39.3 33.1c-.5-.5-1.2-.7-2-.7-1.1 0-2 .3-2.7 1-.7.7-1.2 1.6-1.5 2.7 0 .2-.1.3-.1.5v.5c0 .8.3 1.5.8 1.9.5.5 1.2.7 2 .7 1 0 1.9-.3 2.7-1 .7-.7 1.2-1.5 1.5-2.7 0-.2.1-.3.1-.5V35c0-.8-.3-1.4-.8-1.9zm-1.1 2.5c0 .1 0 .2-.1.4-.1.7-.4 1.3-.7 1.7-.3.4-.8.6-1.3.6-.4 0-.7-.1-.9-.3-.2-.2-.3-.6-.3-1v-.3c0-.1 0-.2.1-.3.2-.8.4-1.3.7-1.7.3-.4.8-.6 1.3-.6.4 0 .7.1.9.4.2.2.3.6.3 1v.1zM22.1 32.5h1.7l-.2 1 .2-.3c.6-.6 1.2-.9 2-.9.7 0 1.3.2 1.6.6.3.4.4 1 .3 1.8l-1 4.8h-1.8l.9-4.3c.1-.4.1-.8-.1-1-.1-.2-.4-.3-.8-.3-.5 0-.8.1-1.2.4-.3.3-.5.7-.6 1.2l-.8 4h-1.8l1.6-7M42 32.5h1.7l-.2 1 .2-.3c.6-.6 1.2-.9 2-.9.7 0 1.3.2 1.6.6.3.4.4 1 .3 1.8l-1 4.8h-1.8l.9-4.3c.1-.4.1-.8-.1-1-.1-.2-.4-.3-.8-.3-.5 0-.8.1-1.2.4-.3.3-.5.7-.6 1.2l-.8 4h-1.8l1.6-7M57.8 28.9c-.5-.4-1.3-.6-2.2-.6h-5l-2.3 11.3h2.3l.8-4.1h2.7c1.1 0 2-.3 2.8-1 .8-.7 1.3-1.5 1.5-2.6 0-.2.1-.4.1-.6v-.5c.1-.9-.2-1.5-.7-1.9zm-1.6 2.6v.3c-.1.6-.3 1-.7 1.2-.3.3-.8.4-1.4.4h-2.2l.7-3.3h1.9c.6 0 1.1.1 1.4.3.3.2.4.5.4.9-.1.1-.1.2-.1.2zM69 40.9c-.7 1.6-1.4 2.5-1.9 2.9-.4.4-1.2 1.4-3.2 1.3l.2-1.2c1.7-.5 2.6-2.8 3.1-3.8l-.6-7.5H69l.1 4.7 2-4.7h2L69 40.9M63.3 33.1l-.8.6c-.8-.7-1.6-1.1-3.1-.4-2 .9-3.7 8.2 1.9 5.8l.3.4 2.2.1 1.4-6.6-1.9.1zm-1.2 3.6c-.4 1-1.1 1.7-1.8 1.5-.6-.2-.8-1.2-.5-2.2.4-1 1.2-1.7 1.8-1.5.6.2.8 1.2.5 2.2z"/></g><g fill="none" stroke="#fff" stroke-width="2" stroke-miterlimit="10" stroke-linecap="round" stroke-linejoin="round"><path d="M41.8 57l-.7 3.1c-.6 2.5 1.3 4.9 3.9 4.9h19.9c1.8 0 3.5-1.3 3.9-3.1l10.1-42c.6-2.5-1.3-4.9-3.9-4.9H55.1c-1.8 0-3.5 1.3-3.9 3.1L49.5 25M27.5 25l1.7-6.9c.4-1.8 2-3.1 3.9-3.1h-18c-1.8 0-3.5 1.3-3.9 3.1l-10.1 42C.5 62.6 2.4 65 5 65h18c-2.6 0-4.5-2.4-3.9-4.9L23.2 43M33 15h22M23 65h22"/></g></svg>