<svg xmlns="http://www.w3.org/2000/svg" viewBox="0 0 113.4 113.4">
  <title>
    type-zero-spread
  </title>
  <path d="M56.7 0A56.7 56.7 0 1 1 0 56.7 56.72 56.72 0 0 1 56.7 0z" fill="#a77d3b"/>
  <path d="M37.1 86.8L63.3 113a56.665 56.665 0 0 0 49.5-48L76.3 28.5l-9.8 9.8-15.4 1.6-8.6 17.2 4.6 20.8-10 8.9z" fill="#70552b"/>
  <path d="M76.3 28.4l-5 9.1a30.66 30.66 0 0 1 6.9 20.1c0 7.3-1.8 13.4-5.5 18.4s-9.2 7.5-16.5 7.5a20.502 20.502 0 0 1-9.3-2.1l-3 5.4h-6.6l5.1-9.2c-4.6-5.3-7-11.9-7-19.8 0-7.2 1.8-13.4 5.4-18.4 3.6-5.1 9.1-7.6 16.4-7.6a20.626 20.626 0 0 1 9.4 2.1l3.1-5.4 6.6-.1zM48.7 66.1l13-23.3a7.973 7.973 0 0 0-4.8-1.4 7.242 7.242 0 0 0-7.3 5 33.62 33.62 0 0 0-1.9 12.2 19.228 19.228 0 0 0 1 7.5zm3.1 6.3a7.98 7.98 0 0 0 5.3 1.6c5.8 0 8.6-5.4 8.6-16.1a41.566 41.566 0 0 0-.9-9l-13 23.5z" fill="#fff"/>
</svg>
