<?xml version="1.0" encoding="utf-8"?>
<!-- Generator: Adobe Illustrator 16.0.0, SVG Export Plug-In . SVG Version: 6.00 Build 0)  -->
<!DOCTYPE svg PUBLIC "-//W3C//DTD SVG 1.1//EN" "http://www.w3.org/Graphics/SVG/1.1/DTD/svg11.dtd">
<svg version="1.1" xmlns="http://www.w3.org/2000/svg" xmlns:xlink="http://www.w3.org/1999/xlink" x="0px" y="0px" width="45px"
	 height="45px" viewBox="0 0 45 45" enable-background="new 0 0 45 45" xml:space="preserve">
<g id="Layer_1" display="none">
	<g display="inline">
		
			<linearGradient id="SVGID_1_" gradientUnits="userSpaceOnUse" x1="322.3623" y1="-361.2295" x2="322.7451" y2="-361.2295" gradientTransform="matrix(1 0 0 -1 -283.5 -328.5)">
			<stop  offset="0" style="stop-color:#E2318F"/>
			<stop  offset="1" style="stop-color:#4285F4"/>
		</linearGradient>
		<path fill="url(#SVGID_1_)" d="M38.862,32.804c0.039-0.089,0.059-0.227,0.123-0.252c0.063-0.025,0.172,0.063,0.26,0.103
			c-0.038,0.089-0.058,0.227-0.122,0.253C39.06,32.932,38.951,32.844,38.862,32.804z"/>
		
			<linearGradient id="SVGID_2_" gradientUnits="userSpaceOnUse" x1="285.2188" y1="-351" x2="326.7813" y2="-351" gradientTransform="matrix(1 0 0 -1 -283.5 -328.5)">
			<stop  offset="0" style="stop-color:#E2318F"/>
			<stop  offset="1" style="stop-color:#4285F4"/>
		</linearGradient>
		<path fill="url(#SVGID_2_)" d="M42.823,34.414c-0.516-0.465-0.985-0.98-1.486-1.462c-0.241-0.231-0.541-0.41-0.858-0.188
			c-0.367,0.256-0.361,0.604-0.141,0.982c0.144,0.246,0.568,0.37,0.373,0.756c-6.916,0-13.823,0-20.733,0c-4.157,0-8.318,0-12.475,0
			H6.531H4.975v-3.518c0-0.275,0-0.55,0-0.825v-5.276c0-4.054,0-8.107,0-12.161c0-0.213,0-0.426,0-0.639c0-0.743,0-1.486,0-2.241
			c0.469-0.188,0.574,0.347,0.893,0.47c0.283,0.11,0.5,0.1,0.719-0.117c0.282-0.28,0.277-0.582,0.028-0.845
			c-0.623-0.657-1.254-1.31-1.918-1.926C4.292,7.051,3.911,7.283,3.582,7.609c-0.303,0.3-0.649,0.57-0.897,0.91
			C2.322,9.016,1.275,9.323,1.93,10.161c0.62,0.792,0.999-0.477,1.694-0.374c0,4.13,0,8.253,0,12.379c0,4.451,0,8.906,0,13.356
			v0.303h1.044h0.225c0.282,0.015,0.563,0.026,0.845,0.026c11.174,0.006,22.35,0.005,33.524,0.005c0.5,0,1,0,1.551,0
			c-0.15,0.72-1.169,1.213-0.327,1.782c0.651,0.44,0.998-0.369,1.419-0.72c0.327-0.272,0.6-0.61,0.917-0.896
			C43.43,35.479,43.438,34.969,42.823,34.414z"/>
		
			<linearGradient id="SVGID_3_" gradientUnits="userSpaceOnUse" x1="293.6816" y1="-357.7109" x2="297.5361" y2="-357.7109" gradientTransform="matrix(1 0 0 -1 -283.5 -328.5)">
			<stop  offset="0" style="stop-color:#E2318F"/>
			<stop  offset="1" style="stop-color:#4285F4"/>
		</linearGradient>
		<rect x="10.182" y="25.511" fill="url(#SVGID_3_)" width="3.854" height="7.4"/>
		
			<linearGradient id="SVGID_4_" gradientUnits="userSpaceOnUse" x1="312.0693" y1="-357.7109" x2="315.9238" y2="-357.7109" gradientTransform="matrix(1 0 0 -1 -283.5 -328.5)">
			<stop  offset="0" style="stop-color:#E2318F"/>
			<stop  offset="1" style="stop-color:#4285F4"/>
		</linearGradient>
		<rect x="28.569" y="25.511" fill="url(#SVGID_4_)" width="3.854" height="7.4"/>
		
			<linearGradient id="SVGID_5_" gradientUnits="userSpaceOnUse" x1="299.7041" y1="-356.2056" x2="303.5586" y2="-356.2056" gradientTransform="matrix(1 0 0 -1 -283.5 -328.5)">
			<stop  offset="0" style="stop-color:#E2318F"/>
			<stop  offset="1" style="stop-color:#4285F4"/>
		</linearGradient>
		<rect x="16.204" y="22.5" fill="url(#SVGID_5_)" width="3.854" height="10.411"/>
		
			<linearGradient id="SVGID_6_" gradientUnits="userSpaceOnUse" x1="306" y1="-354.1787" x2="309.8545" y2="-354.1787" gradientTransform="matrix(1 0 0 -1 -283.5 -328.5)">
			<stop  offset="0" style="stop-color:#E2318F"/>
			<stop  offset="1" style="stop-color:#4285F4"/>
		</linearGradient>
		<rect x="22.5" y="18.446" fill="url(#SVGID_6_)" width="3.855" height="14.465"/>
		<text transform="matrix(1 0 0 1 10.1816 22.4995)" fill="#FFFFFF" font-family="'Rubik-Bold'" font-size="4.8176">A</text>
		<text transform="matrix(1 0 0 1 28.9707 22.4995)" fill="#FFFFFF" font-family="'Rubik-Bold'" font-size="4.8176">C</text>
		<text transform="matrix(1 0 0 1 22.4673 15.916)" fill="#FFFFFF" font-family="'Rubik-Bold'" font-size="4.8176">B</text>
	</g>
</g>
<g id="Layer_2" display="none">
	<g display="inline">
		
			<linearGradient id="SVGID_7_" gradientUnits="userSpaceOnUse" x1="300.5391" y1="-355.3979" x2="311.4619" y2="-355.3979" gradientTransform="matrix(1 0 0 -1 -283.5 -328.5)">
			<stop  offset="0" style="stop-color:#E2318F"/>
			<stop  offset="1" style="stop-color:#4285F4"/>
		</linearGradient>
		<path fill="url(#SVGID_7_)" d="M25.914,23.484h-6.828c-1.129,0-2.048,0.918-2.048,2.048v4.779h10.923v-4.779
			C27.962,24.402,27.043,23.484,25.914,23.484z M24.549,29.628h-6.145c-0.377,0-0.683-0.305-0.683-0.683v-2.73h1.365v2.048h5.462
			V29.628z M27.279,29.628h-1.365v-3.413h1.365V29.628z"/>
		
			<linearGradient id="SVGID_8_" gradientUnits="userSpaceOnUse" x1="302.5859" y1="-361.542" x2="309.4141" y2="-361.542" gradientTransform="matrix(1 0 0 -1 -283.5 -328.5)">
			<stop  offset="0" style="stop-color:#E2318F"/>
			<stop  offset="1" style="stop-color:#4285F4"/>
		</linearGradient>
		<path fill="url(#SVGID_8_)" d="M19.086,31.677h6.828v2.73h-6.828V31.677z"/>
		
			<linearGradient id="SVGID_9_" gradientUnits="userSpaceOnUse" x1="302.5859" y1="-367.686" x2="309.4141" y2="-367.686" gradientTransform="matrix(1 0 0 -1 -283.5 -328.5)">
			<stop  offset="0" style="stop-color:#E2318F"/>
			<stop  offset="1" style="stop-color:#4285F4"/>
		</linearGradient>
		<path fill="url(#SVGID_9_)" d="M19.086,42.6h1.366v-4.778c0-0.378,0.305-0.684,0.683-0.684h2.73c0.377,0,0.684,0.306,0.684,0.684
			V42.6h1.365v-6.827h-6.828V42.6z"/>
		
			<linearGradient id="SVGID_10_" gradientUnits="userSpaceOnUse" x1="304.6348" y1="-347.2051" x2="307.3652" y2="-347.2051" gradientTransform="matrix(1 0 0 -1 -283.5 -328.5)">
			<stop  offset="0" style="stop-color:#E2318F"/>
			<stop  offset="1" style="stop-color:#4285F4"/>
		</linearGradient>
		<path fill="url(#SVGID_10_)" d="M22.5,20.753c0.753,0,1.365-0.613,1.365-1.366v-1.366c0-0.752-0.612-1.365-1.365-1.365
			s-1.365,0.613-1.365,1.365v1.366C21.135,20.141,21.747,20.753,22.5,20.753z"/>
		
			<linearGradient id="SVGID_11_" gradientUnits="userSpaceOnUse" x1="313.5098" y1="-336.9648" x2="321.0195" y2="-336.9648" gradientTransform="matrix(1 0 0 -1 -283.5 -328.5)">
			<stop  offset="0" style="stop-color:#E2318F"/>
			<stop  offset="1" style="stop-color:#4285F4"/>
		</linearGradient>
		<path fill="url(#SVGID_11_)" d="M35.472,13.146c-1.176-0.305-2.049-1.365-2.049-2.634h1.365c0,0.753,0.613,1.365,1.366,1.365
			s1.365-0.612,1.365-1.365c0-0.753-0.612-1.366-1.365-1.366c-1.506,0-2.731-1.225-2.731-2.73c0-1.27,0.873-2.329,2.049-2.634v-1.04
			l-5.462,2.73v5.983l5.462,2.731V13.146z"/>
		
			<linearGradient id="SVGID_12_" gradientUnits="userSpaceOnUse" x1="318.2881" y1="-336.9648" x2="325.7988" y2="-336.9648" gradientTransform="matrix(1 0 0 -1 -283.5 -328.5)">
			<stop  offset="0" style="stop-color:#E2318F"/>
			<stop  offset="1" style="stop-color:#4285F4"/>
		</linearGradient>
		<path fill="url(#SVGID_12_)" d="M36.837,2.742v1.04c1.175,0.305,2.048,1.365,2.048,2.634H37.52c0-0.753-0.612-1.366-1.365-1.366
			s-1.366,0.612-1.366,1.366c0,0.752,0.613,1.365,1.366,1.365c1.506,0,2.73,1.225,2.73,2.731c0,1.269-0.873,2.329-2.048,2.634v1.041
			l5.462-2.731V5.473L36.837,2.742z"/>
		
			<linearGradient id="SVGID_13_" gradientUnits="userSpaceOnUse" x1="314.876" y1="-353.3496" x2="317.6064" y2="-353.3496" gradientTransform="matrix(1 0 0 -1 -283.5 -328.5)">
			<stop  offset="0" style="stop-color:#E2318F"/>
			<stop  offset="1" style="stop-color:#4285F4"/>
		</linearGradient>
		<circle fill="url(#SVGID_13_)" cx="32.741" cy="24.85" r="1.365"/>
		
			<linearGradient id="SVGID_14_" gradientUnits="userSpaceOnUse" x1="317.6064" y1="-348.5703" x2="321.7021" y2="-348.5703" gradientTransform="matrix(1 0 0 -1 -283.5 -328.5)">
			<stop  offset="0" style="stop-color:#E2318F"/>
			<stop  offset="1" style="stop-color:#4285F4"/>
		</linearGradient>
		<circle fill="url(#SVGID_14_)" cx="36.154" cy="20.071" r="2.049"/>
		
			<linearGradient id="SVGID_15_" gradientUnits="userSpaceOnUse" x1="286.2012" y1="-336.9639" x2="298.4902" y2="-336.9639" gradientTransform="matrix(1 0 0 -1 -283.5 -328.5)">
			<stop  offset="0" style="stop-color:#E2318F"/>
			<stop  offset="1" style="stop-color:#4285F4"/>
		</linearGradient>
		<path fill="url(#SVGID_15_)" d="M2.701,5.473v5.983l1.366,0.683V9.83h1.365v2.992l1.365,0.683v-5.04h1.366v5.723l0.683,0.341
			l0.683-0.341V7.099h1.365v6.405l1.366-0.683V5.734h1.366v6.405l1.365-0.683V5.473L8.846,2.4L2.701,5.473z"/>
		
			<linearGradient id="SVGID_16_" gradientUnits="userSpaceOnUse" x1="294.3936" y1="-353.3496" x2="297.125" y2="-353.3496" gradientTransform="matrix(1 0 0 -1 -283.5 -328.5)">
			<stop  offset="0" style="stop-color:#E2318F"/>
			<stop  offset="1" style="stop-color:#4285F4"/>
		</linearGradient>
		<circle fill="url(#SVGID_16_)" cx="12.259" cy="24.85" r="1.365"/>
		
			<linearGradient id="SVGID_17_" gradientUnits="userSpaceOnUse" x1="290.2969" y1="-348.5703" x2="294.3936" y2="-348.5703" gradientTransform="matrix(1 0 0 -1 -283.5 -328.5)">
			<stop  offset="0" style="stop-color:#E2318F"/>
			<stop  offset="1" style="stop-color:#4285F4"/>
		</linearGradient>
		<circle fill="url(#SVGID_17_)" cx="8.846" cy="20.071" r="2.049"/>
	</g>
</g>
<g id="Layer_3" display="none">
	<g display="inline">
		
			<linearGradient id="SVGID_18_" gradientUnits="userSpaceOnUse" x1="291.3828" y1="-351" x2="320.6172" y2="-351" gradientTransform="matrix(1 0 0 -1 -283.5 -328.5)">
			<stop  offset="0" style="stop-color:#E2318F"/>
			<stop  offset="1" style="stop-color:#4285F4"/>
		</linearGradient>
		<path fill="url(#SVGID_18_)" d="M36.745,11.331l-14.11-7.519c-0.209-0.112-0.46-0.11-0.668,0.004L8.248,11.334
			c-0.226,0.124-0.365,0.359-0.365,0.616v9.821c0.009,8.072,4.792,15.375,12.188,18.61l1.904,0.83
			c0.179,0.078,0.381,0.078,0.56,0.001l2.146-0.927c7.534-3.164,12.436-10.538,12.437-18.709V11.95
			C37.117,11.691,36.974,11.452,36.745,11.331z M35.712,21.577c-0.001,7.608-4.566,14.473-11.581,17.417l-0.005,0.002l-1.869,0.807
			l-1.623-0.708c-6.886-3.011-11.339-9.809-11.347-17.324v-9.405L22.31,5.23l13.402,7.142V21.577z"/>
		
			<linearGradient id="SVGID_19_" gradientUnits="userSpaceOnUse" x1="299.3896" y1="-351.1016" x2="313.1475" y2="-351.1016" gradientTransform="matrix(1 0 0 -1 -283.5 -328.5)">
			<stop  offset="0" style="stop-color:#E2318F"/>
			<stop  offset="1" style="stop-color:#4285F4"/>
		</linearGradient>
		<path fill="url(#SVGID_19_)" d="M17.127,21.316c-0.252-0.295-0.696-0.33-0.991-0.078s-0.33,0.695-0.078,0.99l3.711,4.345
			c0.248,0.29,0.682,0.329,0.978,0.089l8.642-7.03c0.302-0.245,0.347-0.688,0.102-0.988c-0.244-0.301-0.687-0.347-0.988-0.102
			l-8.109,6.597L17.127,21.316z"/>
	</g>
</g>
<g id="Layer_4" display="none">
	<g display="inline">
		
			<linearGradient id="SVGID_20_" gradientUnits="userSpaceOnUse" x1="286.3857" y1="-351" x2="327.0586" y2="-351" gradientTransform="matrix(1 0 0 -1 -283.5 -328.5)">
			<stop  offset="0" style="stop-color:#E2318F"/>
			<stop  offset="1" style="stop-color:#4285F4"/>
		</linearGradient>
		<path fill="url(#SVGID_20_)" d="M20.416,33.324c-2.459-0.488-4.933-0.983-7.409-1.47c-3.05-0.598-6.106-1.164-9.146-1.81
			c-0.387-0.083-1.001-0.589-0.974-0.842c0.082-0.759,0.717-0.572,1.272-0.463c8.758,1.725,17.518,3.439,26.277,5.154
			c0.278,0.053,0.56,0.088,0.853,0.133c0-3.38,0-6.698,0-9.613c-0.741-0.718-1.338-1.137-1.726-1.699
			c-0.921-1.34-1.722-2.761-2.615-4.121c-0.389-0.593-0.413-1.065,0.011-1.667c1.042-1.478,2.072-2.969,2.991-4.523
			c0.38-0.642,0.627-1.454,0.651-2.197c0.079-2.494,0.054-4.994,0.018-7.49c-0.013-0.921,0.298-1.293,1.26-1.279
			c3.003,0.043,6.007,0.047,9.01-0.001c1.02-0.017,1.328,0.389,1.313,1.35c-0.039,2.532-0.055,5.067,0.016,7.599
			c0.019,0.672,0.263,1.41,0.618,1.985c0.474,0.768,0.734,1.505,0.723,2.421c-0.042,3.51-0.014,7.02-0.019,10.532
			c-0.003,2.148-1.092,2.947-3.112,2.318c-0.205-0.064-0.461,0.003-0.688,0.045c-0.35,0.065-0.78,0.337-1.027,0.217
			c-1.106-0.546-2.138,0.004-3.345,0.096c0,1.132,0.021,2.277-0.006,3.421c-0.025,1.104-0.099,2.204-0.155,3.409
			c1.848,0.363,3.87,0.727,5.871,1.183c0.396,0.09,1.02,0.55,1.006,0.81c-0.041,0.787-0.693,0.603-1.242,0.495
			c-5.07-0.999-10.143-1.988-15.215-2.98c-0.137-0.026-0.277-0.034-0.563-0.069c0.88,1.767,1.865,3.38,2.485,5.122
			c0.394,1.102,0.283,2.397,0.29,3.606c0.001,0.187-0.577,0.536-0.891,0.541c-2.967,0.041-5.934,0.021-8.902,0.028
			c-0.67,0.001-0.976-0.283-0.998-0.976c-0.052-1.53,0.029-2.984,0.862-4.376C18.833,36.671,19.561,35.014,20.416,33.324z
			 M32.055,4.198c1.28,0,2.436-0.05,3.583,0.029c0.373,0.026,0.721,0.39,1.081,0.599c-0.37,0.241-0.727,0.661-1.113,0.691
			C34.434,5.609,33.25,5.55,32.054,5.55c-0.02,0.404-0.074,0.66-0.038,0.902c0.58,3.851-0.544,7.176-3.127,10.027
			c-0.827,0.913-0.763,1.683-0.034,2.631c0.811,1.056,1.229,2.679,2.26,3.225c1.077,0.571,2.678,0.146,4.05,0.176
			c0.777,0.019,1.388-0.231,1.528-1.052c0.153-0.897-0.431-1.304-1.198-1.522c-0.938-0.267-1.896-0.476-2.8-0.829
			c-0.286-0.111-0.422-0.602-0.627-0.919c0.334-0.114,0.731-0.406,0.991-0.313c1.566,0.56,3.416,0.46,4.617,1.907
			c0.073,0.088,0.251,0.121,0.381,0.122c1.346,0.009,2.691,0.006,4.127,0.006c0-1.997,0.009-3.834-0.011-5.671
			c-0.003-0.234-0.09-0.531-0.247-0.691c-1.218-1.241-1.175-2.78-1.14-4.354c0.046-2.086,0.012-4.174,0.012-6.294
			c-2.994,0-5.855,0-8.743,0C32.055,3.346,32.055,3.698,32.055,4.198z M18.443,42.11c2.779,0,5.424,0,8.166,0
			c-0.045-0.708,0.081-1.388-0.152-1.905c-0.829-1.839-1.732-3.65-2.704-5.418c-0.535-0.978-1.884-1.058-2.435-0.128
			c-0.891,1.504-1.618,3.106-2.485,4.807c0.958,0,1.724-0.074,2.463,0.029c0.411,0.058,1.073,0.369,1.114,0.642
			c0.106,0.71-0.558,0.677-1.063,0.681c-0.958,0.006-1.918,0.002-2.902,0.002C18.443,41.352,18.443,41.703,18.443,42.11z
			 M32.682,23.871c0,3.046-0.023,5.999,0.027,8.95c0.006,0.402,0.331,1.103,0.583,1.139c0.794,0.11,0.721-0.592,0.721-1.13
			c0.003-2.708,0.004-5.416-0.002-8.125c-0.001-0.273-0.058-0.548-0.09-0.834C33.514,23.871,33.191,23.871,32.682,23.871z
			 M42.178,23.856c0.001,0,0.002,0,0.004,0c0-0.615,0.072-1.243-0.031-1.84c-0.053-0.306-0.42-0.557-0.645-0.832
			c-0.233,0.267-0.651,0.522-0.668,0.802c-0.071,1.262-0.072,2.533,0.003,3.795c0.017,0.275,0.451,0.526,0.691,0.788
			c0.216-0.253,0.576-0.485,0.616-0.764C42.241,25.167,42.178,24.508,42.178,23.856z M39.438,23.949c0-0.687,0.06-1.381-0.029-2.056
			c-0.034-0.258-0.409-0.47-0.629-0.704c-0.221,0.232-0.621,0.455-0.633,0.697c-0.063,1.297-0.07,2.602,0.001,3.898
			c0.015,0.271,0.443,0.518,0.681,0.776c0.204-0.257,0.542-0.493,0.583-0.774C39.503,25.187,39.439,24.563,39.438,23.949z
			 M35.375,23.937c0,0.676-0.078,1.267,0.032,1.818c0.061,0.306,0.437,0.548,0.672,0.819c0.225-0.282,0.597-0.542,0.644-0.852
			c0.1-0.658,0.03-1.341,0.03-2.078C36.241,23.753,35.864,23.833,35.375,23.937z"/>
		
			<linearGradient id="SVGID_21_" gradientUnits="userSpaceOnUse" x1="284.9414" y1="-338.8965" x2="299.875" y2="-338.8965" gradientTransform="matrix(1 0 0 -1 -283.5 -328.5)">
			<stop  offset="0" style="stop-color:#E2318F"/>
			<stop  offset="1" style="stop-color:#4285F4"/>
		</linearGradient>
		<path fill="url(#SVGID_21_)" d="M8.949,17.967c-3.395-0.234-6.344-2.474-7.235-5.667C0.82,9.1,2.173,5.659,5.008,3.924
			c2.876-1.76,6.583-1.373,9.033,0.943c2.426,2.294,3.032,5.909,1.483,8.866c-0.083,0.16-0.141,0.37-0.274,0.461
			c-0.346,0.234-0.828,0.666-1.076,0.567c-0.662-0.263-0.348-0.789-0.087-1.256c1.486-2.664,1.133-5.578-0.903-7.569
			c-2.214-2.167-5.721-2.332-8.119-0.382c-2.411,1.961-2.961,5.388-1.289,8.022c1.659,2.613,5.029,3.556,7.82,2.188
			c0.065-0.032,0.125-0.073,0.193-0.098c0.539-0.196,1.146-1.069,1.613-0.086c0.369,0.776-0.48,1.062-0.993,1.263
			C11.282,17.286,10.105,17.6,8.949,17.967z"/>
		
			<linearGradient id="SVGID_22_" gradientUnits="userSpaceOnUse" x1="289.6924" y1="-338.791" x2="295.1182" y2="-338.791" gradientTransform="matrix(1 0 0 -1 -283.5 -328.5)">
			<stop  offset="0" style="stop-color:#E2318F"/>
			<stop  offset="1" style="stop-color:#4285F4"/>
		</linearGradient>
		<path fill="url(#SVGID_22_)" d="M8.842,8.242c-0.143,0-0.324-0.055-0.426,0.011C8.114,8.445,7.844,8.687,7.561,8.909
			C7.83,9.146,8.064,9.495,8.377,9.591c0.398,0.123,0.861,0.02,1.292,0.051c1.037,0.075,1.819,0.761,1.931,1.726
			c0.12,1.027-0.387,1.7-1.264,2.192c-0.308,0.172-0.502,0.543-0.755,0.815c-0.204,0.22-0.468,0.634-0.619,0.599
			c-0.276-0.066-0.497-0.393-0.727-0.625c-0.262-0.264-0.527-0.53-0.76-0.82c-0.434-0.538-0.898-1.064-1.229-1.663
			c-0.085-0.154,0.281-0.558,0.44-0.846c0.274,0.164,0.655,0.264,0.805,0.505c0.411,0.663,1.701,1.115,2.367,0.69
			c0.195-0.124,0.382-0.49,0.338-0.694c-0.045-0.208-0.359-0.464-0.589-0.506c-0.456-0.084-0.938-0.011-1.407-0.045
			c-1.043-0.078-1.813-0.754-1.979-1.703C6.058,8.33,6.579,7.504,7.537,7.016c0.287-0.146,0.459-0.507,0.696-0.759
			C8.457,6.02,8.665,5.686,8.94,5.609c0.148-0.042,0.429,0.36,0.637,0.575c0.285,0.293,0.58,0.581,0.829,0.903
			c0.42,0.545,0.859,1.089,1.172,1.694c0.072,0.138-0.282,0.614-0.538,0.755c-0.123,0.068-0.654-0.246-0.695-0.448
			C10.161,8.171,9.508,8.224,8.842,8.242z"/>
		
			<linearGradient id="SVGID_23_" gradientUnits="userSpaceOnUse" x1="291.709" y1="-350.3135" x2="293.124" y2="-350.3135" gradientTransform="matrix(1 0 0 -1 -283.5 -328.5)">
			<stop  offset="0" style="stop-color:#E2318F"/>
			<stop  offset="1" style="stop-color:#4285F4"/>
		</linearGradient>
		<path fill="url(#SVGID_23_)" d="M9.598,21.906c0,0.614,0.077,1.243-0.034,1.837c-0.054,0.285-0.462,0.504-0.71,0.753
			c-0.209-0.25-0.588-0.492-0.601-0.752c-0.061-1.298-0.061-2.602,0.006-3.898c0.013-0.249,0.425-0.477,0.653-0.714
			c0.226,0.239,0.61,0.456,0.647,0.721c0.093,0.673,0.031,1.368,0.031,2.055C9.594,21.906,9.596,21.906,9.598,21.906z"/>
		
			<linearGradient id="SVGID_24_" gradientUnits="userSpaceOnUse" x1="287.6602" y1="-349.6475" x2="289.0322" y2="-349.6475" gradientTransform="matrix(1 0 0 -1 -283.5 -328.5)">
			<stop  offset="0" style="stop-color:#E2318F"/>
			<stop  offset="1" style="stop-color:#4285F4"/>
		</linearGradient>
		<path fill="url(#SVGID_24_)" d="M4.188,21.15c0-0.434-0.08-0.888,0.028-1.293c0.073-0.276,0.374-0.595,0.64-0.675
			c0.149-0.045,0.609,0.343,0.625,0.559c0.07,0.934,0.068,1.878-0.003,2.812c-0.017,0.216-0.472,0.603-0.62,0.559
			c-0.265-0.079-0.568-0.395-0.641-0.669C4.109,22.038,4.189,21.584,4.188,21.15z"/>
		
			<linearGradient id="SVGID_25_" gradientUnits="userSpaceOnUse" x1="295.7793" y1="-349.625" x2="297.165" y2="-349.625" gradientTransform="matrix(1 0 0 -1 -283.5 -328.5)">
			<stop  offset="0" style="stop-color:#E2318F"/>
			<stop  offset="1" style="stop-color:#4285F4"/>
		</linearGradient>
		<path fill="url(#SVGID_25_)" d="M13.632,21.292c0,0.398,0.071,0.813-0.024,1.186c-0.066,0.257-0.415,0.666-0.546,0.634
			c-0.281-0.068-0.694-0.36-0.716-0.593c-0.086-0.896-0.088-1.808-0.008-2.703c0.022-0.246,0.441-0.455,0.678-0.681
			c0.208,0.25,0.533,0.472,0.597,0.755c0.101,0.447,0.027,0.933,0.027,1.402C13.637,21.292,13.634,21.292,13.632,21.292z"/>
		
			<linearGradient id="SVGID_26_" gradientUnits="userSpaceOnUse" x1="287.7422" y1="-353.7236" x2="289.3027" y2="-353.7236" gradientTransform="matrix(1 0 0 -1 -283.5 -328.5)">
			<stop  offset="0" style="stop-color:#E2318F"/>
			<stop  offset="1" style="stop-color:#4285F4"/>
		</linearGradient>
		<path fill="url(#SVGID_26_)" d="M5.803,25.197c-0.464,0.32-0.723,0.63-0.996,0.643c-0.193,0.01-0.559-0.381-0.564-0.599
			c-0.005-0.221,0.336-0.633,0.528-0.634C5.044,24.604,5.32,24.901,5.803,25.197z"/>
		
			<linearGradient id="SVGID_27_" gradientUnits="userSpaceOnUse" x1="295.8633" y1="-353.5967" x2="297.0732" y2="-353.5967" gradientTransform="matrix(1 0 0 -1 -283.5 -328.5)">
			<stop  offset="0" style="stop-color:#E2318F"/>
			<stop  offset="1" style="stop-color:#4285F4"/>
		</linearGradient>
		<path fill="url(#SVGID_27_)" d="M12.906,24.311c0.331,0.382,0.693,0.624,0.667,0.813c-0.038,0.273-0.356,0.508-0.555,0.76
			c-0.232-0.189-0.639-0.366-0.653-0.571C12.347,25.048,12.643,24.762,12.906,24.311z"/>
		
			<linearGradient id="SVGID_28_" gradientUnits="userSpaceOnUse" x1="291.7891" y1="-354.9814" x2="293.0342" y2="-354.9814" gradientTransform="matrix(1 0 0 -1 -283.5 -328.5)">
			<stop  offset="0" style="stop-color:#E2318F"/>
			<stop  offset="1" style="stop-color:#4285F4"/>
		</linearGradient>
		<path fill="url(#SVGID_28_)" d="M8.89,25.709c0.306,0.361,0.677,0.621,0.641,0.798c-0.057,0.278-0.388,0.501-0.604,0.747
			c-0.226-0.236-0.565-0.442-0.635-0.719C8.249,26.36,8.604,26.083,8.89,25.709z"/>
		
			<linearGradient id="SVGID_29_" gradientUnits="userSpaceOnUse" x1="287.0654" y1="-338.96" x2="288.2871" y2="-338.96" gradientTransform="matrix(1 0 0 -1 -283.5 -328.5)">
			<stop  offset="0" style="stop-color:#E2318F"/>
			<stop  offset="1" style="stop-color:#4285F4"/>
		</linearGradient>
		<path fill="url(#SVGID_29_)" d="M4.181,11.224c-0.306-0.406-0.647-0.667-0.613-0.859C3.616,10.101,3.917,9.773,4.174,9.7
			c0.155-0.045,0.618,0.346,0.613,0.532C4.778,10.506,4.477,10.772,4.181,11.224z"/>
		
			<linearGradient id="SVGID_30_" gradientUnits="userSpaceOnUse" x1="296.4951" y1="-338.8047" x2="298.0293" y2="-338.8047" gradientTransform="matrix(1 0 0 -1 -283.5 -328.5)">
			<stop  offset="0" style="stop-color:#E2318F"/>
			<stop  offset="1" style="stop-color:#4285F4"/>
		</linearGradient>
		<path fill="url(#SVGID_30_)" d="M14.529,10.292c-0.37,0.299-0.64,0.666-0.812,0.624c-0.275-0.066-0.485-0.402-0.723-0.625
			c0.239-0.212,0.454-0.54,0.725-0.596C13.901,9.657,14.163,10.006,14.529,10.292z"/>
		
			<linearGradient id="SVGID_31_" gradientUnits="userSpaceOnUse" x1="321.668" y1="-333.373" x2="323.2041" y2="-333.373" gradientTransform="matrix(1 0 0 -1 -283.5 -328.5)">
			<stop  offset="0" style="stop-color:#E2318F"/>
			<stop  offset="1" style="stop-color:#4285F4"/>
		</linearGradient>
		<path fill="url(#SVGID_31_)" d="M39.704,4.897c-0.457,0.289-0.729,0.592-0.995,0.586c-0.198-0.005-0.585-0.471-0.537-0.621
			c0.081-0.258,0.415-0.55,0.684-0.598C39.044,4.231,39.3,4.58,39.704,4.897z"/>
		
			<linearGradient id="SVGID_32_" gradientUnits="userSpaceOnUse" x1="307.3965" y1="-368.7627" x2="308.6221" y2="-368.7627" gradientTransform="matrix(1 0 0 -1 -283.5 -328.5)">
			<stop  offset="0" style="stop-color:#E2318F"/>
			<stop  offset="1" style="stop-color:#4285F4"/>
		</linearGradient>
		<path fill="url(#SVGID_32_)" d="M24.563,41.035c-0.323-0.368-0.7-0.623-0.665-0.796c0.054-0.278,0.382-0.502,0.594-0.749
			c0.222,0.229,0.558,0.43,0.625,0.697C25.164,40.37,24.833,40.647,24.563,41.035z"/>
	</g>
</g>
<g id="Layer_5">
	<g>
		
			<linearGradient id="SVGID_33_" gradientUnits="userSpaceOnUse" x1="285.9189" y1="-351.5" x2="327.0811" y2="-351.5" gradientTransform="matrix(1 0 0 -1 -283.5 -328.5)">
			<stop  offset="0" style="stop-color:#E2318F"/>
			<stop  offset="1" style="stop-color:#4285F4"/>
		</linearGradient>
		<path fill="url(#SVGID_33_)" d="M43.581,14.89V9.866l-1.854-0.457c-0.082-0.22-0.175-0.441-0.277-0.661l0.991-1.637l-3.554-3.553
			L37.252,4.55c-0.221-0.102-0.44-0.194-0.661-0.276l-0.456-1.855h-5.025l-0.455,1.855c-0.221,0.082-0.44,0.174-0.661,0.276
			L28.357,3.56l-3.554,3.553l0.991,1.636c-0.103,0.22-0.195,0.44-0.277,0.661l-1.854,0.456v4.504H5.738
			c-1.83,0-3.319,1.489-3.319,3.319v15.933c0,1.831,1.489,3.32,3.319,3.32h5.311v2.655H8.394c-0.732,0-1.328,0.596-1.328,1.327
			v1.329c0,0.731,0.596,1.327,1.328,1.327h13.942h1.354h19.891v-2.656c0-4.83-3.244-8.91-7.668-10.195
			c1.421-0.954,2.356-2.574,2.356-4.409c0-1.732-0.837-3.27-2.123-4.239l0.067-0.066l0.377-1.534c0.221-0.082,0.44-0.174,0.66-0.276
			l1.637,0.991l3.553-3.554l-0.99-1.636c0.103-0.22,0.195-0.44,0.276-0.661L43.581,14.89z M5.738,15.697h22.573
			c1.098,0,1.991,0.894,1.991,1.992v4.038c-0.499,0.29-0.948,0.66-1.328,1.092v-4.466c0-0.732-0.595-1.328-1.327-1.328H6.403
			c-0.733,0-1.328,0.596-1.328,1.328v13.278H3.747V17.689C3.747,16.591,4.64,15.697,5.738,15.697z M28.975,12.377
			c0-2.562,2.086-4.647,4.647-4.647c2.563,0,4.647,2.086,4.647,4.647c0,2.562-2.085,4.647-4.647,4.647
			c-0.788,0-1.556-0.208-2.24-0.586c-0.337-0.825-0.995-1.484-1.821-1.821C29.183,13.932,28.975,13.166,28.975,12.377z
			 M36.189,38.249l-2.288,4.005h-0.069l2.746-9.889c0.284,0.119,0.561,0.256,0.829,0.401l-0.42,2.528l-1.516,1.516L36.189,38.249z
			 M32.016,42.254l-2.287-4.005l0.719-1.438l-1.517-1.516l-0.42-2.528c0.268-0.146,0.545-0.282,0.828-0.401l2.746,9.888H32.016z
			 M24.991,31.631h-1.327V21.008h1.327V31.631z M28.975,31.085V29.82c0.304,0.345,0.646,0.653,1.029,0.909
			C29.652,30.831,29.311,30.949,28.975,31.085z M27.647,31.631H26.32v-11.95h-3.984v11.95h-1.328v-9.294h-3.983v9.294h-1.328v-6.64
			h-3.983v6.64H6.403V18.353h21.245V31.631z M19.681,31.631h-1.328v-7.967h1.328V31.631z M14.37,31.631h-1.328V26.32h1.328V31.631z
			 M3.747,33.622v-0.663h22.209c-0.863,0.76-1.602,1.654-2.183,2.654H5.738C4.64,35.613,3.747,34.721,3.747,33.622z M12.377,36.942
			h10.741c-0.341,0.838-0.574,1.729-0.689,2.655H12.377V36.942z M8.394,42.254v-1.329h13.942v1.329H8.394z M23.664,42.254v-1.329
			c0-2.993,1.429-5.653,3.635-7.354l0.394,2.362l1.139,1.14l-0.608,1.219l2.264,3.963h-3.503v-5.312h-1.327v5.312H23.69H23.664z
			 M42.254,40.925v1.329h-1.993v-5.312h-1.327v5.312H35.43l2.266-3.963l-0.608-1.219l1.139-1.14l0.394-2.362
			C40.825,35.271,42.254,37.932,42.254,40.925z M35.316,31.945l-2.357,8.49l-2.359-8.49c0.756-0.199,1.544-0.314,2.359-0.314
			S34.563,31.746,35.316,31.945z M36.942,26.32c0,2.196-1.787,3.982-3.983,3.982c-2.197,0-3.984-1.786-3.984-3.982
			c0-2.197,1.787-3.984,3.984-3.984C35.155,22.336,36.942,24.123,36.942,26.32z M40.766,17.44l-2.08,2.08l-1.377-0.833l-0.331,0.172
			c-0.38,0.198-0.766,0.359-1.145,0.479l-0.356,0.112l-0.461,1.879l-0.07,0.068c-0.614-0.25-1.285-0.39-1.986-0.39
			c-0.46,0-0.902,0.064-1.328,0.175v-3.187c0.638,0.226,1.307,0.356,1.991,0.356c3.295,0,5.976-2.68,5.976-5.975
			c0-3.295-2.681-5.975-5.976-5.975c-3.294,0-5.975,2.68-5.975,5.975c0,0.685,0.13,1.354,0.355,1.992h-3.012v-3.463l1.559-0.383
			l0.112-0.356c0.12-0.379,0.282-0.764,0.479-1.145l0.172-0.331l-0.834-1.376l2.08-2.081l1.377,0.833l0.331-0.172
			c0.381-0.198,0.767-0.359,1.146-0.479l0.355-0.112l0.383-1.558h2.942l0.383,1.558l0.355,0.112c0.379,0.12,0.765,0.281,1.146,0.479
			l0.331,0.172l1.377-0.833l2.08,2.081l-0.833,1.376l0.171,0.331c0.198,0.38,0.359,0.766,0.48,1.145l0.112,0.356l1.558,0.383v2.942
			l-1.559,0.383l-0.112,0.355c-0.12,0.379-0.281,0.765-0.479,1.146l-0.172,0.331L40.766,17.44z"/>
		
			<linearGradient id="SVGID_34_" gradientUnits="userSpaceOnUse" x1="313.8027" y1="-340.8774" x2="320.4424" y2="-340.8774" gradientTransform="matrix(1 0 0 -1 -283.5 -328.5)">
			<stop  offset="0" style="stop-color:#E2318F"/>
			<stop  offset="1" style="stop-color:#4285F4"/>
		</linearGradient>
		<path fill="url(#SVGID_34_)" d="M33.622,15.697c1.831,0,3.32-1.489,3.32-3.319c0-1.831-1.489-3.319-3.32-3.319
			c-1.83,0-3.319,1.489-3.319,3.319C30.303,14.208,31.792,15.697,33.622,15.697z M33.622,10.386c1.099,0,1.991,0.894,1.991,1.992
			s-0.893,1.992-1.991,1.992c-1.098,0-1.991-0.894-1.991-1.992S32.524,10.386,33.622,10.386z"/>
		
			<linearGradient id="SVGID_35_" gradientUnits="userSpaceOnUse" x1="291.2305" y1="-348.8447" x2="292.5586" y2="-348.8447" gradientTransform="matrix(1 0 0 -1 -283.5 -328.5)">
			<stop  offset="0" style="stop-color:#E2318F"/>
			<stop  offset="1" style="stop-color:#4285F4"/>
		</linearGradient>
		<path fill="url(#SVGID_35_)" d="M7.73,19.681h1.328v1.328H7.73V19.681z"/>
		
			<linearGradient id="SVGID_36_" gradientUnits="userSpaceOnUse" x1="293.8857" y1="-348.8447" x2="295.2139" y2="-348.8447" gradientTransform="matrix(1 0 0 -1 -283.5 -328.5)">
			<stop  offset="0" style="stop-color:#E2318F"/>
			<stop  offset="1" style="stop-color:#4285F4"/>
		</linearGradient>
		<path fill="url(#SVGID_36_)" d="M10.386,19.681h1.328v1.328h-1.328V19.681z"/>
		
			<linearGradient id="SVGID_37_" gradientUnits="userSpaceOnUse" x1="296.541" y1="-348.8447" x2="297.8691" y2="-348.8447" gradientTransform="matrix(1 0 0 -1 -283.5 -328.5)">
			<stop  offset="0" style="stop-color:#E2318F"/>
			<stop  offset="1" style="stop-color:#4285F4"/>
		</linearGradient>
		<path fill="url(#SVGID_37_)" d="M13.042,19.681h1.328v1.328h-1.328V19.681z"/>
		
			<linearGradient id="SVGID_38_" gradientUnits="userSpaceOnUse" x1="291.2305" y1="-351.5" x2="297.8691" y2="-351.5" gradientTransform="matrix(1 0 0 -1 -283.5 -328.5)">
			<stop  offset="0" style="stop-color:#E2318F"/>
			<stop  offset="1" style="stop-color:#4285F4"/>
		</linearGradient>
		<path fill="url(#SVGID_38_)" d="M7.73,22.336h6.64v1.328H7.73V22.336z"/>
	</g>
</g>
<g id="Layer_6" display="none">
	<g id="Product" display="inline">
		
			<linearGradient id="SVGID_39_" gradientUnits="userSpaceOnUse" x1="286" y1="-358.375" x2="296.666" y2="-358.375" gradientTransform="matrix(1 0 0 -1 -283.5 -328.5)">
			<stop  offset="0" style="stop-color:#E2318F"/>
			<stop  offset="1" style="stop-color:#4285F4"/>
		</linearGradient>
		<path fill="url(#SVGID_39_)" d="M12.5,37.166h-0.759c0.495-0.756,0.758-1.641,0.759-2.544v-1.677c0-0.368-0.061-0.735-0.181-1.083
			l-2.062-5.996c-0.179-0.67-0.693-1.2-1.357-1.399l1.256-4.696c0.225-0.816-0.094-1.685-0.793-2.161
			c-0.181-0.13-0.385-0.227-0.6-0.286C8.59,17.274,8.411,17.25,8.23,17.25c-0.896-0.008-1.685,0.586-1.924,1.449L2.749,29.634
			c-0.179,0.555-0.21,1.148-0.091,1.72l1.028,3.995c0.098,0.379,0.147,0.769,0.147,1.16v0.657H3.167
			c-0.368,0-0.667,0.299-0.667,0.667v4c0,0.368,0.298,0.667,0.667,0.667H12.5c0.368,0,0.667-0.299,0.667-0.667v-4
			C13.167,37.465,12.868,37.166,12.5,37.166z M4.978,35.014l-1.021-3.959c-0.067-0.338-0.046-0.686,0.06-1.012l3.569-10.97
			c0.095-0.351,0.456-0.559,0.807-0.464c0.002,0,0.004,0.001,0.007,0.001c0.074,0.02,0.143,0.052,0.204,0.098
			c0.235,0.157,0.342,0.447,0.267,0.719l-1.376,5.139c-0.713,0.321-1.169,1.031-1.167,1.813c-0.002,0.175,0.02,0.35,0.066,0.519
			L7.6,31.406c0.095,0.355,0.461,0.566,0.817,0.471c0.355-0.095,0.566-0.461,0.471-0.816l-1.209-4.523
			c-0.014-0.051-0.02-0.104-0.02-0.157c-0.002-0.281,0.176-0.531,0.442-0.62c0.016-0.005,0.079-0.026,0.088-0.028
			c0.364-0.071,0.717,0.162,0.792,0.525l2.076,6.039c0.072,0.209,0.108,0.429,0.108,0.649v1.677c0,0.658-0.194,1.302-0.56,1.85
			l-0.463,0.694H5.167v-0.657C5.167,36.004,5.103,35.502,4.978,35.014z M11.833,41.167h-8V38.5h8V41.167z"/>
		
			<linearGradient id="SVGID_40_" gradientUnits="userSpaceOnUse" x1="315.333" y1="-358.3765" x2="326" y2="-358.3765" gradientTransform="matrix(1 0 0 -1 -283.5 -328.5)">
			<stop  offset="0" style="stop-color:#E2318F"/>
			<stop  offset="1" style="stop-color:#4285F4"/>
		</linearGradient>
		<path fill="url(#SVGID_40_)" d="M31.833,37.833v4c0,0.368,0.299,0.667,0.667,0.667h9.333c0.368,0,0.667-0.299,0.667-0.667v-4
			c0-0.368-0.299-0.667-0.667-0.667h-0.666v-0.657c0-0.394,0.049-0.784,0.146-1.163l1.028-3.995c0.12-0.571,0.089-1.165-0.091-1.721
			L38.693,18.7c-0.239-0.861-1.026-1.454-1.92-1.447c-0.181,0-0.359,0.024-0.534,0.075c-0.215,0.058-0.418,0.155-0.6,0.285
			c-0.699,0.476-1.019,1.345-0.793,2.161l1.254,4.696c-0.665,0.2-1.178,0.729-1.358,1.399l-2.062,5.995
			c-0.12,0.349-0.181,0.714-0.181,1.081v1.677c0,0.903,0.264,1.788,0.759,2.544H32.5C32.132,37.166,31.833,37.465,31.833,37.833z
			 M39.833,36.509v0.657h-4.976l-0.464-0.694c-0.366-0.548-0.561-1.191-0.561-1.85v-1.677c0-0.221,0.036-0.44,0.108-0.649
			l2.075-6.04c0.076-0.362,0.43-0.597,0.793-0.524c0.01,0,0.073,0.022,0.088,0.028c0.266,0.089,0.445,0.339,0.442,0.62
			c0.001,0.053-0.006,0.106-0.02,0.157l-1.212,4.523c-0.095,0.355,0.117,0.722,0.472,0.816c0.355,0.096,0.722-0.115,0.817-0.471
			l1.206-4.508c0.047-0.169,0.07-0.344,0.067-0.519c0.003-0.781-0.453-1.491-1.164-1.813l-1.376-5.14
			c-0.075-0.272,0.031-0.562,0.266-0.719c0.062-0.045,0.131-0.078,0.205-0.097c0.35-0.098,0.713,0.106,0.812,0.456
			c0.001,0.002,0.002,0.004,0.002,0.007l3.568,10.969c0.106,0.326,0.127,0.674,0.06,1.012l-1.021,3.959
			C39.897,35.502,39.833,36.004,39.833,36.509z M33.166,38.5h8.001v2.667h-8.001V38.5z"/>
		
			<linearGradient id="SVGID_41_" gradientUnits="userSpaceOnUse" x1="294.666" y1="-343.3799" x2="317.334" y2="-343.3799" gradientTransform="matrix(1 0 0 -1 -283.5 -328.5)">
			<stop  offset="0" style="stop-color:#E2318F"/>
			<stop  offset="1" style="stop-color:#4285F4"/>
		</linearGradient>
		<path fill="url(#SVGID_41_)" d="M33.433,7.223L22.767,2.556c-0.17-0.074-0.363-0.074-0.533,0L11.567,7.223
			c-0.243,0.106-0.4,0.346-0.4,0.61v13.333c0,0.251,0.141,0.48,0.364,0.594l10.667,5.426c0.094,0.049,0.197,0.073,0.303,0.073
			c0.104,0,0.206-0.024,0.299-0.07l10.667-5.36c0.226-0.113,0.368-0.344,0.368-0.596v-13.4C33.833,7.568,33.676,7.329,33.433,7.223z
			 M22.5,3.894l9.004,3.939L22.5,11.772l-2.34-1.024l3.561-1.558c0.338-0.147,0.491-0.541,0.344-0.878
			c-0.068-0.153-0.19-0.276-0.344-0.343l-2.86-1.248c-0.171-0.074-0.364-0.074-0.534,0l-4.688,2.049L13.5,7.833L22.5,3.894z
			 M16.5,10.603l1.333,0.583v2.902L16.5,13.421V10.603z M17.3,9.499l3.291-1.438l1.193,0.521L18.5,10.021L17.3,9.499z M12.5,8.853
			l2.667,1.167v3.814c0,0.252,0.143,0.483,0.369,0.596l2.667,1.333c0.33,0.165,0.729,0.031,0.894-0.298
			c0.046-0.093,0.071-0.195,0.071-0.298v-3.4l2.666,1.167v12.573L12.5,20.758V8.853L12.5,8.853z M23.167,25.512V12.936L32.5,8.853
			v11.969L23.167,25.512z"/>
		
			<linearGradient id="SVGID_42_" gradientUnits="userSpaceOnUse" x1="307.333" y1="-350.4224" x2="311.3389" y2="-350.4224" gradientTransform="matrix(1 0 0 -1 -283.5 -328.5)">
			<stop  offset="0" style="stop-color:#E2318F"/>
			<stop  offset="1" style="stop-color:#4285F4"/>
		</linearGradient>
		<path fill="url(#SVGID_42_)" d="M26.872,20.655l-2.671,1.343c-0.33,0.166-0.462,0.566-0.297,0.896
			c0.166,0.329,0.567,0.462,0.896,0.295l2.672-1.342c0.328-0.166,0.461-0.566,0.295-0.896
			C27.603,20.622,27.201,20.489,26.872,20.655L26.872,20.655z"/>
		
			<linearGradient id="SVGID_43_" gradientUnits="userSpaceOnUse" x1="307.332" y1="-347.7646" x2="311.2988" y2="-347.7646" gradientTransform="matrix(1 0 0 -1 -283.5 -328.5)">
			<stop  offset="0" style="stop-color:#E2318F"/>
			<stop  offset="1" style="stop-color:#4285F4"/>
		</linearGradient>
		<path fill="url(#SVGID_43_)" d="M24.5,20.593c0.104,0,0.206-0.024,0.299-0.071l2.634-1.323c0.328-0.166,0.461-0.566,0.295-0.896
			c-0.165-0.329-0.567-0.462-0.896-0.295l0,0l-2.633,1.323c-0.328,0.166-0.461,0.566-0.296,0.896
			C24.018,20.452,24.248,20.594,24.5,20.593z"/>
	</g>
</g>
</svg>
