<?xml version="1.0" encoding="utf-8"?>
<!-- Generator: Adobe Illustrator 16.0.0, SVG Export Plug-In . SVG Version: 6.00 Build 0)  -->
<!DOCTYPE svg PUBLIC "-//W3C//DTD SVG 1.1//EN" "http://www.w3.org/Graphics/SVG/1.1/DTD/svg11.dtd">
<svg version="1.1" xmlns="http://www.w3.org/2000/svg" xmlns:xlink="http://www.w3.org/1999/xlink" x="0px" y="0px" width="60px"
	 height="60px" viewBox="0 0 60 60" enable-background="new 0 0 60 60" xml:space="preserve">
<g id="Layer_1" display="none">
	<g display="inline">
		<path fill-rule="evenodd" clip-rule="evenodd" fill="#EC56B4" d="M29.063,51.917c-2.267,2.091-4.127,1.686-5.222-0.922
			c-1.107-0.073-2.29,0.164-3.075-0.289c-0.79-0.458-1.184-1.601-1.691-2.355c-0.955-0.121-2.307,0.089-3.033-0.488
			c-0.756-0.601-0.908-1.963-1.392-3.16c-3.169-0.472-3.663-1.124-3.001-4.481c-1.325-0.4-2.428-1.015-4.016-0.035
			c-0.979,0.603-2.702,0.054-4.077-0.101c-0.191-0.021-0.432-0.743-0.434-1.143C3.096,33.874,3.065,28.805,3.13,23.736
			c0.033-2.527,1.875-4.004,4.365-3.598c1.949,0.317,3.886,0.716,5.818,1.129c2.095,0.448,2.328,0.755,2.37,2.822
			c4.846,0.126,9.3-3.093,14.289-1.699c4.999-1.398,9.454,1.78,14.436,1.697c-0.396-2.026,0.885-2.604,2.536-2.89
			c1.847-0.32,3.677-0.738,5.526-1.038c2.562-0.417,4.368,1.088,4.394,3.713c0.047,4.967-0.001,9.935,0.046,14.902
			c0.009,1.011-0.35,1.438-1.329,1.605c-1.427,0.245-2.75,0.471-4.013-0.623c-0.936-0.811-2.7,0.132-2.785,1.384
			c-0.105,1.542-0.753,2.667-2.247,3.309c-0.464,0.198-0.942,0.712-1.111,1.189c-0.53,1.503-1.521,2.294-3.071,2.587
			c-0.476,0.089-0.885,0.59-1.294,0.937c-0.143,0.121-0.156,0.396-0.299,0.516c-0.499,0.415-1.049,1.153-1.544,1.125
			c-2.712-0.152-4.202,3.522-7.224,2.229C31.066,52.638,30.11,52.313,29.063,51.917z M44.3,44.982
			c-2.036-0.853-3.953-1.61-5.818-2.476c-0.371-0.172-0.551-0.759-0.818-1.154c0.448,0.052,0.925,0.021,1.343,0.166
			c1.811,0.627,3.566,1.444,5.412,1.922c1.547,0.4,2.96-0.549,3.106-1.898c0.046-0.435-0.382-1.288-0.689-1.337
			c-4.599-0.729-8.096-3.242-11.189-6.549c-1.639-1.751-3.582-2.419-6.048-1.43c-1.361,0.546-2.27,1.125-2.871,2.544
			c-1.118,2.639-3.56,3.839-5.693,3.108c-1.585-0.543-2.137-2.049-1.436-3.537c0.575-1.219,1.135-2.485,1.406-3.792
			c0.324-1.563,1.088-2.646,2.398-3.504c1.702-1.114,3.328-2.345,4.987-3.526c-0.052-0.142-0.104-0.284-0.156-0.426
			c-0.921,0.11-1.852,0.166-2.761,0.338c-3.33,0.63-6.655,1.287-9.975,1.972c-0.335,0.069-0.766,0.337-0.897,0.629
			c-1.807,4.003-3.569,8.027-5.516,12.441c1.595,0.139,3.108,0.71,4.246,0.282c2.764-1.039,3.744-0.95,5.27,1.466
			c2.725-0.458,3.012-0.25,3.941,2.86c2.495-0.302,2.669-0.157,3.811,3.173c2.535,0.181,3.183,0.925,3.235,3.539
			c0.008,0.406,0.283,0.987,0.611,1.171c0.786,0.437,1.655,0.789,2.532,0.981c1.074,0.236,2.085,0.015,2.831-1.122
			c-0.729-0.36-1.394-0.603-1.949-0.999c-0.284-0.201-0.372-0.678-0.549-1.029c0.362-0.008,0.75-0.104,1.078-0.005
			c1.106,0.337,2.166,0.871,3.291,1.093c1.428,0.281,2.287-0.438,2.486-1.799c-1.404-0.574-2.83-1.1-4.192-1.752
			c-0.384-0.186-0.587-0.747-0.872-1.136c0.449,0.032,0.923-0.014,1.346,0.112c1.787,0.529,3.53,1.245,5.344,1.628
			C42.944,47.231,43.979,46.518,44.3,44.982z M50.854,38.197c-1.828-4.161-3.563-8.14-5.34-12.1
			c-0.136-0.302-0.541-0.612-0.871-0.68c-3.516-0.731-7.044-1.396-10.562-2.117c-1.568-0.322-2.996-0.167-4.332,0.795
			c-1.929,1.392-3.974,2.635-5.813,4.132c-0.786,0.64-1.29,1.711-1.725,2.676c-0.515,1.14-0.844,2.369-1.197,3.575
			c-0.168,0.573-0.479,1.524-0.249,1.708c0.518,0.411,1.374,0.703,2.016,0.594c1.652-0.281,2.496-1.571,3.152-3.013
			c0.287-0.631,0.592-1.355,1.105-1.765c2.508-2.001,6.218-1.925,8.708,0.153c1.163,0.971,2.156,2.149,3.332,3.101
			C42.453,37.988,46.059,39.949,50.854,38.197z M14.588,23.021c-0.38-0.206-0.542-0.346-0.726-0.385
			c-1.979-0.417-3.954-0.85-5.942-1.215c-2.525-0.465-3.643,0.466-3.651,3.011c-0.013,4.401-0.014,8.803,0.007,13.204
			c0.003,0.646-0.284,1.519,0.83,1.625c1.025,0.099,2.12,0.526,2.698-0.892c0.706-1.729,1.518-3.418,2.274-5.128
			C11.568,29.875,13.051,26.505,14.588,23.021z M45.344,22.715c1.038,2.349,1.912,4.325,2.785,6.3
			c1.369,3.098,2.771,6.184,4.094,9.301c0.545,1.284,1.54,1.19,2.528,0.944c0.387-0.098,0.936-0.658,0.94-1.013
			c0.061-4.858,0.075-9.72,0.013-14.58c-0.017-1.287-0.795-2.438-2.13-2.306C50.892,21.627,48.241,22.219,45.344,22.715z
			 M16.244,45.703c-0.032,1.2,0.738,1.746,1.88,1.338c1.456-0.523,3.095-3.031,2.99-4.58c-0.072-1.075-0.743-1.51-1.757-1.137
			C17.944,41.844,16.284,44.178,16.244,45.703z M25.271,46.253c-0.462-0.885-0.624-1.701-1.067-1.905
			c-0.453-0.209-1.485-0.019-1.735,0.354c-0.756,1.125-1.527,2.37-1.778,3.668c-0.255,1.321,1.184,2.09,2.188,1.18
			C23.861,48.659,24.484,47.374,25.271,46.253z M16.179,39.322c-2.038,0.041-3.843,1.576-3.566,2.777
			c0.124,0.536,0.903,1.226,1.457,1.297c1.299,0.168,3.224-1.646,3.036-2.808C17.016,40.035,16.372,39.569,16.179,39.322z
			 M28.427,48.809c-0.253-0.249-0.714-1.063-1.358-1.253c-0.891-0.264-2.024,1.454-1.991,2.802c0.025,1.026,0.566,1.625,1.591,1.644
			C27.665,52.019,28.459,50.785,28.427,48.809z"/>
		<path fill-rule="evenodd" clip-rule="evenodd" fill="#EC56B4" d="M38.012,17.061c-0.063-0.163-0.219-0.398-0.223-0.637
			c-0.004-0.22,0.093-0.527,0.256-0.649c0.565-0.423,1.179-0.782,1.772-1.167c2.506-1.622,5.002-3.263,7.534-4.842
			c0.327-0.205,0.854-0.092,1.286-0.126c-0.186,0.364-0.274,0.872-0.569,1.067c-2.996,1.985-6.023,3.92-9.046,5.863
			C38.816,16.702,38.581,16.787,38.012,17.061z"/>
		<path fill-rule="evenodd" clip-rule="evenodd" fill="#EC56B4" d="M22.248,16.767c-0.471-0.099-1.017-0.076-1.397-0.316
			c-2.438-1.538-4.839-3.137-7.256-4.709c-0.552-0.359-1.174-0.63-1.659-1.061c-0.27-0.241-0.324-0.726-0.474-1.101
			c0.365,0.013,0.816-0.109,1.083,0.06c3.075,1.951,6.119,3.949,9.181,5.92c0.295,0.19,0.657,0.278,0.988,0.413
			C22.558,16.238,22.402,16.502,22.248,16.767z"/>
		<path fill-rule="evenodd" clip-rule="evenodd" fill="#EC56B4" d="M30.355,6.708c0.082,0.454,0.228,0.907,0.232,1.361
			c0.026,2.525,0.043,5.051-0.007,7.575c-0.008,0.394-0.38,0.781-0.583,1.171c-0.184-0.354-0.521-0.706-0.526-1.063
			c-0.046-2.625-0.038-5.252-0.012-7.878c0.005-0.395,0.194-0.788,0.297-1.182C29.956,6.697,30.155,6.702,30.355,6.708z"/>
	</g>
</g>
<g id="Layer_2" display="none">
	<g display="inline">
		<path fill-rule="evenodd" clip-rule="evenodd" fill="#EC56B4" d="M6.975,29.936c0.414,0.587,0.211,1.257,0.186,1.876
			c-0.05,1.238,0.273,2.5-0.186,3.717C6.975,33.663,6.975,31.8,6.975,29.936z"/>
		<path fill-rule="evenodd" clip-rule="evenodd" fill="#EC56B4" d="M23.945,44.846c0.156,2.971,0.125,5.941,0.017,8.912
			c-0.028,0.015-0.079,0.028-0.079,0.043c0,0.051,0.017,0.102,0.027,0.152c-0.052,0.143-0.104,0.283-0.157,0.427
			c-2.899,0-5.8,0-8.7,0c-0.059-2.014-1.687-2.656-3.066-3.521c-0.726-0.453-1.451-0.908-2.164-1.383
			c-1.118-0.744-1.888-1.771-2.4-3.006c-0.14-0.336-0.113-0.75-0.449-0.998c0-3.315,0-6.63,0-9.944
			c0.459-1.217,0.136-2.479,0.186-3.717c0.025-0.619,0.228-1.289-0.186-1.876c0-0.346,0-0.69,0-1.036
			c0.757-1.567,1.84-2.673,3.742-2.452c1.653,0.192,2.546,1.267,2.979,3.568c0.546,2.907,1.068,5.819,1.544,8.738
			c0.091,0.56,0.261,0.759,0.819,0.777c0.363,0.011,0.772,0.131,1.071,0.333c2.25,1.52,4.526,3.004,6.641,4.714
			C23.829,44.668,23.887,44.757,23.945,44.846z M8.509,37.061c-0.004,0-0.009,0-0.015,0c0,2.207-0.004,4.415,0.001,6.622
			c0.006,2.089,0.825,3.72,2.659,4.819c1.388,0.832,2.739,1.729,4.107,2.596c0.522,0.333,1.083,0.607,1.053,1.39
			c-0.019,0.484,0.416,0.365,0.699,0.367c1.587,0.01,3.174-0.02,4.76,0.017c0.605,0.014,0.757-0.21,0.749-0.782
			c-0.028-1.965-0.026-3.932,0-5.896c0.007-0.505-0.147-0.829-0.563-1.114c-1.676-1.15-3.33-2.337-4.997-3.5
			c-0.952-0.664-1.763-0.643-2.293,0.031c-0.563,0.714-0.349,1.561,0.596,2.28c1.097,0.835,2.192,1.676,3.313,2.477
			c0.58,0.413,0.252,0.729-0.009,1.108c-0.25,0.363-0.45,0.528-0.887,0.183c-1.244-0.983-2.554-1.883-3.786-2.879
			c-1.125-0.911-1.583-2.437-0.775-3.507c0.896-1.189,0.598-2.296,0.38-3.492c-0.105-0.576-0.211-1.151-0.312-1.728
			c-0.373-2.137-0.734-4.274-1.12-6.408c-0.145-0.795-0.525-1.424-1.398-1.599c-0.75-0.15-1.365,0.073-1.81,0.701
			c-0.36,0.508-0.345,1.109-0.347,1.692C8.504,32.646,8.509,34.853,8.509,37.061z"/>
		<path fill-rule="evenodd" clip-rule="evenodd" fill="#EC56B4" d="M36.787,44.579c2.114-1.711,4.396-3.184,6.632-4.724
			c0.112-0.076,0.253-0.167,0.376-0.161c1.586,0.082,1.557-1.089,1.734-2.157c0.453-2.713,0.942-5.42,1.43-8.127
			c0.313-1.743,1.495-2.879,3.076-2.987c1.604-0.109,2.818,0.802,3.406,2.551c0.018,0.054,0.094,0.089,0.143,0.133
			c0,0.276,0,0.553,0,0.829c-0.403,0.479-0.215,1.053-0.189,1.568c0.067,1.343-0.271,2.704,0.189,4.024c0,3.314,0,6.629,0,9.944
			c-0.075,0.104-0.186,0.199-0.22,0.316c-0.539,1.883-1.721,3.232-3.401,4.196c-0.771,0.443-1.502,0.957-2.256,1.431
			c-0.962,0.603-2.129,1.032-2.008,2.511c0.013,0.145-0.125,0.302-0.193,0.453c-2.901,0-5.802,0-8.701,0
			c-0.052-0.144-0.104-0.286-0.157-0.428c0.019-0.023,0.059-0.061,0.054-0.069c-0.028-0.045-0.069-0.084-0.105-0.125
			c-0.108-2.971-0.139-5.941,0.018-8.912C36.671,44.757,36.73,44.668,36.787,44.579z M52.063,37.082c-0.007,0-0.014,0-0.021,0
			c0-2.347,0.026-4.694-0.011-7.041c-0.019-1.257-0.627-1.958-1.616-2.037c-1.037-0.083-1.748,0.573-1.97,1.827
			c-0.551,3.12-1.096,6.241-1.649,9.361c-0.1,0.56-0.042,1.02,0.338,1.524c1.049,1.396,0.819,3.031-0.549,4.128
			c-1.183,0.949-2.445,1.801-3.627,2.753c-0.51,0.41-0.722,0.212-1.041-0.202c-0.329-0.429-0.423-0.698,0.102-1.064
			c1.186-0.832,2.338-1.713,3.479-2.604c0.757-0.59,0.899-1.428,0.419-2.08c-0.481-0.654-1.307-0.761-2.11-0.207
			c-1.763,1.213-3.503,2.456-5.258,3.678c-0.333,0.232-0.519,0.488-0.513,0.931c0.022,2.035,0.025,4.072,0,6.107
			c-0.008,0.544,0.174,0.724,0.711,0.714c1.449-0.028,2.9-0.02,4.35-0.006c0.626,0.007,1.253,0.127,1.229-0.857
			c-0.008-0.398,0.453-0.573,0.771-0.775c1.454-0.928,2.894-1.878,4.368-2.771c1.799-1.089,2.587-2.704,2.596-4.75
			C52.071,41.5,52.063,39.29,52.063,37.082z"/>
		<path fill-rule="evenodd" clip-rule="evenodd" fill="#EC56B4" d="M32.247,7.77c0.62,0.248,1.412,0.372,0.975,1.374
			c-0.081,0.185-0.117,0.434-0.377,0.415c-0.75-0.056-1.536-0.02-2.235-0.246c-0.72-0.233-0.242-1.031-0.434-1.542
			C30.866,7.77,31.557,7.77,32.247,7.77z"/>
		<path fill-rule="evenodd" clip-rule="evenodd" fill="#EC56B4" d="M53.584,35.528c-0.461-1.32-0.122-2.682-0.189-4.024
			c-0.025-0.515-0.214-1.089,0.189-1.568C53.584,31.8,53.584,33.663,53.584,35.528z"/>
		<path fill-rule="evenodd" clip-rule="evenodd" fill="#EC56B4" d="M32.521,37.242c-1.388-0.696-3.104-0.158-4.845-0.038
			c-2.359,0.163-4.34-1.493-4.975-3.854c-0.106-0.395-0.163-0.732-0.653-0.94c-2.953-1.251-4.236-4.547-2.9-7.472
			c0.285-0.623,0.293-1.091,0.001-1.716c-1.278-2.74-0.151-5.836,2.586-7.162c0.488-0.236,0.693-0.507,0.809-1.046
			c0.667-3.106,3.976-4.876,6.965-3.751c0.506,0.19,0.919,0.244,1.459,0.033c2.979-1.161,6.007,0.401,6.885,3.511
			c0.123,0.434,0.213,0.772,0.736,0.983c2.838,1.146,4.143,4.579,2.824,7.423c-0.288,0.621-0.299,1.087-0.01,1.716
			c1.277,2.773,0.178,5.81-2.569,7.172c-0.477,0.235-0.708,0.489-0.825,1.038C37.497,35.557,35.317,37.256,32.521,37.242z
			 M31.036,23.66c0.353-0.104,0.609-0.191,0.874-0.256c1.55-0.38,3.229,0.576,3.644,2.115c0.07,0.264,0.44,0.757-0.104,0.843
			c-0.421,0.066-1.079,0.39-1.332-0.303c-0.344-0.941-0.981-1.332-1.925-1.098c-0.924,0.23-1.164,0.966-1.161,1.838
			c0.01,2.521,0.002,5.041,0.006,7.562c0.001,0.726,0.729,1.518,1.409,1.549c1.969,0.091,3.949-1.591,4.126-3.601
			c0.071-0.819,0.404-1.183,1.175-1.443c2.384-0.807,3.392-3.532,2.056-5.659c-0.515-0.82-0.583-1.363-0.024-2.205
			c1.237-1.868,0.435-4.766-1.442-5.656c-1.009-0.479-2.011-0.235-2.441,0.592c-0.429,0.825-0.124,1.676,0.931,2.168
			c0.729,0.34,0.446,0.908,0.364,1.312c-0.106,0.523-0.634,0.252-0.94,0.142c-1.217-0.435-1.931-1.34-2.054-2.612
			c-0.122-1.272,0.411-2.289,1.519-2.953c0.389-0.233,0.784-0.337,0.6-0.979c-0.547-1.897-2.804-3.067-4.632-2.352
			c-0.377,0.147-0.655,0.304-0.654,0.792C31.043,16.833,31.036,20.208,31.036,23.66z M29.522,20.656
			c-2.308,0.597-3.935-0.055-4.479-1.747c-0.094-0.292-0.445-0.828,0.05-0.947c0.417-0.101,1.083-0.434,1.385,0.363
			c0.325,0.857,0.988,1.254,1.888,1.012c0.851-0.228,1.162-0.896,1.157-1.742c-0.006-1.276-0.051-2.555,0.018-3.827
			c0.041-0.76-0.317-1.046-0.956-1.207c-2.169-0.547-4.408,1.003-4.6,3.276c-0.069,0.819-0.392,1.202-1.154,1.463
			c-2.47,0.849-3.44,3.646-1.99,5.81c0.484,0.723,0.485,1.223,0.012,1.937c-1.212,1.832-0.669,4.493,1.064,5.607
			c0.977,0.628,2.173,0.484,2.673-0.32c0.529-0.849,0.229-1.625-0.932-2.292c-0.629-0.362-0.376-0.945-0.292-1.374
			c0.101-0.515,0.569-0.165,0.845-0.079c1.286,0.402,2.003,1.322,2.149,2.634c0.144,1.289-0.444,2.265-1.518,2.952
			c-0.33,0.21-0.767,0.253-0.636,0.863c0.423,1.97,2.985,3.286,4.79,2.43c0.343-0.162,0.533-0.371,0.532-0.785
			C29.519,30.034,29.522,25.38,29.522,20.656z"/>
		<path fill-rule="evenodd" clip-rule="evenodd" fill="#EC56B4" d="M27.277,9.233c0.08,0.359-0.182,0.449-0.457,0.529
			c-0.459,0.133-0.941,0.216-1.371,0.414c-0.622,0.286-0.941,0.188-1.216-0.491c-0.333-0.822,0.271-0.837,0.711-1.004
			c0.382-0.145,0.782-0.24,1.178-0.34C26.983,8.123,27.303,8.369,27.277,9.233z"/>
		<path fill-rule="evenodd" clip-rule="evenodd" fill="#EC56B4" d="M15.301,27.069c0.142-0.008,0.241-0.044,0.274-0.012
			c0.671,0.66,0.658,1.602,0.908,2.417c0.176,0.575-0.587,0.51-0.931,0.729c-0.234,0.149-0.396,0.043-0.469-0.192
			c-0.235-0.755-0.5-1.505-0.673-2.274C14.206,26.827,15.135,27.415,15.301,27.069z"/>
		<path fill-rule="evenodd" clip-rule="evenodd" fill="#EC56B4" d="M45.266,30.43c0.023,0.244-1.214,2.522-1.385,2.553
			c-0.471,0.086-0.7-0.348-1.051-0.528c-0.329-0.169-0.129-0.401-0.02-0.604c0.305-0.575,0.616-1.146,0.92-1.721
			c0.118-0.225,0.231-0.434,0.538-0.25C44.604,30.079,45.082,30.041,45.266,30.43z"/>
		<path fill-rule="evenodd" clip-rule="evenodd" fill="#EC56B4" d="M39.143,10.703c-0.028,0.591-0.778,1.02-1.335,0.711
			c-0.392-0.217-0.766-0.489-1.185-0.624c-0.78-0.25-0.685-0.7-0.389-1.252c0.143-0.265,0.205-0.61,0.65-0.357
			c0.657,0.374,1.334,0.715,1.998,1.074C39.035,10.336,39.17,10.439,39.143,10.703z"/>
		<path fill-rule="evenodd" clip-rule="evenodd" fill="#EC56B4" d="M42.784,15.662c-0.384,0.082-0.479-0.13-0.604-0.282
			c-0.307-0.371-0.556-0.81-0.921-1.109c-0.666-0.547-0.391-0.902,0.091-1.378c0.662-0.654,0.794,0.108,1.074,0.364
			c0.327,0.298,0.599,0.665,0.852,1.031c0.158,0.229,0.578,0.436,0.314,0.767C43.363,15.338,42.997,15.508,42.784,15.662z"/>
		<path fill-rule="evenodd" clip-rule="evenodd" fill="#EC56B4" d="M19.779,34.48c-0.152,0.435-0.517,0.66-0.808,0.93
			c-0.318,0.293-0.481-0.08-0.647-0.262c-0.348-0.38-0.675-0.778-0.997-1.182c-0.316-0.395-0.723-0.723-0.01-1.224
			c0.657-0.464,0.92-0.221,1.278,0.313C18.937,33.565,19.379,34.005,19.779,34.48z"/>
		<path fill-rule="evenodd" clip-rule="evenodd" fill="#EC56B4" d="M22.25,36.486c0.754,0.412,1.569,0.744,2.228,1.271
			c0.293,0.234-0.158,0.746-0.32,1.104c-0.178,0.396-0.471,0.128-0.694,0.017c-0.583-0.294-1.162-0.598-1.728-0.924
			c-0.206-0.117-0.598-0.21-0.297-0.588C21.684,37.058,21.77,36.594,22.25,36.486z"/>
		<path fill-rule="evenodd" clip-rule="evenodd" fill="#EC56B4" d="M17.91,15.966c-0.433,0.823-0.741,1.607-1.226,2.261
			c-0.299,0.403-0.735-0.102-1.104-0.201c-0.388-0.104-0.302-0.368-0.152-0.642c0.345-0.632,0.676-1.273,1.015-1.909
			c0.131-0.246,0.315-0.373,0.582-0.192C17.347,15.502,17.736,15.652,17.91,15.966z"/>
		<path fill-rule="evenodd" clip-rule="evenodd" fill="#EC56B4" d="M33.275,39.089c-0.039-0.323-0.018-0.559,0.349-0.654
			c0.626-0.166,1.247-0.362,1.863-0.565c0.736-0.244,0.63,0.445,0.83,0.76c0.253,0.394,0.037,0.617-0.371,0.734
			c-0.525,0.15-1.062,0.29-1.559,0.51C33.503,40.261,33.33,39.758,33.275,39.089z"/>
		<path fill-rule="evenodd" clip-rule="evenodd" fill="#EC56B4" d="M45.154,21.045c-0.34,0.079-0.457-0.115-0.542-0.426
			c-0.16-0.593-0.359-1.176-0.545-1.762c-0.219-0.69,0.397-0.669,0.745-0.86c0.413-0.228,0.616-0.033,0.732,0.383
			c0.146,0.526,0.357,1.034,0.5,1.56C46.272,20.783,46.044,21.058,45.154,21.045z"/>
		<path fill-rule="evenodd" clip-rule="evenodd" fill="#EC56B4" d="M21.921,11.724c-0.019,0.267-0.223,0.354-0.378,0.481
			c-0.374,0.306-0.806,0.561-1.11,0.924c-0.538,0.642-0.861,0.301-1.31-0.114c-0.592-0.548-0.063-0.744,0.241-1.014
			c0.386-0.342,0.792-0.663,1.192-0.989c0.211-0.172,0.422-0.388,0.726-0.177C21.607,11.061,21.752,11.413,21.921,11.724z"/>
		<path fill-rule="evenodd" clip-rule="evenodd" fill="#EC56B4" d="M41.735,35.717c-0.534,0.447-1.127,0.871-1.631,1.382
			c-0.676,0.683-1.014,0.296-1.334-0.322c-0.016-0.03-0.041-0.057-0.054-0.089c-0.106-0.269,1.302-1.854,1.82-1.974
			c0.6-0.138,0.744,0.489,1.104,0.758C41.686,35.504,41.689,35.588,41.735,35.717z"/>
		<path fill-rule="evenodd" clip-rule="evenodd" fill="#EC56B4" d="M15.65,22.412c-0.04,0.338-0.125,0.679-0.111,1.016
			c0.031,0.738-0.456,0.665-0.945,0.701c-0.654,0.048-0.62-0.352-0.585-0.782c0.04-0.475,0.044-0.957,0.132-1.422
			c0.076-0.402-0.1-1.028,0.734-0.895c0.676,0.108,0.974,0.386,0.798,1.077c-0.025,0.098-0.022,0.203-0.031,0.306
			C15.645,22.411,15.647,22.411,15.65,22.412z"/>
		<path fill-rule="evenodd" clip-rule="evenodd" fill="#EC56B4" d="M46.478,24.184c0.183,0.855-0.015,1.698-0.119,2.549
			c-0.05,0.399-0.217,0.625-0.581,0.425c-0.323-0.179-1.027,0.174-0.944-0.618c0.019-0.171,0.051-0.343,0.053-0.514
			C44.9,24.997,44.924,23.979,46.478,24.184z"/>
		<path fill-rule="evenodd" clip-rule="evenodd" fill="#EC56B4" d="M29.968,40.303c-0.646-0.024-1.299,0.001-1.936-0.09
			c-0.377-0.056-0.983,0.084-0.81-0.765c0.15-0.73,0.419-0.95,1.096-0.718c0.077,0.28,0.193,0.399,0.413,0.102
			c0.414,0.012,0.827,0.024,1.24,0.036C29.969,39.346,29.969,39.824,29.968,40.303z"/>
		<path fill-rule="evenodd" clip-rule="evenodd" fill="#EC56B4" d="M29.968,40.303c0.001-0.479,0.001-0.957,0.002-1.435
			C30.452,39.348,30.525,39.825,29.968,40.303z"/>
		<path fill-rule="evenodd" clip-rule="evenodd" fill="#EC56B4" d="M28.73,38.832c-0.219,0.298-0.336,0.179-0.413-0.102
			C28.456,38.765,28.593,38.799,28.73,38.832z"/>
		<path fill-rule="evenodd" clip-rule="evenodd" fill="#EC56B4" d="M23.945,44.846c-0.058-0.089-0.117-0.178-0.175-0.268
			C23.829,44.668,23.887,44.757,23.945,44.846z"/>
		<path fill-rule="evenodd" clip-rule="evenodd" fill="#EC56B4" d="M36.787,44.579c-0.057,0.089-0.116,0.178-0.174,0.267
			C36.671,44.757,36.73,44.668,36.787,44.579z"/>
		<path fill-rule="evenodd" clip-rule="evenodd" fill="#EC56B4" d="M23.911,53.953c-0.01-0.051-0.028-0.102-0.027-0.152
			c0-0.015,0.051-0.028,0.079-0.043C23.945,53.823,23.928,53.888,23.911,53.953z"/>
		<path fill-rule="evenodd" clip-rule="evenodd" fill="#EC56B4" d="M36.596,53.758c0.036,0.041,0.077,0.08,0.105,0.125
			c0.005,0.009-0.035,0.046-0.054,0.069C36.63,53.888,36.613,53.822,36.596,53.758z"/>
	</g>
</g>
<g id="Layer_3" display="none">
	<g display="inline">
		<path fill-rule="evenodd" clip-rule="evenodd" fill="#EC56B4" d="M9.438,43.863c-0.042-0.898-0.078-1.685-0.121-2.624
			c-0.856,0-1.651-0.056-2.436,0.015c-1.075,0.096-1.565-0.232-1.458-1.4c0.095-1.035,0.02-2.087,0.02-3.184
			c-1.065-0.063-1.96-0.116-2.855-0.169c-0.018-0.172-0.037-0.344-0.055-0.516c0.895-0.108,1.79-0.216,2.908-0.351
			c0-1.106,0.022-2.27-0.008-3.431c-0.02-0.751,0.254-1.077,1.037-1.033c0.917,0.05,1.839,0.011,2.771,0.011
			c0.463-1.18-0.779-3.51,2.181-2.664c0-0.628,0-1.078,0-1.526c0-5.201-0.005-10.401,0.001-15.601
			c0.003-2.46,1.097-3.545,3.557-3.545c7.61-0.002,15.22-0.016,22.831,0.028c0.603,0.003,1.333,0.271,1.782,0.667
			c3.235,2.849,6.431,5.745,9.587,8.68c0.362,0.337,0.572,1.008,0.58,1.528c0.053,3.163,0.026,6.327,0.026,9.338
			c0.776,0.313,1.681,0.401,1.981,0.874c0.322,0.503,0.073,1.37,0.073,2.225c1.136,0,2.096,0.027,3.054-0.011
			c0.703-0.027,0.99,0.225,0.964,0.949c-0.042,1.173-0.012,2.347-0.012,3.507c1.028,0.129,1.928,0.241,2.827,0.353
			c-0.019,0.171-0.036,0.34-0.054,0.509c-0.854,0.054-1.706,0.108-2.722,0.172c0,1.458,0,2.909,0,4.554c-1.402,0-2.644,0-3.958,0
			c-0.05,0.973-0.09,1.758-0.134,2.619c-0.675,0.067-1.283,0.128-2.021,0.203c0,2.241,0.003,4.427,0,6.614
			c-0.005,2.582-1.042,3.649-3.573,3.649c-10.442,0.006-20.886,0.007-31.329,0.001c-2.362-0.001-3.455-1.118-3.459-3.511
			c-0.005-2.229-0.001-4.459-0.001-6.76C10.723,43.974,10.148,43.925,9.438,43.863z M34.762,35.626
			c1.165,0.448,1.502-0.286,1.97-0.896c0.608-0.791,1.37-1.479,2.464-1.215c1.018,0.247,0.917,1.172,0.951,1.972
			c0.003,0.067,0.078,0.131,0.123,0.195c0.947,0,1.896,0,2.821,0c0-2.255,0-4.425,0-6.834c-1.771,0-3.435,0-5.101,0
			c-0.005-0.178-0.012-0.355-0.017-0.533c1.684-0.424,3.481,0.069,5.238-0.276c-0.03-0.651-0.056-1.219-0.092-2.023
			c-3.194,0-6.257,0-9.319,0c-0.011-0.154-0.02-0.309-0.029-0.463c0.448-0.071,0.897-0.201,1.346-0.201
			c3.592-0.001,7.186,0.029,10.777,0.038c2.532,0.006,2.041-0.097,2.096,2.107c0.006,0.286,0.054,0.571,0.082,0.856
			c0.124,0.053,0.249,0.106,0.373,0.159c0.175-0.322,0.489-0.64,0.501-0.968c0.053-1.52,0.022-3.043,0.022-4.564
			c-0.001-1.501,0-3.003,0-4.427c-0.263-0.107-0.34-0.167-0.416-0.167c-2.197-0.018-4.395-0.033-6.592-0.042
			c-2.914-0.013-3.689-0.78-3.688-3.656c0.001-1.97,0-3.94,0-5.877c-0.313-0.072-0.433-0.123-0.553-0.124
			c-7.693-0.006-15.386-0.021-23.079,0c-1.568,0.004-2.384,0.893-2.399,2.486c-0.021,2.24-0.007,4.48-0.007,6.721
			c0,3.17,0.002,6.341,0.006,9.511c0.001,0.586-0.101,1.296,0.812,0.888c0.164-0.973,0.013-2.289,0.556-2.711
			c0.617-0.48,1.855-0.164,2.824-0.192c0.169-0.005,0.34,0.015,0.507-0.003c0.847-0.093,1.106,0.315,1.09,1.117
			c-0.038,1.901-0.015,3.804-0.017,5.707c0,1.163,0,2.325,0,3.477c1.452,0,2.699,0,4.052,0c0-0.833-0.017-1.586,0.003-2.337
			c0.033-1.275,0.646-1.979,1.878-1.802c1.029,0.148,2.002,0.257,3.009-0.03c0.188-0.053,0.416,0.049,0.625,0.056
			c0.546,0.016,1.093,0.024,1.639,0.023c0.419,0,0.838-0.028,1.257-0.031c0.585-0.004,1.191,0.104,1.752-0.015
			c1.52-0.318,2.482,0.38,2.527,1.95C34.779,34.214,34.762,34.926,34.762,35.626z M18.015,36.661c0,2.708,0.003,5.285-0.001,7.861
			c-0.003,2.442-0.006,2.442-2.497,2.442c-2.209,0-2.194-0.002-2.318-2.138c-0.018-0.296-0.279-0.578-0.428-0.867
			c-0.179,0.307-0.504,0.61-0.512,0.92c-0.046,1.902-0.02,3.806-0.019,5.709c0,2.153,0.72,2.878,2.9,2.879
			c6.131,0.006,12.262,0.004,18.393,0.004c4.271,0,8.542,0.011,12.813-0.008c1.688-0.007,2.587-0.778,2.613-2.262
			c0.039-2.156,0.027-4.313-0.016-6.469c-0.005-0.261-0.339-0.515-0.52-0.771c-0.146,0.246-0.401,0.483-0.423,0.74
			c-0.2,2.259-0.188,2.259-2.44,2.262c-0.381,0-0.765-0.028-1.142,0.014c-0.924,0.103-1.279-0.24-1.243-1.212
			c0.069-1.814,0.02-3.635,0.02-5.453c0-1.207,0-2.415,0-3.726c-0.988,0-1.795-0.076-2.575,0.031
			c-0.414,0.057-0.9,0.348-1.151,0.685c-1.134,1.519-2.286,3.038-3.258,4.661c-1.31,2.185-2.85,4.358-2.033,7.164
			c0.223,0.76,0.003,1.113-0.827,1.108c-2.79-0.017-5.582,0.021-8.371-0.043c-0.319-0.008-0.839-0.488-0.905-0.819
			c-0.822-4.191-1.578-8.396-2.373-12.714C20.673,36.661,19.427,36.661,18.015,36.661z M23.012,40.061
			c0.72,3.091,1.431,6.138,2.148,9.218c2.616,0,5.331,0,8.129,0c-0.697-3.718,1.165-6.41,3.181-9.064
			c0.822-1.086,1.555-2.239,2.397-3.46c-2.051-0.314-3.435,0.387-4.164,2.06c-0.463,1.063-1.259,1.263-2.261,1.172
			c-1.364-0.123-2.73-0.358-4.092-0.339C26.619,39.672,24.891,39.905,23.012,40.061z M47.104,46.106c0-6.625,0-13.15,0-19.763
			c-1.012,0-1.958,0-2.987,0c0,6.595,0,13.154,0,19.763C45.111,46.106,46.03,46.106,47.104,46.106z M14.143,26.347
			c0,6.635,0,13.185,0,19.715c1.058,0,2.004,0,2.956,0c0-6.622,0-13.15,0-19.715C16.074,26.347,15.126,26.347,14.143,26.347z
			 M13.147,43.094c0-4.649,0-9.178,0-13.729c-1.013,0-1.949,0-2.856,0c0,4.64,0,9.17,0,13.729
			C11.268,43.094,12.147,43.094,13.147,43.094z M50.93,43.067c0-4.642,0-9.17,0-13.739c-1.01,0-1.918,0-2.881,0
			c0,4.609,0,9.145,0,13.739C49.024,43.067,49.935,43.067,50.93,43.067z M39.113,9.28c0,2.351-0.006,4.328,0.002,6.306
			c0.003,0.962,0.493,1.781,1.403,1.826c2.446,0.121,4.902,0.041,7.649,0.041C45.067,14.655,42.21,12.075,39.113,9.28z
			 M9.299,40.296c0-2.797,0-5.476,0-8.201c-1.013,0-1.951,0-2.917,0c0,2.776,0,5.457,0,8.201
			C7.362,40.296,8.274,40.296,9.299,40.296z M54.937,32.085c-1.069,0-1.978,0-2.89,0c0,2.795,0,5.501,0,8.191
			c1.023,0,1.932,0,2.89,0C54.937,37.521,54.937,34.845,54.937,32.085z M31.776,35.749c0.004,0,0.007,0,0.009,0
			c0,0.842-0.11,1.706,0.053,2.516c0.07,0.344,0.702,0.763,1.104,0.791c0.299,0.021,0.896-0.516,0.917-0.831
			c0.097-1.595,0.044-3.197,0.053-4.797c0.005-0.747-0.374-1.056-1.096-1.061c-0.764-0.005-1.047,0.4-1.04,1.106
			C31.782,34.231,31.776,34.989,31.776,35.749z M28.898,35.695c0,0.8,0.013,1.6-0.003,2.399c-0.013,0.653,0.211,1.034,0.937,1.038
			c0.72,0.003,1.124-0.287,1.127-1.031c0.004-1.558-0.004-3.115,0.002-4.673c0.003-0.758-0.433-1.167-1.104-0.986
			c-0.38,0.101-0.84,0.599-0.918,0.987C28.792,34.158,28.896,34.937,28.898,35.695z M27.937,35.807c0-0.803,0.103-1.623-0.043-2.398
			c-0.073-0.391-0.545-0.896-0.927-0.995c-0.679-0.171-1.078,0.244-1.065,1.015c0.025,1.562,0.023,3.126,0.001,4.688
			c-0.01,0.791,0.393,1.017,1.109,1.009c0.728-0.007,0.953-0.368,0.93-1.036C27.915,37.329,27.935,36.567,27.937,35.807z
			 M24.95,35.771c0-0.801,0.106-1.622-0.045-2.394c-0.075-0.382-0.628-0.934-0.958-0.93c-0.362,0.006-1,0.545-1.023,0.885
			c-0.108,1.595-0.105,3.206,0.002,4.801c0.024,0.35,0.591,0.835,0.993,0.943c0.743,0.201,1.045-0.311,1.033-1.029
			C24.94,37.29,24.949,36.531,24.95,35.771z M37.142,35.455c0.048,0.084,0.095,0.167,0.142,0.251c0.612,0,1.224,0,1.997,0
			c-0.069-0.53-0.128-0.976-0.229-1.756C38.251,34.581,37.696,35.019,37.142,35.455z"/>
		<path fill-rule="evenodd" clip-rule="evenodd" fill="#EC56B4" d="M16.219,16.441c1.222-0.947,10.485-0.885,11.351,0
			C23.783,16.441,20.17,16.441,16.219,16.441z"/>
		<path fill-rule="evenodd" clip-rule="evenodd" fill="#EC56B4" d="M16.412,13.571c0.855-0.866,10.211-0.88,11.155,0
			C23.79,13.571,20.199,13.571,16.412,13.571z"/>
		<path fill-rule="evenodd" clip-rule="evenodd" fill="#EC56B4" d="M33.823,22.707c3.593,0,7.186,0,10.778,0
			c0.036,0.077,0.074,0.155,0.11,0.232c-0.265,0.136-0.53,0.388-0.796,0.39c-3.158,0.025-6.317,0.019-9.477,0.001
			c-0.215-0.001-0.43-0.157-0.645-0.241C33.804,22.962,33.814,22.834,33.823,22.707z"/>
		<path fill-rule="evenodd" clip-rule="evenodd" fill="#EC56B4" d="M23.32,19.017c-0.987,0.64-5.924,0.625-6.766,0.047
			C17.291,18.461,22.159,18.384,23.32,19.017z"/>
	</g>
</g>
<g id="Layer_4">
	<g>
		<path fill-rule="evenodd" clip-rule="evenodd" fill="#EC56B4" d="M29.94,5.796C42.143,5.66,51.718,18.37,47.269,29.953
			c-3.707,9.652-9.612,17.824-16.133,25.655c-0.787,0.945-1.619,1.01-2.445,0.098c-7.088-7.813-13.558-16.048-16.561-26.388
			C8.654,17.35,17.497,5.769,29.94,5.796z M29.826,40.377c8.888,0.01,16.086-7.056,16.173-15.874
			c0.087-8.913-7.154-16.215-16.085-16.222c-8.989-0.005-16.322,7.182-16.189,16.09C13.856,33.24,20.67,40.442,29.826,40.377z"/>
		<path fill-rule="evenodd" clip-rule="evenodd" fill="#EC56B4" d="M28.218,32.024c-0.885-1.788-0.764-3.758-0.959-5.656
			c-0.422-4.08-0.778-8.169-1.054-12.261c-0.153-2.251,1.624-4.024,3.812-4.032c1.84-0.006,3.612,1.916,3.519,4
			c-0.23,5.145-0.544,10.287-0.81,15.431c-0.047,0.897-0.207,1.751-0.646,2.542c-0.333,0.184-0.665,0.366-0.997,0.55
			C30.107,32.508,29.055,32.802,28.218,32.024z"/>
		<path fill-rule="evenodd" clip-rule="evenodd" fill="#EC56B4" d="M31.556,33.434c0.442,0.356,0.883,0.714,1.325,1.071
			c0.447,3.166-0.505,4.349-3.15,3.886c-1.885-0.329-1.978-1.759-1.95-3.249C28.626,33.66,29.901,33.13,31.556,33.434z"/>
	</g>
</g>
</svg>
