<svg xmlns="http://www.w3.org/2000/svg" width="234" height="71" viewBox="0 0 234 71">
    <g fill="none" fill-rule="nonzero">
        <rect width="233" height="70" x=".5" y=".5" fill="#FFF" fill-opacity=".671" stroke="#0D141E" stroke-opacity=".228" rx="35"/>
        <g fill="#0D141E">
            <path d="M89.43 45.08h-7.41l-1.778 5.238h-3.138l7.017-19.377h3.26L94.4 50.318h-3.192l-1.777-5.237zm-6.642-2.416h5.873l-2.895-8.5h-.081l-2.897 8.5zm26.766.591c0 4.39-2.357 7.21-5.914 7.21a4.807 4.807 0 0 1-4.458-2.47h-.068v6.997h-2.908V36.19h2.815v2.35h.054a5.03 5.03 0 0 1 4.512-2.498c3.596 0 5.967 2.835 5.967 7.213zm-2.99 0c0-2.86-1.482-4.74-3.744-4.74-2.223 0-3.718 1.92-3.718 4.74 0 2.847 1.495 4.753 3.718 4.753 2.262 0 3.744-1.867 3.744-4.753zm18.587 0c0 4.39-2.357 7.21-5.913 7.21a4.807 4.807 0 0 1-4.46-2.47h-.066v6.997h-2.91V36.19h2.816v2.35h.054a5.03 5.03 0 0 1 4.512-2.497c3.597 0 5.967 2.834 5.967 7.212zm-2.99 0c0-2.86-1.482-4.74-3.744-4.74-2.223 0-3.718 1.92-3.718 4.74 0 2.847 1.495 4.753 3.718 4.753 2.262 0 3.745-1.867 3.745-4.753zm13.299 1.664c.215 1.922 2.088 3.183 4.647 3.183 2.451 0 4.215-1.261 4.215-2.994 0-1.504-1.064-2.405-3.583-3.022l-2.519-.605c-3.569-.86-5.226-2.523-5.226-5.224 0-3.343 2.923-5.64 7.073-5.64 4.107 0 6.923 2.297 7.017 5.64h-2.936c-.176-1.934-1.78-3.1-4.122-3.1-2.344 0-3.947 1.18-3.947 2.9 0 1.37 1.024 2.175 3.53 2.792l2.14.525c3.989.94 5.646 2.537 5.646 5.371 0 3.625-2.897 5.896-7.504 5.896-4.31 0-7.22-2.217-7.409-5.722h2.978zm18.212-12.072v3.343h2.695v2.297h-2.695v7.788c0 1.21.54 1.774 1.725 1.774.32-.006.639-.028.956-.067v2.283c-.532.099-1.074.144-1.615.134-2.87 0-3.988-1.075-3.988-3.814v-8.098h-2.06V36.19h2.06v-3.343h2.922zm4.256 10.408c0-4.445 2.626-7.238 6.72-7.238 4.11 0 6.723 2.793 6.723 7.238 0 4.457-2.6 7.238-6.722 7.238-4.121 0-6.721-2.78-6.721-7.238zm10.48 0c0-3.05-1.402-4.849-3.76-4.849-2.356 0-3.756 1.813-3.756 4.849 0 3.061 1.4 4.847 3.757 4.847s3.758-1.786 3.758-4.847zm5.361-7.065h2.775v2.405h.067a3.378 3.378 0 0 1 3.409-2.553 4.5 4.5 0 0 1 .996.109v2.712a4.078 4.078 0 0 0-1.307-.175 2.936 2.936 0 0 0-2.265.93 2.916 2.916 0 0 0-.766 2.32v8.38h-2.909V36.19zm20.659 9.979c-.392 2.564-2.897 4.324-6.102 4.324-4.123 0-6.682-2.753-6.682-7.171 0-4.431 2.573-7.305 6.56-7.305 3.92 0 6.386 2.685 6.386 6.968v.994h-10.01v.175a3.673 3.673 0 0 0 1.001 2.859 3.697 3.697 0 0 0 2.812 1.143 3.207 3.207 0 0 0 3.273-1.987h2.762zm-9.833-4.217h7.084a3.392 3.392 0 0 0-.952-2.55 3.413 3.413 0 0 0-2.524-1.036 3.593 3.593 0 0 0-2.553 1.044 3.571 3.571 0 0 0-1.055 2.542zM82.424 16.355a4.138 4.138 0 0 1 3.295 1.276 4.111 4.111 0 0 1 1.1 3.35c0 2.975-1.613 4.685-4.395 4.685H79.05v-9.311h3.374zM80.5 24.349h1.76a2.94 2.94 0 0 0 2.34-.944c.597-.65.87-1.533.74-2.405a2.93 2.93 0 0 0-.752-2.388 2.949 2.949 0 0 0-2.327-.941H80.5v6.678zm7.956-2.2a3.326 3.326 0 0 1 1.563-3.145 3.348 3.348 0 0 1 3.521 0 3.326 3.326 0 0 1 1.563 3.145 3.326 3.326 0 0 1-1.561 3.151 3.348 3.348 0 0 1-3.525 0 3.326 3.326 0 0 1-1.561-3.15zm5.217 0c0-1.523-.687-2.413-1.891-2.413-1.21 0-1.89.89-1.89 2.413 0 1.536.68 2.42 1.89 2.42 1.204 0 1.89-.89 1.89-2.42zm10.267 3.517h-1.443l-1.457-5.175h-.11l-1.45 5.175h-1.43l-1.942-7.027h1.41l1.263 5.362h.104l1.449-5.362h1.334l1.45 5.362h.11l1.256-5.362h1.39l-1.934 7.027zm3.569-7.027h1.339v1.116h.104a2.11 2.11 0 0 1 2.103-1.251 2.296 2.296 0 0 1 1.85.722 2.28 2.28 0 0 1 .59 1.891v4.549h-1.391v-4.2c0-1.13-.493-1.692-1.521-1.692a1.62 1.62 0 0 0-1.252.505c-.324.342-.481.808-.431 1.276v4.11h-1.391V18.64zm8.202-2.743h1.39v9.77h-1.39v-9.77zm3.325 6.253a3.326 3.326 0 0 1 1.563-3.145 3.348 3.348 0 0 1 3.521 0 3.326 3.326 0 0 1 1.564 3.145 3.326 3.326 0 0 1-1.562 3.151 3.349 3.349 0 0 1-3.525 0 3.326 3.326 0 0 1-1.561-3.15zm5.216 0c0-1.523-.686-2.413-1.89-2.413-1.21 0-1.89.89-1.89 2.413 0 1.536.68 2.42 1.89 2.42 1.204 0 1.89-.89 1.89-2.42zm2.896 1.53c0-1.265.945-1.994 2.622-2.098l1.909-.11v-.606c0-.742-.492-1.161-1.443-1.161-.777 0-1.315.284-1.469.78h-1.347c.142-1.206 1.281-1.98 2.88-1.98 1.767 0 2.764.877 2.764 2.36v4.802h-1.34v-.988h-.11a2.373 2.373 0 0 1-2.116 1.104 2.133 2.133 0 0 1-1.643-.532 2.12 2.12 0 0 1-.707-1.571zm4.53-.6v-.588l-1.72.11c-.97.064-1.411.393-1.411 1.013 0 .632.55 1 1.307 1 .448.045.895-.093 1.239-.382.344-.29.555-.706.586-1.154zm3.214-.93c0-2.22 1.145-3.626 2.925-3.626.9-.042 1.742.439 2.162 1.232h.104v-3.859h1.39v9.77h-1.332v-1.11h-.11a2.448 2.448 0 0 1-2.214 1.226c-1.793 0-2.925-1.407-2.925-3.633zm1.437 0c0 1.49.704 2.388 1.883 2.388 1.172 0 1.897-.91 1.897-2.381 0-1.465-.732-2.388-1.897-2.388-1.171 0-1.883.903-1.883 2.381zm10.9 0a3.326 3.326 0 0 1 1.563-3.145 3.348 3.348 0 0 1 3.52 0 3.326 3.326 0 0 1 1.564 3.145 3.326 3.326 0 0 1-1.561 3.151 3.348 3.348 0 0 1-3.525 0 3.326 3.326 0 0 1-1.561-3.15zm5.216 0c0-1.523-.686-2.413-1.89-2.413-1.21 0-1.89.89-1.89 2.413 0 1.536.68 2.42 1.89 2.42 1.204 0 1.89-.89 1.89-2.42zm3.297-3.51h1.34v1.116h.103a2.11 2.11 0 0 1 2.104-1.251 2.296 2.296 0 0 1 1.85.722 2.28 2.28 0 0 1 .59 1.891v4.549h-1.392v-4.2c0-1.13-.492-1.692-1.52-1.692a1.62 1.62 0 0 0-1.253.505c-.323.342-.48.808-.43 1.276v4.11h-1.392V18.64zm13.846-1.75v1.782h1.527v1.168h-1.527v3.613c0 .736.304 1.059.997 1.059.177 0 .354-.012.53-.032v1.155c-.25.044-.503.068-.757.07-1.547 0-2.163-.542-2.163-1.897V19.84h-1.118v-1.168h1.118V16.89h1.393zm3.427-.993h1.379v3.872h.11a2.17 2.17 0 0 1 2.149-1.258 2.325 2.325 0 0 1 1.831.74 2.31 2.31 0 0 1 .596 1.88v4.536h-1.392V21.47c0-1.122-.525-1.69-1.507-1.69a1.65 1.65 0 0 0-1.303.479c-.342.343-.515.82-.472 1.302v4.104h-1.391v-9.77zm14.176 7.873a2.861 2.861 0 0 1-3.054 2.032 3.206 3.206 0 0 1-2.47-1.062 3.185 3.185 0 0 1-.786-2.564 3.234 3.234 0 0 1 .784-2.575 3.255 3.255 0 0 1 2.465-1.096c1.962 0 3.145 1.335 3.145 3.542v.484h-4.977v.077a1.854 1.854 0 0 0 .492 1.42c.357.384.86.6 1.385.593a1.69 1.69 0 0 0 1.677-.852h1.339zm-4.893-2.265h3.56a1.692 1.692 0 0 0-.464-1.293 1.703 1.703 0 0 0-1.271-.527 1.805 1.805 0 0 0-1.298.526c-.343.343-.534.81-.527 1.294zM61.986 34.409a7.718 7.718 0 0 1 3.689-6.48 7.935 7.935 0 0 0-6.247-3.366c-2.629-.275-5.177 1.568-6.516 1.568-1.366 0-3.428-1.54-5.648-1.495a8.323 8.323 0 0 0-7.001 4.256c-3.028 5.225-.77 12.904 2.13 17.128 1.45 2.068 3.146 4.378 5.365 4.296 2.171-.09 2.982-1.38 5.603-1.38 2.596 0 3.357 1.38 5.62 1.328 2.33-.038 3.798-2.077 5.198-4.165a17.084 17.084 0 0 0 2.376-4.826 7.462 7.462 0 0 1-4.569-6.864zM57.71 21.785a7.588 7.588 0 0 0 1.745-5.447 7.767 7.767 0 0 0-5.02 2.59 7.22 7.22 0 0 0-1.79 5.245 6.424 6.424 0 0 0 5.065-2.388z"/>
        </g>
    </g>
</svg>
