<svg 
 xmlns="http://www.w3.org/2000/svg"
 xmlns:xlink="http://www.w3.org/1999/xlink"
 width="28px" height="35px">
<path fill-rule="evenodd"  fill="rgb(255, 255, 255)"
 d="M25.989,11.904 C26.838,12.486 27.698,13.075 27.698,14.025 C27.698,14.974 26.838,15.564 25.989,16.146 C25.486,16.490 24.989,16.830 24.929,17.050 C24.867,17.276 25.137,17.832 25.406,18.385 C25.845,19.290 26.283,20.191 25.827,20.974 C25.370,21.759 24.367,21.811 23.366,21.863 C22.769,21.894 22.172,21.925 22.020,22.078 C21.868,22.231 21.838,22.831 21.807,23.432 C21.755,24.439 21.703,25.449 20.923,25.909 C20.145,26.368 19.250,25.928 18.350,25.485 C17.801,25.215 17.248,24.943 17.024,25.005 C16.806,25.066 16.467,25.566 16.125,26.072 C15.547,26.926 14.961,27.792 14.018,27.792 C13.074,27.792 12.488,26.926 11.910,26.071 C11.568,25.566 11.230,25.066 11.011,25.005 C10.787,24.943 10.234,25.215 9.685,25.485 C8.785,25.928 7.890,26.368 7.112,25.909 C6.332,25.449 6.280,24.440 6.228,23.432 C6.198,22.831 6.167,22.231 6.015,22.078 C5.863,21.925 5.267,21.894 4.669,21.863 C3.668,21.811 2.665,21.759 2.208,20.974 C1.752,20.191 2.190,19.290 2.629,18.385 C2.898,17.832 3.168,17.276 3.106,17.050 C3.046,16.830 2.549,16.490 2.046,16.145 C1.197,15.564 0.337,14.974 0.337,14.025 C0.337,13.075 1.197,12.486 2.047,11.904 C2.549,11.559 3.046,11.219 3.106,10.999 C3.168,10.774 2.898,10.218 2.629,9.665 C2.190,8.759 1.752,7.859 2.208,7.076 C2.665,6.291 3.668,6.238 4.669,6.186 C5.266,6.155 5.863,6.124 6.015,5.971 C6.167,5.818 6.198,5.218 6.228,4.617 C6.280,3.610 6.332,2.600 7.112,2.140 C7.890,1.682 8.785,2.122 9.685,2.564 C10.234,2.835 10.787,3.106 11.011,3.044 C11.230,2.984 11.568,2.484 11.910,1.978 C12.488,1.123 13.074,0.257 14.018,0.257 C14.961,0.257 15.547,1.123 16.125,1.978 C16.467,2.484 16.806,2.984 17.024,3.044 C17.248,3.106 17.801,2.835 18.350,2.564 C19.250,2.122 20.145,1.682 20.923,2.140 C21.703,2.600 21.755,3.610 21.807,4.617 C21.837,5.218 21.868,5.818 22.020,5.971 C22.172,6.124 22.769,6.155 23.366,6.186 C24.367,6.238 25.370,6.291 25.827,7.076 C26.283,7.859 25.845,8.759 25.406,9.665 C25.137,10.218 24.867,10.774 24.929,10.999 C24.989,11.219 25.486,11.560 25.989,11.904 ZM20.657,7.343 C18.958,5.633 16.610,4.575 14.018,4.575 C11.425,4.575 9.077,5.633 7.378,7.343 C5.679,9.053 4.627,11.415 4.627,14.025 C4.627,16.634 5.679,18.996 7.378,20.706 C9.077,22.416 11.425,23.474 14.018,23.474 C16.610,23.474 18.958,22.416 20.657,20.706 C22.357,18.996 23.408,16.634 23.408,14.025 C23.408,11.415 22.357,9.053 20.657,7.343 ZM19.690,19.733 C18.238,21.194 16.233,22.097 14.018,22.097 C11.802,22.097 9.797,21.194 8.345,19.733 C6.894,18.272 5.996,16.254 5.996,14.025 C5.996,11.795 6.894,9.777 8.345,8.316 C9.797,6.856 11.802,5.952 14.018,5.952 C16.233,5.952 18.238,6.856 19.690,8.316 C21.142,9.777 22.039,11.795 22.039,14.025 C22.039,16.254 21.142,18.272 19.690,19.733 ZM19.228,10.874 C18.961,10.605 18.528,10.605 18.261,10.874 L12.540,16.631 L9.774,13.847 C9.507,13.578 9.074,13.578 8.807,13.847 C8.540,14.116 8.540,14.551 8.807,14.820 L12.053,18.087 L12.057,18.091 C12.324,18.360 12.757,18.360 13.024,18.091 L13.024,18.091 L19.228,11.847 C19.495,11.578 19.495,11.142 19.228,10.874 ZM0.877,29.325 L4.825,22.559 C5.026,22.568 5.295,22.583 5.484,22.612 C5.525,22.874 5.536,23.291 5.545,23.468 C5.603,24.598 5.682,25.863 6.767,26.503 C7.848,27.140 8.977,26.599 9.985,26.104 C10.151,26.022 10.563,25.808 10.818,25.720 C10.994,25.922 11.241,26.306 11.345,26.459 C11.579,26.806 11.825,27.166 12.104,27.484 L8.456,33.735 C8.390,33.875 8.276,33.994 8.125,34.064 C7.782,34.224 7.375,34.073 7.217,33.728 L7.838,33.439 L7.218,33.727 L5.519,30.022 L1.543,30.356 C1.401,30.373 1.251,30.344 1.118,30.265 C0.792,30.073 0.683,29.651 0.874,29.323 L0.877,29.325 ZM17.217,25.720 C17.472,25.808 17.884,26.022 18.050,26.104 C19.058,26.599 20.187,27.140 21.269,26.503 C22.353,25.863 22.432,24.598 22.490,23.468 C22.499,23.291 22.510,22.874 22.551,22.612 C22.740,22.583 23.009,22.568 23.210,22.559 L27.159,29.325 L27.161,29.323 C27.352,29.651 27.243,30.073 26.917,30.265 C26.784,30.344 26.635,30.373 26.492,30.356 L22.517,30.022 L20.817,33.727 L20.197,33.439 L20.818,33.728 C20.660,34.073 20.253,34.224 19.910,34.064 C19.759,33.994 19.645,33.875 19.579,33.735 L15.931,27.484 C16.210,27.166 16.456,26.806 16.690,26.459 C16.794,26.306 17.041,25.922 17.217,25.720 Z"/>
</svg>