<svg xmlns="http://www.w3.org/2000/svg" viewBox="0 0 113.4 113.4">
  <title>
    type-cent.svg
  </title>
  <path d="M56.7 0A56.7 56.7 0 1 1 0 56.7 56.72 56.72 0 0 1 56.7 0z" fill="#65a33e"/>
  <path d="M53.9 87.3S64.5 98.3 76 110a56.95 56.95 0 0 0 33.6-32.8L61.2 28.8 43 63.8l-.1 10.8 10.9 11 .1 1.7z" fill="#467828"/>
  <path d="M77.1 63.1c-1.3 9.4-6.6 14.9-15.9 16.6v7.7h-7.3v-7.7a19.358 19.358 0 0 1-15.8-12.1 25.6 25.6 0 0 1-1.9-10.1c0-6.4 1.6-11.6 4.9-15.6A17.7 17.7 0 0 1 54 35.2V29h7.3v6.2c9.2 1.3 14.5 6.8 16.1 16.5l-11.9.7q-1.05-8.1-7.5-8.1c-5.5 0-8.2 4.6-8.2 13.8a16.14 16.14 0 0 0 2.1 8.8 6.81 6.81 0 0 0 6.2 3.3c4.5 0 6.9-2.6 7.5-7.9l11.5.8z" fill="#fff"/>
</svg>
