<?xml version="1.0" encoding="utf-8"?>
<!-- Generator: Adobe Illustrator 16.0.0, SVG Export Plug-In . SVG Version: 6.00 Build 0)  -->
<!DOCTYPE svg PUBLIC "-//W3C//DTD SVG 1.1//EN" "http://www.w3.org/Graphics/SVG/1.1/DTD/svg11.dtd">
<svg version="1.1" id="Layer_1" xmlns="http://www.w3.org/2000/svg" xmlns:xlink="http://www.w3.org/1999/xlink" x="0px" y="0px"
	 width="960px" height="560px" viewBox="0 0 960 560" enable-background="new 0 0 960 560" xml:space="preserve">
<title>Vector Smart Object5</title>
<linearGradient id="SVGID_1_" gradientUnits="userSpaceOnUse" x1="473.4819" y1="297.8105" x2="513.7832" y2="297.8105">
	<stop  offset="0" style="stop-color:#E2318F"/>
	<stop  offset="1" style="stop-color:#4285F4"/>
</linearGradient>
<path fill="url(#SVGID_1_)" d="M477.705,300.197L477.705,300.197l16.065,15.698l15.515-15.606c1.073-1.066,2-2.27,2.754-3.581
	c0.866-1.604,1.455-3.341,1.744-5.141c-8.567-7.636-19.645-11.851-31.121-11.843c-3.083-0.009-6.16,0.298-9.18,0.918v7.986
	c-0.016,2.652,0.614,5.268,1.836,7.62C475.929,297.668,476.731,298.997,477.705,300.197z"/>
<linearGradient id="SVGID_2_" gradientUnits="userSpaceOnUse" x1="499.9209" y1="324.8926" x2="529.123" y2="324.8926">
	<stop  offset="0" style="stop-color:#E2318F"/>
	<stop  offset="1" style="stop-color:#4285F4"/>
</linearGradient>
<path fill="url(#SVGID_2_)" d="M520.485,299.555c-0.624,1.345-1.361,2.635-2.203,3.855c-0.871,1.195-1.822,2.33-2.847,3.396l0,0
	l-15.515,15.515l15.606,15.606c1.051,1.043,2.004,2.18,2.847,3.396c1.991,2.734,3.369,5.865,4.039,9.181
	c9.571-15.937,8.853-36.017-1.836-51.226L520.485,299.555z"/>
<linearGradient id="SVGID_3_" gradientUnits="userSpaceOnUse" x1="435.3745" y1="326.5898" x2="486.7012" y2="326.5898">
	<stop  offset="0" style="stop-color:#E2318F"/>
	<stop  offset="1" style="stop-color:#4285F4"/>
</linearGradient>
<path fill="url(#SVGID_3_)" d="M471.095,306.807c-1.253-1.215-2.361-2.57-3.305-4.039c-2.805-4.178-4.277-9.107-4.223-14.139v-5.049
	c-23.754,10.345-34.624,37.987-24.279,61.741c4.734,10.87,13.409,19.545,24.279,24.278v-13.403
	c-0.056-5.06,1.416-10.019,4.223-14.229c0.997-1.4,2.102-2.72,3.305-3.947l15.606-15.698L471.095,306.807z"/>
<linearGradient id="SVGID_4_" gradientUnits="userSpaceOnUse" x1="473.2983" y1="351.1475" x2="513.5996" y2="351.1475">
	<stop  offset="0" style="stop-color:#E2318F"/>
	<stop  offset="1" style="stop-color:#4285F4"/>
</linearGradient>
<path fill="url(#SVGID_4_)" d="M508.826,344.354l-15.056-15.516l-15.606,15.607c-1.244,1.153-2.271,2.521-3.029,4.039
	c-1.229,2.384-1.859,5.03-1.836,7.711v16.25c3.017,0.65,6.093,0.988,9.18,1.01c7.654-0.016,15.188-1.906,21.941-5.509
	c3.326-1.807,6.411-4.028,9.18-6.609v-5.142c0.019-2.89-0.708-5.735-2.111-8.262C510.74,346.644,509.847,345.442,508.826,344.354z"
	/>
<linearGradient id="SVGID_5_" gradientUnits="userSpaceOnUse" x1="278.3999" y1="280" x2="688.8555" y2="280">
	<stop  offset="0" style="stop-color:#E2318F"/>
	<stop  offset="1" style="stop-color:#4285F4"/>
</linearGradient>
<path fill="url(#SVGID_5_)" d="M688.853,555.41H327.606c-27.541,0-49.207-25.98-49.207-57.928V62.518
	c0-31.948,22.583-57.928,49.207-57.928h353.718c4.158-0.002,7.529,3.367,7.531,7.525c0.002,4.157-3.367,7.529-7.525,7.531
	c-0.002,0-0.004,0-0.006,0H327.606c-18.819,0-34.151,19.187-34.151,42.872s15.332,42.78,34.151,42.78h361.246V555.41z
	 M293.456,104.105v393.377c0,23.685,15.332,42.872,34.151,42.872h346.19v-420h-346.19
	C314.417,120.097,301.976,114.177,293.456,104.105z"/>
<linearGradient id="SVGID_6_" gradientUnits="userSpaceOnUse" x1="318.9058" y1="62.541" x2="682.0635" y2="62.541">
	<stop  offset="0" style="stop-color:#E2318F"/>
	<stop  offset="1" style="stop-color:#4285F4"/>
</linearGradient>
<path fill="url(#SVGID_6_)" d="M673.705,69.954H327.606c-4.107,0.647-7.961-2.157-8.608-6.264c-0.647-4.107,2.157-7.96,6.264-8.608
	c0.777-0.123,1.568-0.123,2.344,0h346.099c4.132-0.458,7.854,2.52,8.312,6.652c0.459,4.132-2.52,7.854-6.651,8.312
	c-0.552,0.061-1.108,0.061-1.66,0V69.954z"/>
</svg>
