<svg xmlns="http://www.w3.org/2000/svg" viewBox="0 0 113.4 113.4">
  <title>
    type-standard
  </title>
  <path d="M56.7 0A56.7 56.7 0 1 1 0 56.7 56.72 56.72 0 0 1 56.7 0z" fill="#457a93"/>
  <path d="M41.1 78l32.8 32.8a56.77 56.77 0 0 0 36.4-35.4L71.9 37l-3.3-2.5-8.9-8.8-17.2 31.5 16.6 16.6-1.3 2-4.1-2.3-6.6-6.6-6 11.1z" fill="#2a566b"/>
  <path d="M59.8 83v7.4h-6.3V83c-9.5-1-15.2-5.6-17.3-13.7L47 66.8c1.2 4.7 4.6 7 10.2 7 2.7 0 4.7-.5 6-1.6a4.662 4.662 0 0 0 2-3.7 3.814 3.814 0 0 0-1.8-3.4 19.628 19.628 0 0 0-6.9-2.2C49 61.4 44.2 59.3 42 56.7a13.854 13.854 0 0 1-3.3-9.2A14.902 14.902 0 0 1 42.8 37a16.673 16.673 0 0 1 10.6-5.1v-6.2h6.3v6.2c8.1.8 13.5 4.6 16 11.5l-9.9 3.3c-1.3-3.9-4.2-5.9-8.6-5.9q-6.9 0-6.9 4.5a3.803 3.803 0 0 0 1.3 3c.9.8 2.8 1.6 5.9 2.2a60.882 60.882 0 0 1 11.2 3.1 13.33 13.33 0 0 1 6 5.1 13.87 13.87 0 0 1 2.4 7.9 15.618 15.618 0 0 1-4.3 10.8c-2.8 3.1-7.2 5-13 5.6z" fill="#fff"/>
</svg>
