<?xml version="1.0" encoding="utf-8"?>
<!-- Generator: Adobe Illustrator 16.0.0, SVG Export Plug-In . SVG Version: 6.00 Build 0)  -->
<!DOCTYPE svg PUBLIC "-//W3C//DTD SVG 1.1//EN" "http://www.w3.org/Graphics/SVG/1.1/DTD/svg11.dtd">
<svg version="1.1" id="Layer_1" xmlns="http://www.w3.org/2000/svg" xmlns:xlink="http://www.w3.org/1999/xlink" x="0px" y="0px"
	 width="960px" height="560px" viewBox="0 0 960 560" enable-background="new 0 0 960 560" xml:space="preserve">
<title>Vector Smart Object5</title>
<g>
	<linearGradient id="SVGID_1_" gradientUnits="userSpaceOnUse" x1="357.8555" y1="239.1465" x2="372.3608" y2="239.1465">
		<stop  offset="0" style="stop-color:#E2318F"/>
		<stop  offset="1" style="stop-color:#4285F4"/>
	</linearGradient>
	<path fill="url(#SVGID_1_)" d="M365.108,473.705c-4.006,0-7.253-3.247-7.253-7.253l0,0V11.843c-0.001-4.005,3.245-7.254,7.25-7.255
		s7.254,3.244,7.255,7.25c0,0.002,0,0.004,0,0.006v454.609C372.361,470.458,369.114,473.705,365.108,473.705z"/>
	<linearGradient id="SVGID_2_" gradientUnits="userSpaceOnUse" x1="242.9072" y1="239.0762" x2="351.5361" y2="239.0762">
		<stop  offset="0" style="stop-color:#E2318F"/>
		<stop  offset="1" style="stop-color:#4285F4"/>
	</linearGradient>
	<path fill="url(#SVGID_2_)" d="M344.82,471.318c-2.219,0.001-4.316-1.014-5.692-2.755
		c-100.984-124.76-96.394-224.183-96.118-228.314v-9.915c7.711-144.407,90.977-218.4,94.558-221.154
		c2.659-2.927,7.187-3.146,10.115-0.487s3.146,7.188,0.487,10.115c-0.419,0.461-0.897,0.867-1.421,1.205
		c-0.826,0.734-82.623,73.442-89.6,211.147v9.823c0,1.469-4.406,98.78,92.997,218.859c2.245,3.079,1.723,7.37-1.193,9.823
		C347.784,470.641,346.337,471.22,344.82,471.318z"/>
	<linearGradient id="SVGID_3_" gradientUnits="userSpaceOnUse" x1="377.5244" y1="238.9839" x2="487.1377" y2="238.9839">
		<stop  offset="0" style="stop-color:#E2318F"/>
		<stop  offset="1" style="stop-color:#4285F4"/>
	</linearGradient>
	<path fill="url(#SVGID_3_)" d="M387.417,471.502c-1.656-0.026-3.262-0.572-4.59-1.561c-3.04-2.563-3.487-7.08-1.01-10.19
		c97.22-120.079,90.885-215.187,90.793-216.105v-10.833c-7.252-137.705-91.16-212.433-91.803-213.167
		c-3.324-2.143-4.282-6.574-2.14-9.898c2.143-3.324,6.574-4.282,9.898-2.14c0.524,0.338,1.002,0.743,1.421,1.205
		c3.672,3.122,89.325,79.502,97.037,223.541v10.741c0,3.396,7.252,100.984-94.007,225.744
		C391.651,470.531,389.59,471.511,387.417,471.502z"/>
	<linearGradient id="SVGID_4_" gradientUnits="userSpaceOnUse" x1="132.3979" y1="237.6328" x2="602.1338" y2="237.6328">
		<stop  offset="0" style="stop-color:#E2318F"/>
		<stop  offset="1" style="stop-color:#4285F4"/>
	</linearGradient>
	<path fill="url(#SVGID_4_)" d="M594.065,244.839h-453.6c-3.98,0.45-7.572-2.412-8.021-6.392c-0.45-3.98,2.412-7.571,6.392-8.021
		c0.541-0.061,1.088-0.061,1.629,0h453.6c3.98-0.45,7.571,2.412,8.021,6.392c0.45,3.98-2.412,7.572-6.392,8.021
		C595.153,244.9,594.607,244.9,594.065,244.839z"/>
	<linearGradient id="SVGID_5_" gradientUnits="userSpaceOnUse" x1="186.3926" y1="115.7158" x2="546.3555" y2="115.7158">
		<stop  offset="0" style="stop-color:#E2318F"/>
		<stop  offset="1" style="stop-color:#4285F4"/>
	</linearGradient>
	<path fill="url(#SVGID_5_)" d="M364.649,147.344h-19.921c-80.695-3.489-151.843-48.013-154.964-49.941
		c-3.327-2.042-4.368-6.396-2.325-9.723c0.04-0.064,0.081-0.129,0.122-0.192c2.077-3.365,6.489-4.41,9.854-2.333
		c0.02,0.012,0.04,0.025,0.061,0.038c0.734,0.459,71.056,44.433,147.62,47.646h40.577c52.664-4.484,103.769-20.132,149.915-45.902
		c3.5-1.914,7.889-0.643,9.823,2.846c1.963,3.433,0.771,7.808-2.662,9.771c-0.03,0.018-0.062,0.035-0.092,0.052
		c-48.262,27.074-101.82,43.361-156.984,47.738H364.649z"/>
	<linearGradient id="SVGID_6_" gradientUnits="userSpaceOnUse" x1="184.8945" y1="362.1182" x2="490.3281" y2="362.1182">
		<stop  offset="0" style="stop-color:#E2318F"/>
		<stop  offset="1" style="stop-color:#4285F4"/>
	</linearGradient>
	<path fill="url(#SVGID_6_)" d="M490.328,354.544c-34.122-13.313-70.052-21.421-106.584-24.052h-40.761
		c-80.511,3.488-151.75,48.013-154.688,49.94c-3.365,2.077-4.41,6.489-2.333,9.854c0.012,0.021,0.025,0.04,0.038,0.061
		c1.328,2.116,3.652,3.399,6.151,3.396c1.362-0.007,2.696-0.389,3.855-1.102c0.643-0.459,71.056-44.433,146.885-47.646h40.21
		c36.409,2.76,72.174,11.12,106.033,24.786C489.777,364.551,490.053,359.41,490.328,354.544z"/>
	<linearGradient id="SVGID_7_" gradientUnits="userSpaceOnUse" x1="129.7388" y1="236.999" x2="602.1592" y2="236.999">
		<stop  offset="0" style="stop-color:#E2318F"/>
		<stop  offset="1" style="stop-color:#4285F4"/>
	</linearGradient>
	<path fill="url(#SVGID_7_)" d="M365.843,19.003c121.809-0.051,220.667,98.519,220.971,220.328
		c0.059,21.36-3.035,42.612-9.181,63.069h13.587h1.744c5.915-20.414,9.004-41.542,9.181-62.794
		C603.584,109.159,499.003,2.244,368.556,0.804c-130.447-1.44-237.363,103.141-238.803,233.588
		c-1.44,130.447,103.141,237.363,233.588,238.802c44.353,0.49,87.947-11.519,125.793-34.65c0-5.416,0-11.017,0-16.616
		c-100.846,68.097-237.8,41.549-305.896-59.297c-68.097-100.845-41.549-237.8,59.297-305.896
		C278.955,32.142,321.897,19.002,365.843,19.003z"/>
	<linearGradient id="SVGID_8_" gradientUnits="userSpaceOnUse" x1="483.3672" y1="398.9453" x2="764.4844" y2="398.9453">
		<stop  offset="0" style="stop-color:#E2318F"/>
		<stop  offset="1" style="stop-color:#4285F4"/>
	</linearGradient>
	<path fill="url(#SVGID_8_)" d="M513.095,504.184c-7.883,0.135-15.524-2.719-21.39-7.987c-6.104-6.216-9.103-14.839-8.171-23.501
		c1.193-25.338,0-150.649,0-151.935c-0.037-6.792,2.486-13.348,7.069-18.36c5.43-5.561,12.885-8.674,20.655-8.63
		c21.299,0,214.085,0,221.797,0c8.475-0.539,16.838,2.151,23.41,7.528c5.443,5.193,8.359,12.498,7.986,20.013v39.292
		c-0.458,4.132-4.18,7.11-8.312,6.651c-3.5-0.389-6.264-3.151-6.652-6.651v-39.292c0.421-3.377-0.729-6.76-3.121-9.181
		c-3.642-2.712-8.141-4.017-12.669-3.672c-1.561,0-90.059,0-155.056,0c-32.957,0-59.947,0-66.925,0
		c-12.026,0-13.22,8.263-13.22,11.659c0,5.232,1.193,127.056,0,152.853c-0.623,4.296,0.65,8.65,3.489,11.935
		c3.536,2.718,7.942,4.056,12.394,3.764h119.16c4.122,0,7.478,3.314,7.527,7.436c0,4.158-3.37,7.528-7.527,7.528H513.095V504.184z"
		/>
	<linearGradient id="SVGID_9_" gradientUnits="userSpaceOnUse" x1="524.0195" y1="353.7188" x2="691.377" y2="353.7188">
		<stop  offset="0" style="stop-color:#E2318F"/>
		<stop  offset="1" style="stop-color:#4285F4"/>
	</linearGradient>
	<path fill="url(#SVGID_9_)" d="M684.4,360.695H530.997c-3.854,0-6.978-3.124-6.978-6.978s3.124-6.977,6.978-6.977H684.4
		c3.853,0,6.977,3.123,6.977,6.977S688.253,360.695,684.4,360.695L684.4,360.695z"/>
	<linearGradient id="SVGID_10_" gradientUnits="userSpaceOnUse" x1="524.0195" y1="385.666" x2="660.623" y2="385.666">
		<stop  offset="0" style="stop-color:#E2318F"/>
		<stop  offset="1" style="stop-color:#4285F4"/>
	</linearGradient>
	<path fill="url(#SVGID_10_)" d="M653.646,392.643H530.997c-3.854,0-6.978-3.124-6.978-6.977c0-3.854,3.124-6.978,6.978-6.978
		h122.648c3.854,0,6.978,3.124,6.978,6.978C660.623,389.519,657.499,392.643,653.646,392.643z"/>
	<linearGradient id="SVGID_11_" gradientUnits="userSpaceOnUse" x1="524.8184" y1="447.2188" x2="641.5557" y2="447.2188">
		<stop  offset="0" style="stop-color:#E2318F"/>
		<stop  offset="1" style="stop-color:#4285F4"/>
	</linearGradient>
	<path fill="url(#SVGID_11_)" d="M635.377,454.15h-104.38c-3.828-0.441-6.573-3.902-6.133-7.729
		c0.372-3.221,2.912-5.761,6.133-6.133h104.38c3.828,0.441,6.573,3.902,6.132,7.73C641.138,451.239,638.598,453.779,635.377,454.15z
		"/>
	<linearGradient id="SVGID_12_" gradientUnits="userSpaceOnUse" x1="524.0195" y1="416.4199" x2="651.9014" y2="416.4199">
		<stop  offset="0" style="stop-color:#E2318F"/>
		<stop  offset="1" style="stop-color:#4285F4"/>
	</linearGradient>
	<path fill="url(#SVGID_12_)" d="M644.925,423.396H530.997c-3.854,0-6.978-3.123-6.978-6.977s3.124-6.978,6.978-6.978h113.928
		c3.853,0,6.977,3.124,6.977,6.978S648.777,423.396,644.925,423.396L644.925,423.396z"/>
	<linearGradient id="SVGID_13_" gradientUnits="userSpaceOnUse" x1="642.6357" y1="501.5996" x2="730.1533" y2="501.5996">
		<stop  offset="0" style="stop-color:#E2318F"/>
		<stop  offset="1" style="stop-color:#4285F4"/>
	</linearGradient>
	<path fill="url(#SVGID_13_)" d="M696.242,553.482H695.6c-2.647-0.271-4.863-2.125-5.6-4.683l-7.987-29.285l-30.754,11.935
		c-3.335,1.214-7.022-0.507-8.235-3.842c-0.64-1.758-0.482-3.707,0.433-5.339l41.679-69.587c1.912-2.989,5.886-3.863,8.876-1.951
		c2.87,1.835,3.809,5.592,2.14,8.562l-32.039,53.521l19.922-7.896c1.667-0.73,3.564-0.73,5.232,0
		c1.609,0.836,2.804,2.297,3.305,4.039l5.232,19.922l20.105-41.587c1.507-3.213,5.334-4.597,8.547-3.089
		c3.213,1.507,4.596,5.334,3.089,8.547c-0.022,0.048-0.045,0.095-0.068,0.142l-27.541,57.01
		C700.863,552.071,698.663,553.455,696.242,553.482z"/>
	<linearGradient id="SVGID_14_" gradientUnits="userSpaceOnUse" x1="742.4199" y1="502.21" x2="830.2402" y2="502.21">
		<stop  offset="0" style="stop-color:#E2318F"/>
		<stop  offset="1" style="stop-color:#4285F4"/>
	</linearGradient>
	<path fill="url(#SVGID_14_)" d="M776.846,555.41c-2.543-0.029-4.837-1.535-5.875-3.856l-28.551-66.832l11.843-5.05l20.472,48.014
		l4.498-21.482c0.567-3.452,3.825-5.791,7.277-5.225c0.664,0.109,1.307,0.323,1.903,0.635l21.114,9.18l-29.102-56.184l11.384-5.967
		l37.456,72.341c1.878,3.012,0.96,6.976-2.052,8.854c-1.876,1.17-4.222,1.294-6.211,0.327l-30.479-13.22l-6.977,33.691
		c-0.555,2.782-2.868,4.872-5.692,5.142L776.846,555.41z"/>
	<linearGradient id="SVGID_15_" gradientUnits="userSpaceOnUse" x1="685.2266" y1="431.9346" x2="800.1641" y2="431.9346">
		<stop  offset="0" style="stop-color:#E2318F"/>
		<stop  offset="1" style="stop-color:#4285F4"/>
	</linearGradient>
	<path fill="url(#SVGID_15_)" d="M742.695,489.403c-31.739,0-57.469-25.729-57.469-57.469s25.729-57.469,57.469-57.469
		s57.469,25.729,57.469,57.469l0,0C800.113,463.652,774.413,489.353,742.695,489.403z M742.695,389.521
		c-23.475,0-42.505,19.03-42.505,42.505s19.03,42.505,42.505,42.505s42.505-19.03,42.505-42.505c0-0.031,0-0.062,0-0.092
		C785.149,408.495,766.134,389.521,742.695,389.521z"/>
</g>
</svg>
