<svg xmlns="http://www.w3.org/2000/svg" width="234" height="71" viewBox="0 0 234 71">
    <defs>
        <linearGradient id="a" x1="91.488%" x2="-38.352%" y1="4.948%" y2="71.907%">
            <stop offset="0%" stop-color="#00A0FF"/>
            <stop offset="1%" stop-color="#00A1FF"/>
            <stop offset="26%" stop-color="#00BEFF"/>
            <stop offset="51%" stop-color="#00D2FF"/>
            <stop offset="76%" stop-color="#00DFFF"/>
            <stop offset="100%" stop-color="#00E3FF"/>
        </linearGradient>
        <linearGradient id="b" x1="107.685%" x2="-130.64%" y1="50%" y2="50%">
            <stop offset="0%" stop-color="#FFE000"/>
            <stop offset="41%" stop-color="#FFBD00"/>
            <stop offset="78%" stop-color="#FFA500"/>
            <stop offset="100%" stop-color="#FF9C00"/>
        </linearGradient>
        <linearGradient id="c" x1="86.219%" x2="-50.15%" y1="17.877%" y2="194.703%">
            <stop offset="0%" stop-color="#FF3A44"/>
            <stop offset="100%" stop-color="#C31162"/>
        </linearGradient>
        <linearGradient id="d" x1="-18.754%" x2="42.121%" y1="-54.052%" y2="24.917%">
            <stop offset="0%" stop-color="#32A071"/>
            <stop offset="7%" stop-color="#2DA771"/>
            <stop offset="48%" stop-color="#15CF74"/>
            <stop offset="80%" stop-color="#06E775"/>
            <stop offset="100%" stop-color="#00F076"/>
        </linearGradient>
    </defs>
    <g fill="none" fill-rule="nonzero">
        <rect width="233" height="70" x=".5" y=".5" fill="#FFF" fill-opacity=".671" stroke="#0D141E" stroke-opacity=".228" rx="35"/>
        <path fill="#0D141E" d="M118.172 38.036c-3.407.016-6.158 2.78-6.147 6.177.01 3.397 2.778 6.144 6.186 6.139 3.408-.005 6.167-2.76 6.168-6.158a6.062 6.062 0 0 0-1.794-4.391 6.1 6.1 0 0 0-4.413-1.767zm0 9.896a3.752 3.752 0 0 1-3.645-2.118 3.73 3.73 0 0 1 .638-4.157 3.758 3.758 0 0 1 4.114-.935 3.739 3.739 0 0 1 2.382 3.472 3.558 3.558 0 0 1-.954 2.603 3.58 3.58 0 0 1-2.535 1.135zm-13.53-9.896c-3.41.008-6.169 2.768-6.163 6.168.005 3.399 2.772 6.15 6.181 6.148 3.41-.003 6.173-2.759 6.173-6.158a6.062 6.062 0 0 0-1.793-4.391 6.1 6.1 0 0 0-4.413-1.767h.014zm0 9.896a3.752 3.752 0 0 1-3.656-2.106 3.73 3.73 0 0 1 .628-4.162 3.758 3.758 0 0 1 4.115-.942 3.739 3.739 0 0 1 2.386 3.472 3.558 3.558 0 0 1-.953 2.603 3.58 3.58 0 0 1-2.535 1.135h.014zm-16.12-7.998v2.608h6.28a5.455 5.455 0 0 1-1.454 3.29 6.435 6.435 0 0 1-4.84 1.912c-3.853 0-6.976-3.114-6.976-6.955s3.123-6.955 6.976-6.955a6.697 6.697 0 0 1 4.753 1.869l1.846-1.84a9.156 9.156 0 0 0-6.584-2.71 9.614 9.614 0 0 0-8.63 4.675 9.553 9.553 0 0 0 0 9.792 9.614 9.614 0 0 0 8.63 4.674 8.734 8.734 0 0 0 6.7-2.68 8.678 8.678 0 0 0 2.267-6.115 8.48 8.48 0 0 0-.145-1.638l-8.822.073zm65.855 2.028a5.812 5.812 0 0 0-5.29-3.926 5.822 5.822 0 0 0-4.245 1.823 5.785 5.785 0 0 0-1.57 4.335 6.018 6.018 0 0 0 1.755 4.378 6.056 6.056 0 0 0 4.38 1.78 6.153 6.153 0 0 0 5.144-2.724l-2.107-1.449a3.534 3.534 0 0 1-3.038 1.71 3.14 3.14 0 0 1-2.994-1.87l8.27-3.405-.305-.652zm-8.43 2.058a3.37 3.37 0 0 1 .856-2.473 3.39 3.39 0 0 1 2.37-1.12 2.4 2.4 0 0 1 2.297 1.304l-5.523 2.289zm-6.715 5.97h2.718V31.878h-2.718V49.99zm-4.447-10.578h-.102a4.366 4.366 0 0 0-3.255-1.449c-3.3.16-5.892 2.873-5.892 6.166s2.593 6.006 5.892 6.165a4.22 4.22 0 0 0 3.255-1.449h.087v.884c0 2.362-1.264 3.622-3.299 3.622a3.415 3.415 0 0 1-3.11-2.188l-2.37.986a5.887 5.887 0 0 0 5.48 3.637c3.183 0 5.814-1.87 5.814-6.42V38.399h-2.5v1.014zm-3.11 8.52a3.757 3.757 0 0 1-3.434-3.738 3.757 3.757 0 0 1 3.434-3.738c.939.048 1.819.472 2.44 1.175a3.47 3.47 0 0 1 .859 2.563c.08.939-.229 1.87-.855 2.576a3.463 3.463 0 0 1-2.459 1.162h.015zm35.434-16.054h-6.497V49.99h2.718v-6.868h3.793a5.659 5.659 0 0 0 5.233-2.688 5.622 5.622 0 0 0 0-5.869 5.659 5.659 0 0 0-5.233-2.687h-.014zm0 8.693h-3.793V34.4h3.851a3.113 3.113 0 0 1 3.118 3.108 3.113 3.113 0 0 1-3.118 3.108l-.058-.044zm16.758-2.608a5.09 5.09 0 0 0-4.84 2.768l2.413 1a2.574 2.574 0 0 1 2.47-1.333 2.622 2.622 0 0 1 1.944.558c.547.44.894 1.078.963 1.774v.189a6.017 6.017 0 0 0-2.834-.696c-2.602 0-5.232 1.45-5.232 4.072.052 1.13.56 2.19 1.408 2.941a4.208 4.208 0 0 0 3.097 1.044 3.826 3.826 0 0 0 3.489-1.74h.087v1.45h2.616v-6.97c0-3.173-2.413-5.013-5.508-5.013l-.073-.044zm-.334 9.926c-.887 0-2.122-.45-2.122-1.536 0-1.45 1.54-1.927 2.906-1.927a4.837 4.837 0 0 1 2.471.608 3.28 3.28 0 0 1-3.183 2.898l-.072-.043zm15.45-9.491l-3.111 7.853h-.087l-3.227-7.853h-2.907l4.84 10.983-2.761 6.1h2.834l7.441-17.083h-3.023zM174.55 49.99h2.718V31.878h-2.718V49.99zM88.058 21.358a3.92 3.92 0 0 1-1.09 2.898 4.236 4.236 0 0 1-3.198 1.29 4.578 4.578 0 0 1-4.198-2.828 4.554 4.554 0 0 1 .986-4.954 4.367 4.367 0 0 1 3.212-1.304 4.517 4.517 0 0 1 1.788.363 3.59 3.59 0 0 1 1.366.97l-.77.768a2.91 2.91 0 0 0-2.384-1.028 3.377 3.377 0 0 0-2.436 1.02 3.356 3.356 0 0 0-.95 2.457 3.42 3.42 0 0 0 2.068 3.187c1.271.548 2.75.28 3.745-.68.447-.483.705-1.11.727-1.768H83.77v-1.043H88c.038.215.058.433.058.652zm6.656-3.622H90.79v2.753h3.575v1.043H90.79v2.753h3.924v1.072h-5.087v-8.694h5.087v1.073zm4.767 7.621h-1.119v-7.621h-2.441v-1.073h6.06v1.073h-2.5v7.621zm6.773 0v-8.694h1.12v8.694h-1.12zm6.09 0h-1.119v-7.621h-2.442v-1.073h5.988v1.073h-2.427v7.621zm13.779-1.13a4.545 4.545 0 0 1-6.395 0 4.684 4.684 0 0 1 0-6.448 4.513 4.513 0 0 1 6.395 0 4.67 4.67 0 0 1 0 6.448zm-5.567-.725a3.365 3.365 0 0 0 4.738 0 3.701 3.701 0 0 0 0-4.984 3.365 3.365 0 0 0-4.738 0 3.701 3.701 0 0 0 0 4.984zm8.43 1.855v-8.694h1.366l4.244 6.767v-6.767h1.12v8.694h-1.164l-4.432-7.085v7.085h-1.134z"/>
        <path fill="url(#a)" d="M2.093.782a2.892 2.892 0 0 0-.669 2.029v32.051a2.892 2.892 0 0 0 .669 2.029l.102.101 18.007-17.938v-.42L2.195.68l-.102.101z" transform="translate(32.217 16.663)"/>
        <path fill="url(#b)" d="M26.161 25.038l-5.959-5.984v-.42l5.96-5.999.13.073 7.137 4.042c2.034 1.145 2.034 3.029 0 4.188l-7.108 4.028-.16.072z" transform="translate(32.217 16.663)"/>
        <path fill="url(#c)" d="M26.336 24.951l-6.134-6.114L2.092 36.89c.857.75 2.126.786 3.024.087L26.35 24.951" transform="translate(32.217 16.663)"/>
        <path fill="url(#d)" d="M26.336 12.722L5.1.696a2.375 2.375 0 0 0-3.023.086l18.124 18.055 6.134-6.115z" transform="translate(32.217 16.663)"/>
        <path fill="#000" d="M58.379 41.484l-21.06 11.954a2.433 2.433 0 0 1-2.907 0l-.102.102.102.101c.86.647 2.047.647 2.907 0l21.234-12.026-.174-.13z" opacity=".2"/>
        <path fill="#000" d="M34.31 53.351a2.892 2.892 0 0 1-.668-2.028v.217a2.892 2.892 0 0 0 .668 2.029l.102-.102-.102-.116zm31.336-15.967l-7.267 4.1.13.13 7.137-4.027a2.536 2.536 0 0 0 1.453-2.087 2.696 2.696 0 0 1-1.453 1.884z" opacity=".12"/>
        <path fill="#FFF" d="M37.319 17.562l28.327 16.054a2.696 2.696 0 0 1 1.453 1.884 2.536 2.536 0 0 0-1.453-2.087L37.319 17.36c-2.035-1.145-3.692-.189-3.692 2.13v.217c.044-2.333 1.672-3.29 3.692-2.144z" opacity=".25"/>
    </g>
</svg>
