<?xml version="1.0" encoding="utf-8"?>
<!-- Generator: Adobe Illustrator 16.0.0, SVG Export Plug-In . SVG Version: 6.00 Build 0)  -->
<!DOCTYPE svg PUBLIC "-//W3C//DTD SVG 1.1//EN" "http://www.w3.org/Graphics/SVG/1.1/DTD/svg11.dtd">
<svg version="1.1" id="Layer_1" xmlns="http://www.w3.org/2000/svg" xmlns:xlink="http://www.w3.org/1999/xlink" x="0px" y="0px"
	 width="169.946px" height="59.676px" viewBox="0 0 169.946 59.676" enable-background="new 0 0 169.946 59.676"
	 xml:space="preserve">
<g>
	<defs>
		<path id="SVGID_1_" d="M58.683,2.175c-0.336,0-0.608-0.272-0.608-0.608c0-0.336,0.272-0.608,0.608-0.608h109.891
			c0.335,0,0.607,0.272,0.607,0.608v56.432c0,0.336-0.272,0.608-0.607,0.608H1.677c-0.336,0-0.608-0.272-0.608-0.608V23.001
			c0-0.335,0.272-0.608,0.608-0.608s0.608,0.272,0.608,0.608v34.39h165.68V2.175H58.683L58.683,2.175z"/>
	</defs>
	<clipPath id="SVGID_2_">
		<use xlink:href="#SVGID_1_"  overflow="visible"/>
	</clipPath>
	<g clip-path="url(#SVGID_2_)">
		<defs>
			<rect id="SVGID_3_" x="1.069" y="0.959" width="168.112" height="57.648"/>
		</defs>
		<clipPath id="SVGID_4_">
			<use xlink:href="#SVGID_3_"  overflow="visible"/>
		</clipPath>
		<g clip-path="url(#SVGID_4_)">
			
				<image overflow="visible" width="356" height="124" xlink:href="610E3CF4.jpg"  transform="matrix(0.48 0 0 -0.48 -0.3335 59.8857)">
			</image>
		</g>
	</g>
</g>
<path fill="#404041" d="M72.398,12.564v2.944c-1.622-0.953-3.175-1.432-4.655-1.432c-1.715,0-3.163,0.564-4.343,1.687
	c-1.204,1.151-1.805,2.685-1.805,4.603c0,1.934,0.584,3.593,1.756,4.98c1.262,1.488,2.835,2.234,4.729,2.234
	c1.639,0,3.508-0.555,5.612-1.67l-1.294,2.968c-1.244,0.531-2.574,0.795-3.99,0.795c-3.313,0-5.835-0.978-7.57-2.936
	c-1.439-1.626-2.162-3.601-2.162-5.933c0-2.831,0.998-5.081,2.993-6.751c1.728-1.444,3.764-2.166,6.107-2.166
	C69.053,11.887,70.594,12.114,72.398,12.564L72.398,12.564z M86.218,22.884h-6.477l-1.464,3.909
	c-0.198,0.54-0.296,0.973-0.296,1.302c0,0.422,0.305,0.799,0.917,1.14h-4.717c0.45-0.276,0.823-0.58,1.12-0.913
	c0.259-0.32,0.462-0.632,0.604-0.941c0.118-0.243,0.341-0.778,0.665-1.602l4.521-11.281c0.199-0.482,0.296-0.872,0.296-1.164
	c0-0.421-0.263-0.758-0.79-1.01h4.107l5.386,13.455c0.409,1.014,0.722,1.675,0.937,1.983c0.435,0.633,0.949,1.124,1.545,1.472
	h-5.324c0.296-0.167,0.49-0.284,0.584-0.357c0.23-0.178,0.345-0.397,0.345-0.649c0-0.183-0.15-0.661-0.45-1.436L86.218,22.884
	L86.218,22.884z M85.549,21.206l-2.587-6.707l-2.616,6.707H85.549L85.549,21.206z M102.776,19.389
	c0.803,0.207,1.439,0.446,1.918,0.713c0.738,0.41,1.306,0.961,1.711,1.646c0.39,0.657,0.584,1.375,0.584,2.149
	c0,1.35-0.535,2.534-1.605,3.544c-1.038,0.989-2.457,1.562-4.254,1.719c-0.539,0.049-1.217,0.073-2.036,0.073
	c-0.166,0-0.673,0-1.521,0h-3.657c0.45-0.239,0.758-0.572,0.924-0.998c0.15-0.466,0.228-1.233,0.228-2.295V15.614
	c0-1.148-0.089-1.951-0.271-2.409c-0.167-0.357-0.463-0.649-0.88-0.88h3.657c1.245,0,1.938,0,2.08,0
	c1.578,0,2.737,0.179,3.484,0.536c0.766,0.369,1.346,0.876,1.735,1.517c0.324,0.535,0.486,1.107,0.486,1.707
	c0,1.16-0.495,2.064-1.488,2.713C103.62,18.963,103.254,19.162,102.776,19.389L102.776,19.389z M97.573,19.142
	c0.414,0.028,0.734,0.045,0.957,0.045c1.104,0,2.012-0.191,2.722-0.572c0.92-0.507,1.383-1.216,1.383-2.129
	c0-0.543-0.183-1.046-0.548-1.496c-0.576-0.689-1.488-1.034-2.745-1.034c-0.454,0-1.042,0.045-1.769,0.138V19.142L97.573,19.142z
	 M97.573,27.203c0.815,0.138,1.573,0.207,2.271,0.207c1.473,0,2.584-0.337,3.338-1.006c0.625-0.556,0.937-1.281,0.937-2.182
	c0-1.095-0.401-1.955-1.2-2.579c-0.522-0.41-1.106-0.673-1.756-0.783c-0.49-0.077-1.038-0.118-1.643-0.118
	c-0.608,0-1.257,0.037-1.946,0.109V27.203L97.573,27.203z M119.272,22.884h-6.476l-1.464,3.909c-0.199,0.54-0.296,0.973-0.296,1.302
	c0,0.422,0.304,0.799,0.916,1.14h-4.716c0.45-0.276,0.823-0.58,1.119-0.913c0.26-0.32,0.462-0.632,0.604-0.941
	c0.118-0.243,0.341-0.778,0.665-1.602l4.522-11.281c0.198-0.482,0.296-0.872,0.296-1.164c0-0.421-0.264-0.758-0.791-1.01h4.107
	l5.386,13.455c0.409,1.014,0.722,1.675,0.937,1.983c0.435,0.633,0.949,1.124,1.545,1.472h-5.324c0.296-0.167,0.49-0.284,0.584-0.357
	c0.231-0.178,0.345-0.397,0.345-0.649c0-0.183-0.15-0.661-0.45-1.436L119.272,22.884L119.272,22.884z M118.603,21.206l-2.587-6.707
	l-2.615,6.707H118.603L118.603,21.206z M129.995,15.946v10.271c0.008,0.924,0.121,1.589,0.344,1.995
	c0.231,0.397,0.568,0.738,1.01,1.022h-4.582c0.475-0.3,0.831-0.681,1.07-1.14c0.183-0.373,0.276-0.998,0.284-1.877V15.342
	c-0.008-0.949-0.122-1.614-0.345-1.995c-0.235-0.405-0.572-0.746-1.01-1.022h3.764c0.068,0.175,0.275,0.491,0.616,0.949
	l9.505,12.113V15.342c-0.008-0.94-0.121-1.605-0.345-1.995c-0.235-0.405-0.571-0.746-1.01-1.022h4.582
	c-0.475,0.3-0.831,0.682-1.07,1.14c-0.183,0.365-0.275,0.99-0.284,1.877v14.725c-1.354-0.458-2.53-1.359-3.535-2.697L129.995,15.946
	L129.995,15.946z M156.819,22.884h-6.476l-1.464,3.909c-0.199,0.54-0.296,0.973-0.296,1.302c0,0.422,0.304,0.799,0.916,1.14h-4.716
	c0.45-0.276,0.823-0.58,1.119-0.913c0.26-0.32,0.462-0.632,0.604-0.941c0.118-0.243,0.341-0.778,0.665-1.602l4.522-11.281
	c0.198-0.482,0.296-0.872,0.296-1.164c0-0.421-0.264-0.758-0.791-1.01h4.107l5.386,13.455c0.409,1.014,0.722,1.675,0.937,1.983
	c0.435,0.633,0.949,1.124,1.545,1.472h-5.324c0.296-0.167,0.49-0.284,0.584-0.357c0.231-0.178,0.345-0.397,0.345-0.649
	c0-0.183-0.15-0.661-0.45-1.436L156.819,22.884L156.819,22.884z M156.15,21.206l-2.587-6.707l-2.615,6.707H156.15L156.15,21.206z"/>
<path fill="#404041" d="M71.555,34.985v2.755c-1.518-0.892-2.972-1.34-4.356-1.34c-1.605,0-2.96,0.527-4.064,1.579
	c-1.127,1.077-1.688,2.512-1.688,4.307c0,1.811,0.546,3.362,1.643,4.66c1.181,1.394,2.653,2.092,4.425,2.092
	c1.533,0,3.283-0.521,5.253-1.564l-1.211,2.778c-1.165,0.497-2.41,0.744-3.734,0.744c-3.101,0-5.461-0.915-7.085-2.748
	c-1.348-1.521-2.022-3.37-2.022-5.552c0-2.649,0.933-4.755,2.8-6.318c1.617-1.351,3.522-2.026,5.716-2.026
	C68.424,34.352,69.866,34.563,71.555,34.985L71.555,34.985z M84.488,44.644h-6.061l-1.369,3.658
	c-0.187,0.504-0.277,0.91-0.277,1.218c0,0.395,0.284,0.747,0.857,1.066h-4.413c0.421-0.258,0.771-0.543,1.047-0.854
	c0.243-0.3,0.433-0.593,0.565-0.881c0.11-0.228,0.319-0.729,0.623-1.499l4.23-10.558c0.187-0.451,0.277-0.815,0.277-1.089
	c0-0.395-0.246-0.71-0.74-0.945h3.845l5.039,12.592c0.384,0.949,0.676,1.567,0.877,1.855c0.406,0.593,0.889,1.052,1.446,1.378
	h-4.982c0.276-0.155,0.459-0.266,0.546-0.334c0.217-0.167,0.322-0.372,0.322-0.607c0-0.171-0.14-0.618-0.421-1.343L84.488,44.644
	L84.488,44.644z M83.862,43.072l-2.421-6.277l-2.447,6.277H83.862L83.862,43.072z M95.16,36.617v11.146
	c0.008,0.881,0.113,1.503,0.322,1.867c0.224,0.387,0.539,0.705,0.945,0.956h-4.759c0.421-0.224,0.709-0.535,0.865-0.934
	c0.14-0.437,0.212-1.153,0.212-2.147v-9.666c0-1.074-0.083-1.825-0.254-2.254c-0.156-0.334-0.433-0.607-0.823-0.824h2.311
	c0.505,0,1.4-0.011,2.69-0.03c0.319-0.011,0.569-0.015,0.756-0.015c1.237,0,2.25,0.178,3.035,0.535
	c0.79,0.364,1.416,0.892,1.875,1.582c0.452,0.668,0.68,1.374,0.68,2.114c0,0.604-0.152,1.203-0.46,1.799
	c-0.307,0.6-0.729,1.111-1.264,1.544c-0.982,0.794-2.178,1.191-3.574,1.191c-0.622,0-1.207-0.109-1.746-0.329
	c1.325-0.172,2.334-0.543,3.025-1.112c0.888-0.729,1.332-1.613,1.332-2.66c0-0.991-0.372-1.765-1.112-2.312
	c-0.607-0.443-1.4-0.668-2.38-0.668C96.291,36.4,95.729,36.473,95.16,36.617L95.16,36.617z M105.899,47.505v-9.666
	c0-1.074-0.083-1.825-0.254-2.254c-0.156-0.334-0.433-0.607-0.823-0.824h4.568c-0.429,0.231-0.717,0.543-0.865,0.934
	c-0.14,0.437-0.212,1.154-0.212,2.145v9.666c0,1.077,0.083,1.829,0.254,2.258c0.155,0.334,0.433,0.607,0.823,0.823h-4.568
	c0.421-0.224,0.709-0.535,0.864-0.934C105.827,49.216,105.899,48.499,105.899,47.505L105.899,47.505z M122.95,34.605l-0.789,2.846
	c-0.148-0.296-0.346-0.504-0.592-0.626c-0.338-0.178-0.889-0.266-1.644-0.266c-0.023,0-0.718,0.02-2.08,0.058v11.146
	c0.008,0.873,0.114,1.495,0.323,1.867c0.216,0.372,0.531,0.69,0.944,0.956h-4.735c0.421-0.224,0.705-0.535,0.854-0.934
	c0.147-0.429,0.224-1.146,0.224-2.147V36.617c-0.6-0.054-1.248-0.08-1.946-0.08c-0.976,0-1.734,0.125-2.266,0.38
	c-0.217,0.095-0.494,0.273-0.835,0.534l0.876-2.846c0.194,0.068,0.607,0.118,1.237,0.155h9.017
	C122.278,34.724,122.749,34.674,122.95,34.605L122.95,34.605z M133.242,44.644h-6.061l-1.37,3.658
	c-0.186,0.504-0.277,0.91-0.277,1.218c0,0.395,0.285,0.747,0.857,1.066h-4.413c0.422-0.258,0.771-0.543,1.048-0.854
	c0.242-0.3,0.433-0.593,0.565-0.881c0.11-0.228,0.318-0.729,0.622-1.499l4.231-10.558c0.186-0.451,0.276-0.815,0.276-1.089
	c0-0.395-0.246-0.71-0.739-0.945h3.845l5.039,12.592c0.384,0.949,0.676,1.567,0.877,1.855c0.405,0.593,0.888,1.052,1.445,1.378
	h-4.982c0.277-0.155,0.459-0.266,0.546-0.334c0.217-0.167,0.323-0.372,0.323-0.607c0-0.171-0.141-0.618-0.422-1.343L133.242,44.644
	L133.242,44.644z M132.616,43.072l-2.422-6.277l-2.447,6.277H132.616L132.616,43.072z M143.913,48.632
	c1.097,0.163,2.179,0.246,3.245,0.246c1.188,0,2.238-0.239,3.161-0.713c0.288-0.148,0.687-0.406,1.199-0.767l-1.268,3.188h-9.829
	c0.421-0.224,0.71-0.535,0.865-0.934c0.141-0.437,0.213-1.153,0.213-2.147v-9.666c0-1.074-0.084-1.825-0.255-2.254
	c-0.155-0.334-0.433-0.607-0.823-0.824h4.569c-0.429,0.231-0.718,0.543-0.865,0.934c-0.141,0.437-0.213,1.154-0.213,2.145V48.632
	L143.913,48.632z M163.05,34.894v2.732c-1.073-1.059-2.345-1.59-3.81-1.59c-1.074,0-1.917,0.27-2.523,0.813
	c-0.422,0.379-0.634,0.865-0.634,1.457c0,0.565,0.228,1.051,0.679,1.461c0.331,0.296,0.706,0.554,1.12,0.778
	c0.489,0.25,1.073,0.535,1.757,0.846c1.704,0.793,2.873,1.442,3.499,1.947c0.869,0.683,1.302,1.56,1.302,2.626
	c0,1.218-0.497,2.304-1.491,3.264c-1.23,1.18-2.899,1.769-5.014,1.769c-1.423,0-2.842-0.247-4.258-0.744l-0.71-3.002
	c1.571,1.298,3.325,1.947,5.264,1.947c1.074,0,1.97-0.266,2.68-0.801c0.607-0.463,0.91-1.018,0.91-1.67
	c0-0.68-0.266-1.245-0.801-1.708c-0.326-0.288-0.701-0.539-1.134-0.755c-0.539-0.277-1.185-0.588-1.932-0.938
	c-1.609-0.732-2.714-1.37-3.313-1.901c-0.831-0.751-1.245-1.685-1.245-2.797c0-0.744,0.217-1.449,0.646-2.117
	c0.482-0.748,1.237-1.31,2.27-1.682c0.888-0.318,1.909-0.478,3.059-0.478C160.577,34.352,161.806,34.533,163.05,34.894
	L163.05,34.894z"/>
<g>
	<defs>
		<path id="SVGID_5_" d="M16.374,14.527c0,1.068-0.821,1.935-1.835,1.935s-1.835-0.866-1.835-1.935c0-1.068,0.821-1.934,1.835-1.934
			S16.374,13.459,16.374,14.527L16.374,14.527z"/>
	</defs>
	<clipPath id="SVGID_6_">
		<use xlink:href="#SVGID_5_"  overflow="visible"/>
	</clipPath>
	<g clip-path="url(#SVGID_6_)">
		<defs>
			<rect id="SVGID_7_" x="12.704" y="12.594" width="3.67" height="3.868"/>
		</defs>
		<clipPath id="SVGID_8_">
			<use xlink:href="#SVGID_7_"  overflow="visible"/>
		</clipPath>
		<g clip-path="url(#SVGID_8_)">
			
				<image overflow="visible" width="16" height="12" xlink:href="610E3CF3.jpg"  transform="matrix(0.48 0 0 -0.48 11.4419 17.8726)">
			</image>
		</g>
	</g>
</g>
<g>
	<defs>
		<path id="SVGID_9_" d="M19.863,9.331c0,0.745-0.573,1.349-1.28,1.349s-1.279-0.604-1.279-1.349c0-0.745,0.572-1.349,1.279-1.349
			S19.863,8.586,19.863,9.331L19.863,9.331z"/>
	</defs>
	<clipPath id="SVGID_10_">
		<use xlink:href="#SVGID_9_"  overflow="visible"/>
	</clipPath>
	<g clip-path="url(#SVGID_10_)">
		<defs>
			<rect id="SVGID_11_" x="17.303" y="7.982" width="2.56" height="2.698"/>
		</defs>
		<clipPath id="SVGID_12_">
			<use xlink:href="#SVGID_11_"  overflow="visible"/>
		</clipPath>
		<g transform="matrix(1 0 0 1 -9.536743e-007 0)" clip-path="url(#SVGID_12_)">
			
				<image overflow="visible" width="12" height="9" xlink:href="610E3CFE.jpg"  transform="matrix(0.48 0 0 -0.48 15.9448 11.8101)">
			</image>
		</g>
	</g>
</g>
<g>
	<defs>
		<path id="SVGID_13_" d="M13.058,7.777c0,0.606-0.467,1.098-1.042,1.098s-1.042-0.492-1.042-1.098s0.467-1.098,1.042-1.098
			S13.058,7.171,13.058,7.777L13.058,7.777z"/>
	</defs>
	<clipPath id="SVGID_14_">
		<use xlink:href="#SVGID_13_"  overflow="visible"/>
	</clipPath>
	<g clip-path="url(#SVGID_14_)">
		<defs>
			<rect id="SVGID_15_" x="10.974" y="6.679" width="2.084" height="2.196"/>
		</defs>
		<clipPath id="SVGID_16_">
			<use xlink:href="#SVGID_15_"  overflow="visible"/>
		</clipPath>
		<g clip-path="url(#SVGID_16_)">
			<image overflow="visible" width="12" height="9" xlink:href="610E3CF1.jpg"  transform="matrix(0.48 0 0 -0.48 9.6499 10.0425)">
			</image>
		</g>
	</g>
</g>
<g>
	<defs>
		<path id="SVGID_17_" d="M50.949,43.307c0,5.27-4.817,9.581-10.707,9.581h-5.287c-8.364,0-15.726-3.772-20.076-9.581
			c-2.542-3.413-4.015-7.544-4.015-11.976c0-4.43,1.473-8.562,4.015-11.975c3.413-4.491,8.566-7.784,14.656-9.041
			c1.739-0.359,3.546-0.539,5.42-0.539h15.994c0,5.209-4.618,9.4-10.306,9.58H39.84h-4.886c-17.356,0-14.324,19.443-5.354,22.933
			c1.606,0.658,3.413,1.018,5.354,1.018H50.949L50.949,43.307z"/>
	</defs>
	<clipPath id="SVGID_18_">
		<use xlink:href="#SVGID_17_"  overflow="visible"/>
	</clipPath>
	<g clip-path="url(#SVGID_18_)">
		<defs>
			<rect id="SVGID_19_" x="10.864" y="9.776" width="40.085" height="43.112"/>
		</defs>
		<clipPath id="SVGID_20_">
			<use xlink:href="#SVGID_19_"  overflow="visible"/>
		</clipPath>
		<g clip-path="url(#SVGID_20_)">
			
				<image overflow="visible" width="88" height="94" xlink:href="610E3CF2.jpg"  transform="matrix(0.48 0 0 -0.48 9.8726 53.9707)">
			</image>
		</g>
	</g>
</g>
<g>
	<defs>
		<path id="SVGID_21_" d="M14.878,43.307c-2.542-3.413-4.015-7.544-4.015-11.976c0-4.43,1.473-8.562,4.015-11.975
			c3.413-4.491,8.566-7.784,14.656-9.041c1.739-0.359,3.546-0.539,5.42-0.539h15.994c0,5.209-4.618,9.4-10.306,9.58H39.84h-4.886
			C22.235,19.356,9.675,27.562,14.878,43.307L14.878,43.307z"/>
	</defs>
	<clipPath id="SVGID_22_">
		<use xlink:href="#SVGID_21_"  overflow="visible"/>
	</clipPath>
	<g clip-path="url(#SVGID_22_)">
		<defs>
			<rect id="SVGID_23_" x="9.675" y="9.776" width="41.273" height="33.531"/>
		</defs>
		<clipPath id="SVGID_24_">
			<use xlink:href="#SVGID_23_"  overflow="visible"/>
		</clipPath>
		<g clip-path="url(#SVGID_24_)">
			<image overflow="visible" width="92" height="73" xlink:href="610E3CF0.jpg"  transform="matrix(0.48 0 0 -0.48 8.604 44.2793)">
			</image>
		</g>
	</g>
</g>
</svg>
