<svg xmlns="http://www.w3.org/2000/svg" viewBox="0 0 113.4 113.4">
  <title>
    type-micro
  </title>
  <path d="M56.7 0A56.7 56.7 0 1 1 0 56.7 56.72 56.72 0 0 1 56.7 0z" fill="#695a93"/>
  <path d="M28.7 78.4L63.3 113a56.784 56.784 0 0 0 48.1-41.4L81.8 42 74 44.8l-17.3 1.4L42 41.6l-2.3-2.3-3.5 13.4-7.5 25.7z" fill="#463c70"/>
  <path d="M84.6 78.4H73.1V56.8a35.37 35.37 0 0 0-.3-5.9 4.254 4.254 0 0 0-1.4-2.3 4.963 4.963 0 0 0-3.1-.9 6.896 6.896 0 0 0-3.9 1.4c-1.3.9-2 3.5-2 7.8v21.6H50.8V56.9a25.15 25.15 0 0 0-.4-6 3.976 3.976 0 0 0-1.6-2.2 4.86 4.86 0 0 0-3-.9 4.98 4.98 0 0 0-4.4 1.9c-1 1.2-1.4 3.7-1.4 7.3v21.6H28.7V39.5h10.9v6c1.8-4.5 5.5-6.7 11-6.7a11.302 11.302 0 0 1 10.8 6.7c2.2-4.5 6-6.7 11.4-6.7a13.037 13.037 0 0 1 6.7 1.6 8.8 8.8 0 0 1 4 4.1c.8 1.7 1.2 4.6 1.2 8.8v25.1z" fill="#fff"/>
</svg>
