<?xml version="1.0" encoding="utf-8"?>
<!-- Generator: Adobe Illustrator 16.0.0, SVG Export Plug-In . SVG Version: 6.00 Build 0)  -->
<!DOCTYPE svg PUBLIC "-//W3C//DTD SVG 1.1//EN" "http://www.w3.org/Graphics/SVG/1.1/DTD/svg11.dtd">
<svg version="1.1" id="Layer_1" xmlns="http://www.w3.org/2000/svg" xmlns:xlink="http://www.w3.org/1999/xlink" x="0px" y="0px"
	 width="512px" height="512px" viewBox="0 0 512 512" enable-background="new 0 0 512 512" xml:space="preserve">
<g>
	<linearGradient id="SVGID_1_" gradientUnits="userSpaceOnUse" x1="16" y1="288" x2="496" y2="288">
		<stop  offset="0" style="stop-color:#E2318F"/>
		<stop  offset="1" style="stop-color:#4285F4"/>
	</linearGradient>
	<path fill="url(#SVGID_1_)" d="M488,416h-8V120c-0.026-22.081-17.92-39.974-40-40H72c-22.081,0.026-39.974,17.919-40,40v296h-8
		c-4.418,0-8,3.582-8,8v32c0.026,22.08,17.919,39.974,40,40h400c22.08-0.026,39.974-17.92,40-40v-32
		C496,419.582,492.418,416,488,416z M48,120c0-13.255,10.745-24,24-24h368c13.255,0,24,10.745,24,24v296H48V120z M216,432h80v8
		c0,4.418-3.582,8-8,8h-64c-4.418,0-8-3.582-8-8V432z M480,456c0,13.255-10.745,24-24,24H56c-13.255,0-24-10.745-24-24v-24h168v8
		c0,13.255,10.745,24,24,24l0,0h64c13.255,0,24-10.745,24-24l0,0v-8h168V456z"/>
	<linearGradient id="SVGID_2_" gradientUnits="userSpaceOnUse" x1="64" y1="256" x2="448" y2="256">
		<stop  offset="0" style="stop-color:#E2318F"/>
		<stop  offset="1" style="stop-color:#4285F4"/>
	</linearGradient>
	<path fill="url(#SVGID_2_)" d="M440,400H72c-4.418,0-8-3.582-8-8V120c0-4.418,3.582-8,8-8h368c4.418,0,8,3.582,8,8v272
		C448,396.418,444.418,400,440,400z M80,384h352V128H80V384z"/>
	<linearGradient id="SVGID_3_" gradientUnits="userSpaceOnUse" x1="136" y1="336" x2="376" y2="336">
		<stop  offset="0" style="stop-color:#E2318F"/>
		<stop  offset="1" style="stop-color:#4285F4"/>
	</linearGradient>
	<path fill="url(#SVGID_3_)" d="M368,368H144c-4.418,0-8-3.582-8-8v-48c0-4.418,3.582-8,8-8h224c4.418,0,8,3.582,8,8v48
		C376,364.418,372.418,368,368,368z M152,352h208v-32H152V352z"/>
	<linearGradient id="SVGID_4_" gradientUnits="userSpaceOnUse" x1="232" y1="200" x2="280" y2="200">
		<stop  offset="0" style="stop-color:#E2318F"/>
		<stop  offset="1" style="stop-color:#4285F4"/>
	</linearGradient>
	<path fill="url(#SVGID_4_)" d="M256,224c-13.255,0-24-10.745-24-24s10.745-24,24-24s24,10.745,24,24S269.255,224,256,224z M256,192
		c-4.418,0-8,3.582-8,8s3.582,8,8,8c4.418,0,8-3.582,8-8S260.418,192,256,192z"/>
	<linearGradient id="SVGID_5_" gradientUnits="userSpaceOnUse" x1="184" y1="216" x2="328" y2="216">
		<stop  offset="0" style="stop-color:#E2318F"/>
		<stop  offset="1" style="stop-color:#4285F4"/>
	</linearGradient>
	<path fill="url(#SVGID_5_)" d="M256,144c-39.765,0-72,32.235-72,72s32.235,72,72,72s72-32.235,72-72
		C327.951,176.256,295.744,144.048,256,144z M232,266.52V256c0-4.418,3.582-8,8-8h32c4.418,0,8,3.582,8,8v10.52
		C264.834,273.826,247.166,273.826,232,266.52z M295.92,255.2c-0.431-12.911-11.002-23.165-23.92-23.2h-32
		c-12.917,0.036-23.489,10.29-23.92,23.2c-21.69-22.047-21.4-57.503,0.646-79.193c22.047-21.69,57.504-21.401,79.193,0.646
		C317.359,198.446,317.359,233.407,295.92,255.2z"/>
	<linearGradient id="SVGID_6_" gradientUnits="userSpaceOnUse" x1="168" y1="336" x2="184" y2="336">
		<stop  offset="0" style="stop-color:#E2318F"/>
		<stop  offset="1" style="stop-color:#4285F4"/>
	</linearGradient>
	<path fill="url(#SVGID_6_)" d="M168,328h16v16h-16V328z"/>
	<linearGradient id="SVGID_7_" gradientUnits="userSpaceOnUse" x1="200" y1="336" x2="216" y2="336">
		<stop  offset="0" style="stop-color:#E2318F"/>
		<stop  offset="1" style="stop-color:#4285F4"/>
	</linearGradient>
	<path fill="url(#SVGID_7_)" d="M200,328h16v16h-16V328z"/>
	<linearGradient id="SVGID_8_" gradientUnits="userSpaceOnUse" x1="232" y1="336" x2="248" y2="336">
		<stop  offset="0" style="stop-color:#E2318F"/>
		<stop  offset="1" style="stop-color:#4285F4"/>
	</linearGradient>
	<path fill="url(#SVGID_8_)" d="M232,328h16v16h-16V328z"/>
	<linearGradient id="SVGID_9_" gradientUnits="userSpaceOnUse" x1="264" y1="336" x2="280" y2="336">
		<stop  offset="0" style="stop-color:#E2318F"/>
		<stop  offset="1" style="stop-color:#4285F4"/>
	</linearGradient>
	<path fill="url(#SVGID_9_)" d="M264,328h16v16h-16V328z"/>
	<linearGradient id="SVGID_10_" gradientUnits="userSpaceOnUse" x1="296" y1="336" x2="312" y2="336">
		<stop  offset="0" style="stop-color:#E2318F"/>
		<stop  offset="1" style="stop-color:#4285F4"/>
	</linearGradient>
	<path fill="url(#SVGID_10_)" d="M296,328h16v16h-16V328z"/>
</g>
</svg>
