<?xml version="1.0" encoding="utf-8"?>
<!-- Generator: Adobe Illustrator 16.0.0, SVG Export Plug-In . SVG Version: 6.00 Build 0)  -->
<!DOCTYPE svg PUBLIC "-//W3C//DTD SVG 1.1//EN" "http://www.w3.org/Graphics/SVG/1.1/DTD/svg11.dtd">
<svg version="1.1" id="Layer_1" xmlns="http://www.w3.org/2000/svg" xmlns:xlink="http://www.w3.org/1999/xlink" x="0px" y="0px"
	 width="512px" height="512px" viewBox="0 0 512 512" enable-background="new 0 0 512 512" xml:space="preserve">
<path fill="#EC56B4" d="M505.117,128.438l-40.961-40.961c-4.445-4.445-10.355-6.895-16.645-6.895
	c-6.285,0-12.195,2.449-16.641,6.895l-15.859,15.859V37.5c0-20.68-16.824-37.5-37.504-37.5H7.5C3.359,0,0,3.359,0,7.5v24.332
	c0,4.145,3.359,7.5,7.5,7.5s7.5-3.355,7.5-7.5V15h45v482H15V63.832c0-4.141-3.359-7.5-7.5-7.5S0,59.691,0,63.832V504.5
	c0,4.141,3.359,7.5,7.5,7.5h370.008c20.68,0,37.5-16.82,37.5-37.5v-26.418c0-4.141-3.355-7.5-7.5-7.5c-4.141,0-7.5,3.359-7.5,7.5
	V474.5c0,12.406-10.094,22.5-22.5,22.5H75.004V15h302.504c12.406,0,22.5,10.094,22.5,22.5v80.836l-47.5,47.5V136
	c0-6.34-5.16-11.5-11.5-11.5H139.004c-6.344,0-11.5,5.16-11.5,11.5v62c0,6.34,5.156,11.5,11.5,11.5h169.84l-58.973,58.969
	c-2.93,2.93-2.93,7.68,0,10.605c2.93,2.93,7.68,2.93,10.609,0l153.09-153.086l10.605,10.605L201.434,359.332l-10.605-10.605
	l47.023-47.023c2.93-2.93,2.93-7.676,0-10.605s-7.68-2.93-10.609,0l-52.328,52.328c-0.203,0.203-0.391,0.418-0.566,0.641
	c-0.035,0.047-0.07,0.098-0.105,0.145c-0.148,0.195-0.289,0.398-0.414,0.605c-0.039,0.059-0.07,0.121-0.109,0.18
	c-0.129,0.23-0.25,0.465-0.355,0.703c-0.016,0.035-0.035,0.066-0.047,0.102c-0.125,0.289-0.227,0.586-0.313,0.887
	c0,0.004-0.004,0.012-0.008,0.02l-22.535,80.57l-0.867,3.098c-0.008,0.023-0.016,0.051-0.02,0.078
	c-0.004,0.012-0.008,0.027-0.012,0.039c-0.246,0.941-0.375,1.879-0.387,2.801c-0.035,2.762,0.961,5.352,2.863,7.254
	c1.168,1.168,2.594,1.996,4.16,2.449c0.941,0.273,1.93,0.414,2.945,0.414c0.969,0,1.961-0.129,2.949-0.387
	c0.039-0.012,0.078-0.02,0.117-0.031l1.949-0.547l81.719-22.855c0.008-0.004,0.012-0.004,0.02-0.008
	c0.301-0.086,0.598-0.188,0.891-0.313c0.031-0.012,0.059-0.031,0.09-0.043c0.242-0.105,0.48-0.23,0.715-0.363
	c0.059-0.035,0.117-0.066,0.172-0.102c0.211-0.129,0.418-0.27,0.617-0.422c0.047-0.035,0.094-0.066,0.137-0.102
	c0.223-0.176,0.438-0.363,0.641-0.566l150.848-150.844v149.09c0,4.141,3.359,7.5,7.5,7.5c4.145,0,7.5-3.359,7.5-7.5v-164.09
	l90.109-90.105C514.293,152.547,514.293,137.613,505.117,128.438z M142.504,194.5v-55h195.004v41.336L323.844,194.5H142.504z
	 M434.785,147.203l10.605,10.605L222.648,380.547l-10.605-10.609L434.785,147.203z M193.891,418.555l-19.859-19.859l9.957-35.594
	l45.496,45.496L193.891,418.555z M169.398,415.273l7.914,7.914l-10.988,3.078L169.398,415.273z M243.863,401.758l-10.605-10.605
	l222.738-222.738l10.609,10.609L243.863,401.758z M494.512,151.117l-17.301,17.297l-53.031-53.031l17.297-17.297
	c1.613-1.613,3.758-2.5,6.035-2.5c2.281,0,4.426,0.887,6.039,2.5l40.961,40.961C497.84,142.371,497.84,147.789,494.512,151.117z"/>
</svg>
