<?xml version="1.0" encoding="utf-8"?>
<!-- Generator: Adobe Illustrator 16.0.0, SVG Export Plug-In . SVG Version: 6.00 Build 0)  -->
<!DOCTYPE svg PUBLIC "-//W3C//DTD SVG 1.1//EN" "http://www.w3.org/Graphics/SVG/1.1/DTD/svg11.dtd">
<svg version="1.1" id="Layer_1" xmlns="http://www.w3.org/2000/svg" xmlns:xlink="http://www.w3.org/1999/xlink" x="0px" y="0px"
	 width="960px" height="560px" viewBox="0 0 960 560" enable-background="new 0 0 960 560" xml:space="preserve">
<title>Vector Smart Object5</title>
<linearGradient id="SVGID_1_" gradientUnits="userSpaceOnUse" x1="221.8477" y1="279.6484" x2="759.875" y2="279.6484">
	<stop  offset="0" style="stop-color:#E2318F"/>
	<stop  offset="1" style="stop-color:#4285F4"/>
</linearGradient>
<path fill="url(#SVGID_1_)" d="M758.439,328.932L646.623,21.574c-4.521-12.313-18.159-18.638-30.479-14.138l-12.21,4.315
	c-12.192,4.59-18.357,18.193-13.771,30.387l0,0c-74.178,69.312-169.102,120.17-298.361,159.83
	c-5.632,1.667-10.299,5.634-12.853,10.924c-2.573,5.346-2.871,11.506-0.826,17.076c-45.415,19.947-67.547,71.722-50.583,118.334
	c17.02,46.755,67.551,72.121,115.213,57.836c2.007,5.578,6.177,10.111,11.567,12.577c2.553,1.093,5.302,1.655,8.079,1.652
	c3-0.024,5.966-0.648,8.721-1.836l14.78-6.151l66.649,119.345c11.607,20.463,37.605,27.641,58.068,16.033
	c20.217-11.469,27.508-37.027,16.384-57.437l-60.773-107.318c75.833-25.575,155.686-37.147,235.659-34.15l0,0
	c1.995,6.123,6.406,11.164,12.21,13.954c5.743,2.799,12.389,3.098,18.36,0.826l11.751-4.314
	c12.307-4.434,18.69-18.004,14.257-30.311C758.458,328.982,758.448,328.957,758.439,328.932z M315.488,399.16
	c-34.902-0.009-66.077-21.832-78.033-54.622c-15.132-41.044,4.35-86.77,44.433-104.289l56.643,155.515
	C331.056,398.007,323.293,399.151,315.488,399.16z M516.997,495.737c7.752,15.624,1.37,34.574-14.254,42.326
	c-14.56,7.224-32.225,2.218-40.828-11.571l-66.19-118.243c20.563-8.078,40.577-15.423,60.223-21.849L516.997,495.737z
	 M366.439,408.157c-2.604,1.14-5.566,1.14-8.17,0c-2.782-1.278-4.886-3.683-5.784-6.609l-64.262-175.437
	c-1.361-2.909-1.361-6.271,0-9.18c1.334-2.513,3.668-4.347,6.426-5.049C424,172.866,519.292,122.19,594.754,53.521l103.555,284.59
	c-101.994-4.406-207.659,17.993-331.869,70.321V408.157z M740.538,348.853l-11.843,4.314c-3.201,1.187-6.747,1.021-9.823-0.459
	c-3.052-1.435-5.424-4.004-6.609-7.16L600.446,38.374c-2.348-6.614,1.044-13.888,7.619-16.341l11.843-4.315
	c1.412-0.511,2.905-0.76,4.406-0.734c5.351,0.032,10.129,3.352,12.026,8.354l111.816,307.266
	C750.445,339.189,747.064,346.399,740.538,348.853z"/>
<linearGradient id="SVGID_2_" gradientUnits="userSpaceOnUse" x1="220.1328" y1="280.0176" x2="761.5527" y2="280.0176">
	<stop  offset="0" style="stop-color:#E2318F"/>
	<stop  offset="1" style="stop-color:#4285F4"/>
</linearGradient>
<path fill="url(#SVGID_2_)" d="M489.181,555.41c-15.983-0.125-30.642-8.912-38.282-22.951L384.8,413.758l-13.587,5.691
	c-5.71,2.477-12.191,2.477-17.901,0c-5.354-2.373-9.593-6.711-11.843-12.118c-8.443,2.446-17.19,3.683-25.98,3.672
	c-39.932,0.013-75.679-24.758-89.691-62.15c-16.899-46.912,5.186-98.924,50.675-119.344c-3.959-11.614,2.246-24.238,13.859-28.197
	c0.485-0.166,0.977-0.314,1.472-0.445c128.525-39.751,223.082-90.243,297.076-158.912c-1.992-6.036-1.598-12.606,1.102-18.361
	c2.759-6.051,7.763-10.792,13.954-13.219l11.751-4.223c13.029-4.747,27.442,1.946,32.223,14.964L760,328.38
	c4.785,12.988-1.863,27.396-14.852,32.183c-0.037,0.014-0.075,0.027-0.112,0.041l-11.843,4.314
	c-12.771,4.688-26.95-1.668-31.947-14.321c-78.818-2.955-157.524,8.303-232.354,33.232l58.846,106.217
	c11.805,21.225,4.167,47.999-17.058,59.803c-2.037,1.134-4.161,2.103-6.352,2.898C499.469,554.498,494.345,555.398,489.181,555.41z
	 M386.085,410.636l0.551,1.102l66.649,119.345c7.178,13.158,20.907,21.41,35.896,21.573c4.86,0.019,9.683-0.853,14.229-2.57
	c21.393-7.782,32.427-31.434,24.645-52.827c-0.744-2.044-1.647-4.025-2.704-5.927l-60.865-109.154l1.652-0.459
	c75.924-25.44,155.828-36.918,235.843-33.875h0.918v0.918c4.061,11.578,16.738,17.673,28.316,13.612
	c0.109-0.038,0.218-0.077,0.326-0.117l12.21-4.223c11.593-4.171,17.61-16.95,13.439-28.543c-0.012-0.033-0.024-0.066-0.036-0.1
	L645.338,22.033c-4.446-11.426-17.253-17.154-28.734-12.853l-11.751,4.315c-5.606,1.995-10.174,6.165-12.669,11.567
	c-2.482,5.373-2.746,11.508-0.734,17.075v0.826l-0.551,0.826c-74.177,68.853-169.102,119.711-298.544,159.738
	c-5.261,1.494-9.656,5.123-12.118,10.006c-2.454,4.991-2.72,10.779-0.735,15.974v1.193l-1.193,0.551
	c-46.899,20.309-68.455,74.791-48.146,121.69c14.652,33.837,47.995,55.746,84.868,55.766c8.96,0.007,17.872-1.323,26.439-3.947
	h1.193l0.459,1.193c1.867,5.246,5.773,9.517,10.833,11.843c5.01,2.159,10.688,2.159,15.698,0l14.78-6.151L386.085,410.636z
	 M489.272,544.394c-11.945,0.044-22.964-6.434-28.734-16.892l-66.833-119.896l1.469-0.643c20.472-8.079,40.761-15.423,60.314-21.849
	h1.102l61.601,110.622c8.813,16.1,2.907,36.296-13.192,45.109c-1.397,0.766-2.849,1.429-4.342,1.986
	C496.972,543.972,493.127,544.499,489.272,544.394z M397.469,408.983l65.272,117.142c8.138,14.576,26.551,19.796,41.128,11.658
	c14.576-8.138,19.796-26.551,11.659-41.128l0,0l-60.224-108.603c-18.728,6.701-38.098,13.22-57.652,20.931H397.469z
	 M361.757,410.728c-1.449,0.01-2.885-0.271-4.223-0.826c-3.111-1.419-5.479-4.086-6.518-7.344l-64.263-175.528
	c-1.342-3.137-1.342-6.686,0-9.823c1.503-2.876,4.128-5.002,7.253-5.875c128.524-39.751,223.725-90.243,298.636-158.819l2.111-1.377
	l0.734,1.928l104.381,286.609h-2.111c-100.984-4.406-206.558,18.361-330.492,70.229c-1.692,0.666-3.511,0.948-5.325,0.826H361.757z
	 M593.652,55.908c-74.911,68.21-169.744,118.518-298.085,158.085c-2.384,0.655-4.403,2.244-5.6,4.407
	c-1.062,2.461-1.062,5.25,0,7.711l64.262,175.437c0.737,2.555,2.545,4.664,4.958,5.783c2.289,0.97,4.872,0.97,7.161,0l0,0
	c123.384-52.328,228.406-74.728,329.39-70.688L593.652,55.908z M315.488,400.538c-35.472-0.042-67.147-22.222-79.318-55.541
	c-15.462-41.806,4.342-88.418,45.167-106.309h1.285l57.561,158.269h-1.377C331.237,399.223,323.389,400.428,315.488,400.538z
	 M281.154,242.177c-40.866,18.896-58.675,67.343-39.778,108.208c13.354,28.881,42.293,47.353,74.112,47.306
	c7.169-0.021,14.302-1.009,21.207-2.938L281.154,242.177z M724.288,355.462c-2.06,0.027-4.1-0.412-5.967-1.285
	c-3.384-1.619-6.014-4.479-7.345-7.986L599.16,38.833c-1.277-3.5-1.112-7.363,0.459-10.741c1.536-3.444,4.427-6.102,7.987-7.344
	l11.843-4.315c1.559-0.577,3.203-0.888,4.865-0.918c5.914-0.003,11.213,3.651,13.312,9.181l111.816,307.449
	c2.758,7.358-0.972,15.56-8.331,18.318c-0.038,0.014-0.076,0.028-0.114,0.042l-11.843,4.314
	C727.58,355.306,725.935,355.522,724.288,355.462z M624.314,18.361c-1.343-0.019-2.68,0.199-3.947,0.643l-11.843,4.314
	c-2.847,1.012-5.164,3.13-6.426,5.875c-1.148,2.794-1.148,5.928,0,8.721l111.449,307.266c1.048,2.876,3.193,5.221,5.967,6.518
	c2.794,1.147,5.928,1.147,8.722,0l11.751-4.314c5.906-2.157,8.977-8.667,6.885-14.597L634.964,25.797
	C633.36,21.303,629.086,18.318,624.314,18.361z"/>
</svg>
