<?xml version="1.0" encoding="utf-8"?>
<!-- Generator: Adobe Illustrator 16.0.0, SVG Export Plug-In . SVG Version: 6.00 Build 0)  -->
<!DOCTYPE svg PUBLIC "-//W3C//DTD SVG 1.1//EN" "http://www.w3.org/Graphics/SVG/1.1/DTD/svg11.dtd">
<svg version="1.1" id="Layer_1" xmlns="http://www.w3.org/2000/svg" xmlns:xlink="http://www.w3.org/1999/xlink" x="0px" y="0px"
	 width="960px" height="560px" viewBox="0 0 960 560" enable-background="new 0 0 960 560" xml:space="preserve">
<title>Vector Smart Object5</title>
<g>
	<linearGradient id="SVGID_1_" gradientUnits="userSpaceOnUse" x1="235.6108" y1="92.7217" x2="503.1348" y2="92.7217">
		<stop  offset="0" style="stop-color:#E2318F"/>
		<stop  offset="1" style="stop-color:#4285F4"/>
	</linearGradient>
	<path fill="url(#SVGID_1_)" d="M488.171,180.669v-40.761c0-65.731-49.574-119.344-110.165-119.344h-18.36
		c-29.697,0.291-57.855,13.251-77.39,35.62c-20.907,23.227-32.283,53.486-31.856,84.734v39.384h-14.78V141.01
		c-0.399-35.321,12.439-69.513,35.987-95.843c22.209-25.357,54.151-40.076,87.856-40.485h18.36
		c68.669,0,124.945,60.682,125.312,135.226v40.853L488.171,180.669z"/>
	<linearGradient id="SVGID_2_" gradientUnits="userSpaceOnUse" x1="287.856" y1="121.7773" x2="450.5313" y2="121.7773">
		<stop  offset="0" style="stop-color:#E2318F"/>
		<stop  offset="1" style="stop-color:#4285F4"/>
	</linearGradient>
	<path fill="url(#SVGID_2_)" d="M435.751,180.669v-32.958c0-37.823-28.275-68.577-62.977-68.577h-7.069
		c-34.702,0-62.977,30.754-62.977,68.577v32.958h-14.872v-32.958c0-46.728,34.977-84.826,77.849-84.826h7.069
		c42.872,0,77.757,38.098,77.757,84.826v32.958H435.751z"/>
	<linearGradient id="SVGID_3_" gradientUnits="userSpaceOnUse" x1="351.9312" y1="387.373" x2="398.5737" y2="387.373">
		<stop  offset="0" style="stop-color:#E2318F"/>
		<stop  offset="1" style="stop-color:#4285F4"/>
	</linearGradient>
	<path fill="url(#SVGID_3_)" d="M375.62,445.705c-5.07,0-9.18-4.11-9.18-9.181v-62.15l-3.489-2.203
		c-10.94-6.795-14.301-21.171-7.507-32.111s21.17-14.302,32.111-7.507c10.94,6.794,14.301,21.17,7.507,32.11
		c-1.892,3.046-4.461,5.615-7.507,7.508l-3.489,2.203v62.518C383.894,441.547,380.263,445.335,375.62,445.705z"/>
	<linearGradient id="SVGID_4_" gradientUnits="userSpaceOnUse" x1="174.9434" y1="382.957" x2="512.957" y2="382.957">
		<stop  offset="0" style="stop-color:#E2318F"/>
		<stop  offset="1" style="stop-color:#4285F4"/>
	</linearGradient>
	<path fill="url(#SVGID_4_)" d="M433.915,552.84H247.462c-1.141-0.015-2.266-0.265-3.305-0.735
		c-58.754-28.826-68.761-97.495-69.128-100.433V254.387c-0.777-12.117,3.745-23.976,12.394-32.498
		c6.957-6.054,16.051-9.063,25.246-8.354c0,0,73.442,0,145.967-0.459c36.721,0,73.443,0,100.984,0c51.593,0,51.593,0,53.337,5.784
		l-14.688,4.223l7.345-1.928l-0.918,7.528c-7.712-0.551-179.2,0-292.669,0c-5.186-0.361-10.312,1.282-14.321,4.59
		c-5.132,5.738-7.629,13.361-6.885,21.023v196.367l0,0c0,0,9.18,61.417,59.029,86.846h184.066c4.223,0.051,7.62,3.488,7.619,7.712
		C441.534,549.428,438.123,552.84,433.915,552.84L433.915,552.84z"/>
	<linearGradient id="SVGID_5_" gradientUnits="userSpaceOnUse" x1="428.1309" y1="371.1758" x2="785.3379" y2="371.1758">
		<stop  offset="0" style="stop-color:#E2318F"/>
		<stop  offset="1" style="stop-color:#4285F4"/>
	</linearGradient>
	<path fill="url(#SVGID_5_)" d="M662.872,275.41v-19.278l23.686-47.279c1.869-3.6,0.466-8.033-3.134-9.902
		c-2.86-1.486-6.355-0.932-8.617,1.365c-9.77,10.647-26.32,11.359-36.967,1.59c-0.553-0.507-1.084-1.038-1.591-1.59
		c-15.176-16.352-40.733-17.304-57.085-2.128c-0.735,0.683-1.445,1.392-2.128,2.128c-9.77,10.647-26.32,11.359-36.967,1.59
		c-0.553-0.507-1.084-1.038-1.591-1.59c-2.846-2.89-7.496-2.926-10.386-0.08c-2.297,2.262-2.851,5.757-1.365,8.618l23.686,47.279
		v19.278c-18.36,15.423-122.282,103.921-122.282,174.426c0,103.922,104.105,105.115,105.207,105.115h146.885
		c1.102,0,105.115-1.193,105.115-105.115C785.063,379.606,681.508,291.108,662.872,275.41z M648.184,271.554h-82.623v-9.548h82.623
		V271.554z M587.41,211.147c9.871-10.622,26.484-11.23,37.105-1.359c0.47,0.437,0.924,0.89,1.359,1.359
		c9.591,9.713,23.198,14.34,36.722,12.485l-11.567,24.236h-88.773l-12.118-24.236C563.906,226.531,578.165,221.754,587.41,211.147z
		 M679.947,540.722H533.063c-3.764,0-90.519-1.286-90.519-90.427c0-64.262,101.994-150.924,117.509-163.777h92.813
		c15.607,12.854,117.601,99.699,117.601,163.777C770.466,539.436,683.62,540.722,679.947,540.722z"/>
	<linearGradient id="SVGID_6_" gradientUnits="userSpaceOnUse" x1="576.6309" y1="421.0557" x2="639.9453" y2="421.0557">
		<stop  offset="0" style="stop-color:#E2318F"/>
		<stop  offset="1" style="stop-color:#4285F4"/>
	</linearGradient>
	<path fill="url(#SVGID_6_)" d="M621.377,443.686c0.147-3.062-0.906-6.06-2.938-8.354c-2.823-2.655-6.214-4.634-9.915-5.783
		c-4.107-1.507-8.124-3.254-12.026-5.233c-3.325-1.509-6.417-3.488-9.18-5.875c-2.361-2.279-4.263-4.99-5.601-7.987
		c-1.439-3.425-2.129-7.118-2.02-10.832c-0.235-6.602,2.255-13.009,6.886-17.719c4.978-4.771,11.479-7.631,18.36-8.078v-13.679
		h10.19v13.862c6.895,0.661,13.271,3.948,17.81,9.18c4.706,5.868,7.149,13.23,6.885,20.748h-18.36
		c0.256-4.107-0.876-8.181-3.213-11.567c-2.096-2.476-5.204-3.86-8.446-3.764c-3.009-0.17-5.958,0.891-8.17,2.938
		c-2.001,2.271-3.024,5.24-2.847,8.263c-0.141,2.861,0.849,5.663,2.755,7.803c3.072,2.713,6.664,4.774,10.558,6.06
		c4.307,1.668,8.507,3.6,12.576,5.783c3.029,1.652,5.812,3.723,8.263,6.15c2.256,2.22,4.036,4.874,5.232,7.804
		c1.231,3.285,1.823,6.774,1.744,10.282c0.301,6.566-2.163,12.959-6.793,17.626c-4.996,4.73-11.494,7.557-18.36,7.986v12.669H604.21
		v-12.668c-7.704-0.396-14.979-3.673-20.381-9.181c-4.983-5.872-7.544-13.422-7.16-21.115h18.36
		c-0.298,4.239,1.014,8.436,3.672,11.751c2.702,2.797,6.492,4.273,10.374,4.039c3.342,0.254,6.646-0.837,9.181-3.029
		C620.457,449.677,621.603,446.71,621.377,443.686z"/>
</g>
</svg>
