<?xml version="1.0" encoding="utf-8"?>
<!-- Generator: Adobe Illustrator 16.0.0, SVG Export Plug-In . SVG Version: 6.00 Build 0)  -->
<!DOCTYPE svg PUBLIC "-//W3C//DTD SVG 1.1//EN" "http://www.w3.org/Graphics/SVG/1.1/DTD/svg11.dtd">
<svg version="1.1" id="Layer_1" xmlns="http://www.w3.org/2000/svg" xmlns:xlink="http://www.w3.org/1999/xlink" x="0px" y="0px"
	 width="496px" height="496px" viewBox="0 0 496 496" enable-background="new 0 0 496 496" xml:space="preserve">
<g display="none">
	<path display="inline" fill="#EC56B4" d="M494.485,243.301l-37.249-51.385l6.602-63.107c0.359-3.449-1.539-6.734-4.707-8.144
		l-57.979-25.8l-25.8-57.982c-1.418-3.16-4.699-5.055-8.145-4.711l-63.119,6.598L252.707,1.523c-2.801-2.031-6.59-2.031-9.391,0
		l-51.385,37.245l-63.115-6.598c-3.441-0.328-6.71,1.563-8.144,4.703l-25.8,57.982l-57.982,25.808
		c-3.164,1.406-5.063,4.691-4.703,8.136l6.598,63.115L1.539,243.301c-2.031,2.801-2.031,6.589,0,9.39l37.245,51.382l-6.598,63.119
		c-0.363,3.445,1.535,6.733,4.703,8.144l57.982,25.801l25.8,57.982c1.426,3.148,4.699,5.043,8.144,4.711l63.115-6.602l51.385,37.249
		c2.801,2.031,6.59,2.031,9.391,0l51.381-37.249l63.119,6.602c3.445,0.348,6.723-1.547,8.145-4.703l25.8-57.982l57.979-25.809
		c3.164-1.41,5.063-4.69,4.707-8.136l-6.602-63.119l37.249-51.382C496.521,249.898,496.521,246.102,494.485,243.301z
		 M442.486,297.163c-1.16,1.598-1.688,3.566-1.48,5.527l6.305,60.381l-55.479,24.698c-1.813,0.797-3.266,2.242-4.066,4.055
		l-24.679,55.479l-60.397-6.312c-1.961-0.203-3.926,0.328-5.52,1.488l-49.158,35.632l-49.167-35.632
		c-1.363-0.996-3.004-1.531-4.688-1.527c-0.281,0-0.563,0-0.801,0.039l-60.4,6.312l-24.679-55.479
		c-0.805-1.813-2.25-3.262-4.062-4.066l-55.51-24.687l6.305-60.381c0.203-1.961-0.324-3.93-1.48-5.527l-35.632-49.167l35.632-49.167
		c1.156-1.598,1.684-3.566,1.48-5.527l-6.305-60.385l55.479-24.694c1.813-0.797,3.261-2.242,4.062-4.055l24.679-55.479l60.4,6.313
		c1.957,0.195,3.922-0.336,5.52-1.488l49.167-35.632l49.166,35.632c1.594,1.156,3.559,1.684,5.52,1.488l60.397-6.313l24.679,55.479
		c0.805,1.813,2.254,3.258,4.066,4.063l55.479,24.687l-6.305,60.385c-0.207,1.961,0.32,3.93,1.48,5.527l35.628,49.167
		L442.486,297.163z"/>
	<path display="inline" fill="#EC56B4" d="M341.423,157.304c-3.125-3.125-8.188-3.125-11.312,0L200.013,287.402l-39.624-39.55
		c-3.121-3.113-8.175-3.113-11.296,0l-22.679,22.542c-1.504,1.5-2.351,3.539-2.351,5.664s0.847,4.164,2.351,5.664l67.92,67.92
		c3.121,3.121,8.188,3.121,11.313,0L364.04,191.244c3.12-3.121,3.12-8.187,0-11.312L341.423,157.304z M200.013,332.682l-56.6-56.6
		l11.313-11.285l39.639,39.558c3.121,3.116,8.18,3.116,11.305,0l130.097-130.086l11.328,11.328L200.013,332.682z"/>
</g>
<g display="none">
	<path display="inline" fill="#EC56B4" d="M378.306,212.857c-0.008-0.092-0.023-0.185-0.032-0.277
		c-0.063-0.449-0.152-0.898-0.272-1.343c0-0.004-0.008-0.008-0.008-0.012c-0.112-0.417-0.257-0.826-0.417-1.231
		c-0.048-0.117-0.097-0.225-0.145-0.341c-0.137-0.293-0.272-0.578-0.433-0.862c-0.064-0.125-0.137-0.249-0.209-0.369
		c-0.04-0.064-0.072-0.132-0.112-0.201c-0.16-0.261-0.345-0.505-0.529-0.75c-0.032-0.048-0.064-0.096-0.096-0.14
		c-0.273-0.361-0.578-0.698-0.898-1.015c-0.057-0.06-0.12-0.116-0.177-0.172c-0.28-0.265-0.562-0.513-0.857-0.746
		c-0.072-0.06-0.152-0.116-0.233-0.177c-0.393-0.292-0.802-0.565-1.234-0.806l-164.222-93.35l94.557-59.54l158.52,90.106
		l-66.761,42.038c-5.205,3.28-6.777,10.165-3.489,15.373c3.272,5.208,10.153,6.772,15.365,3.493l82.52-51.962
		c3.32-2.085,5.293-5.762,5.213-9.684c-0.096-3.917-2.229-7.502-5.646-9.439L308.2,28.844c-3.568-2.029-7.963-1.929-11.443,0.26
		l-115.885,72.969c-0.024,0.016-0.048,0.032-0.072,0.044l-57.908,36.464c-0.024,0.016-0.052,0.036-0.076,0.052L6.851,211.654
		c-3.316,2.089-5.293,5.766-5.205,9.684c0.088,3.921,2.229,7.502,5.638,9.443l180.513,102.608c1.708,0.971,3.609,1.452,5.505,1.452
		c2.069,0,4.13-0.569,5.942-1.708l82.515-51.966c5.213-3.28,6.776-10.169,3.497-15.373c-3.28-5.205-10.169-6.777-15.373-3.489
		l-76.875,48.405L34.49,220.596l94.557-59.54l169.073,96.1V384.44c0,4.058,2.205,7.795,5.758,9.76
		c1.684,0.922,3.528,1.388,5.389,1.388c2.069,0,4.122-0.578,5.935-1.717l57.98-36.504c3.239-2.045,5.213-5.613,5.213-9.438V214.161
		c0-0.064-0.017-0.128-0.017-0.192C378.378,213.599,378.346,213.226,378.306,212.857z M320.414,364.248V250.673
		c0-4.01-2.157-7.71-5.646-9.691L150.45,147.58l36.577-23.036l158.52,90.11l-13.874,8.737c-5.213,3.28-6.784,10.165-3.496,15.374
		c2.117,3.364,5.741,5.208,9.446,5.208c2.021,0,4.074-0.553,5.919-1.716l12.558-7.903v107.424L320.414,364.248z"/>
	<path display="inline" fill="#EC56B4" d="M477.266,176.297l-82.512,51.962c-5.213,3.28-6.785,10.165-3.497,15.373
		c2.117,3.364,5.742,5.209,9.447,5.209c2.021,0,4.074-0.554,5.918-1.716l82.52-51.962c5.213-3.276,6.776-10.161,3.497-15.369
		C489.358,174.581,482.478,173.017,477.266,176.297z"/>
	<path display="inline" fill="#EC56B4" d="M269.884,306.893l-76.875,48.405l-174.71-99.313c-5.349-3.039-12.158-1.171-15.197,4.187
		c-3.043,5.349-1.171,12.157,4.182,15.197l180.513,102.607c1.708,0.971,3.609,1.46,5.505,1.46c2.065,0,4.13-0.577,5.938-1.716
		l82.519-51.966c5.213-3.28,6.776-10.169,3.497-15.373C281.977,305.177,275.088,303.605,269.884,306.893z"/>
	<path display="inline" fill="#EC56B4" d="M477.266,220.889l-82.512,51.962c-5.213,3.28-6.785,10.16-3.497,15.373
		c2.117,3.368,5.742,5.205,9.447,5.205c2.021,0,4.074-0.554,5.918-1.717l82.52-51.958c5.213-3.28,6.776-10.165,3.497-15.373
		C489.358,219.168,482.478,217.605,477.266,220.889z"/>
	<path display="inline" fill="#EC56B4" d="M269.884,351.48l-76.875,48.405l-174.71-99.313c-5.349-3.039-12.158-1.171-15.197,4.187
		c-3.043,5.349-1.171,12.157,4.182,15.197l180.513,102.607c1.708,0.971,3.609,1.46,5.505,1.46c2.065,0,4.13-0.577,5.938-1.716
		l82.519-51.966c5.213-3.28,6.776-10.161,3.497-15.365C281.977,349.765,275.088,348.193,269.884,351.48z"/>
	<path display="inline" fill="#EC56B4" d="M477.266,265.48l-82.512,51.958c-5.213,3.28-6.785,10.16-3.497,15.373
		c2.117,3.368,5.742,5.213,9.447,5.213c2.021,0,4.074-0.562,5.918-1.716l82.52-51.966c5.213-3.28,6.776-10.169,3.497-15.374
		C489.358,263.765,482.478,262.192,477.266,265.48z"/>
	<path display="inline" fill="#EC56B4" d="M269.884,396.068l-76.875,48.405l-174.71-99.313c-5.349-3.039-12.158-1.171-15.197,4.187
		c-3.043,5.349-1.171,12.157,4.182,15.197l180.513,102.607c1.708,0.971,3.609,1.46,5.505,1.46c2.065,0,4.13-0.577,5.938-1.716
		l82.519-51.966c5.213-3.272,6.776-10.161,3.497-15.365C281.977,394.353,275.088,392.781,269.884,396.068z"/>
</g>
<g>
	<path fill="#EC56B4" d="M264,424h-32c-4.424,0-8,3.576-8,8v64h16v-56h16v56h16v-64C272,427.576,268.424,424,264,424z"/>
	<path fill="#EC56B4" d="M288,296h16v40h-16V296z"/>
	<path fill="#EC56B4" d="M288,248h-40h-40c-22.056,0-40,17.943-40,40v64c0,4.424,3.576,8,8,8h16v136h16v-88h80v88h16V360h16
		c4.424,0,8-3.576,8-8v-64C328,265.943,310.056,248,288,248z M288,392h-80v-32h80V392z M312,344H184v-56c0-13.232,10.768-24,24-24
		h80c13.232,0,24,10.768,24,24V344z"/>
	<path fill="#EC56B4" d="M208,296h-16v32c0,4.424,3.576,8,8,8h72v-16h-64V296z"/>
	<path fill="#EC56B4" d="M280,216v-16c0-17.648-14.352-32-32-32c-17.648,0-32,14.352-32,32v16c0,17.648,14.352,32,32,32
		C265.648,248,280,233.648,280,216z M264,216c0,8.824-7.176,16-16,16s-16-7.176-16-16v-16c0-8.824,7.176-16,16-16s16,7.176,16,16
		V216z"/>
	<path fill="#EC56B4" d="M491.576,40.84l-80-40c-2.248-1.128-4.904-1.128-7.16,0l-80,40C321.712,42.2,320,44.968,320,48v80
		c0,3.032,1.712,5.8,4.424,7.16l80,40c1.12,0.56,2.353,0.84,3.576,0.84s2.456-0.28,3.576-0.84l80-40
		c2.712-1.36,4.424-4.128,4.424-7.16V48C496,44.968,494.288,42.2,491.576,40.84z M336,52.944l64-32v12.192
		C386.232,36.712,376,49.128,376,64c0,17.648,14.352,32,32,32c8.824,0,16,7.176,16,16s-7.176,16-16,16s-16-7.176-16-16h-16
		c0,14.872,10.232,27.288,24,30.864v12.192l-64-32V52.944z M480,123.056l-64,32v-12.192c13.768-3.576,24-15.992,24-30.864
		c0-17.648-14.352-32-32-32c-8.824,0-16-7.176-16-16s7.176-16,16-16s16,7.176,16,16h16c0-14.872-10.232-27.288-24-30.864V20.944
		l64,32V123.056z"/>
	<path fill="#EC56B4" d="M368,256c-13.232,0-24,10.768-24,24s10.768,24,24,24s24-10.768,24-24S381.232,256,368,256z M368,288
		c-4.416,0-8-3.584-8-8s3.584-8,8-8s8,3.584,8,8S372.416,288,368,288z"/>
	<path fill="#EC56B4" d="M408,192c-17.648,0-32,14.352-32,32s14.352,32,32,32s32-14.352,32-32S425.648,192,408,192z M408,240
		c-8.824,0-16-7.176-16-16s7.176-16,16-16s16,7.176,16,16S416.824,240,408,240z"/>
	<path fill="#EC56B4" d="M88,176c1.224,0,2.456-0.28,3.576-0.84l80-40c2.712-1.36,4.424-4.128,4.424-7.16V48
		c0-3.032-1.712-5.8-4.424-7.16l-80-40c-2.248-1.128-4.904-1.128-7.16,0l-80,40C1.712,42.2,0,44.968,0,48v80
		c0,3.032,1.712,5.8,4.424,7.16l80,40C85.544,175.72,86.776,176,88,176L88,176z M16,52.944l72-36l72,36v70.112l-16,8V56h-16v83.056
		l-16,8V72H96v83.056l-8,4l-8-4V88H64v59.056l-16-8V104H32v27.056l-16-8V52.944z"/>
	<path fill="#EC56B4" d="M128,256c-13.232,0-24,10.768-24,24s10.768,24,24,24s24-10.768,24-24S141.232,256,128,256z M128,288
		c-4.416,0-8-3.584-8-8s3.584-8,8-8s8,3.584,8,8S132.416,288,128,288z"/>
	<path fill="#EC56B4" d="M120,224c0-17.648-14.352-32-32-32s-32,14.352-32,32s14.352,32,32,32S120,241.648,120,224z M88,240
		c-8.824,0-16-7.176-16-16s7.176-16,16-16s16,7.176,16,16S96.824,240,88,240z"/>
</g>
</svg>
