<?xml version="1.0" encoding="utf-8"?>
<!-- Generator: Adobe Illustrator 16.0.0, SVG Export Plug-In . SVG Version: 6.00 Build 0)  -->
<!DOCTYPE svg PUBLIC "-//W3C//DTD SVG 1.1//EN" "http://www.w3.org/Graphics/SVG/1.1/DTD/svg11.dtd">
<svg version="1.1" id="Layer_1" xmlns="http://www.w3.org/2000/svg" xmlns:xlink="http://www.w3.org/1999/xlink" x="0px" y="0px"
	 width="496px" height="496px" viewBox="0 0 496 496" enable-background="new 0 0 496 496" xml:space="preserve">
<path fill="#EC56B4" d="M494.485,243.301l-37.249-51.385l6.602-63.107c0.359-3.449-1.539-6.734-4.707-8.144l-57.979-25.8
	l-25.8-57.982c-1.418-3.16-4.699-5.055-8.145-4.711l-63.119,6.598L252.707,1.523c-2.801-2.031-6.59-2.031-9.391,0l-51.385,37.245
	l-63.115-6.598c-3.441-0.328-6.71,1.563-8.144,4.703l-25.8,57.982l-57.982,25.808c-3.164,1.406-5.063,4.691-4.703,8.136
	l6.598,63.115L1.539,243.301c-2.031,2.801-2.031,6.589,0,9.39l37.245,51.382l-6.598,63.119c-0.363,3.445,1.535,6.733,4.703,8.144
	l57.982,25.801l25.8,57.982c1.426,3.148,4.699,5.043,8.144,4.711l63.115-6.602l51.385,37.249c2.801,2.031,6.59,2.031,9.391,0
	l51.381-37.249l63.119,6.602c3.445,0.348,6.723-1.547,8.145-4.703l25.8-57.982l57.979-25.809c3.164-1.41,5.063-4.69,4.707-8.136
	l-6.602-63.119l37.249-51.382C496.521,249.898,496.521,246.102,494.485,243.301z M442.486,297.163
	c-1.16,1.598-1.688,3.566-1.48,5.527l6.305,60.381l-55.479,24.698c-1.813,0.797-3.266,2.242-4.066,4.055l-24.679,55.479
	l-60.397-6.312c-1.961-0.203-3.926,0.328-5.52,1.488l-49.158,35.632l-49.167-35.632c-1.363-0.996-3.004-1.531-4.688-1.527
	c-0.281,0-0.563,0-0.801,0.039l-60.4,6.312l-24.679-55.479c-0.805-1.813-2.25-3.262-4.062-4.066l-55.51-24.687l6.305-60.381
	c0.203-1.961-0.324-3.93-1.48-5.527l-35.632-49.167l35.632-49.167c1.156-1.598,1.684-3.566,1.48-5.527l-6.305-60.385l55.479-24.694
	c1.813-0.797,3.261-2.242,4.062-4.055l24.679-55.479l60.4,6.313c1.957,0.195,3.922-0.336,5.52-1.488l49.167-35.632l49.166,35.632
	c1.594,1.156,3.559,1.684,5.52,1.488l60.397-6.313l24.679,55.479c0.805,1.813,2.254,3.258,4.066,4.063l55.479,24.687l-6.305,60.385
	c-0.207,1.961,0.32,3.93,1.48,5.527l35.628,49.167L442.486,297.163z"/>
<path fill="#EC56B4" d="M341.423,157.304c-3.125-3.125-8.188-3.125-11.312,0L200.013,287.402l-39.624-39.55
	c-3.121-3.113-8.175-3.113-11.296,0l-22.679,22.542c-1.504,1.5-2.351,3.539-2.351,5.664s0.847,4.164,2.351,5.664l67.92,67.92
	c3.121,3.121,8.188,3.121,11.313,0L364.04,191.244c3.12-3.121,3.12-8.187,0-11.312L341.423,157.304z M200.013,332.682l-56.6-56.6
	l11.313-11.285l39.639,39.558c3.121,3.116,8.18,3.116,11.305,0l130.097-130.086l11.328,11.328L200.013,332.682z"/>
</svg>
