<?xml version="1.0" encoding="utf-8"?>
<!-- Generator: Adobe Illustrator 16.0.0, SVG Export Plug-In . SVG Version: 6.00 Build 0)  -->
<!DOCTYPE svg PUBLIC "-//W3C//DTD SVG 1.1//EN" "http://www.w3.org/Graphics/SVG/1.1/DTD/svg11.dtd">
<svg version="1.1" id="Layer_1" xmlns="http://www.w3.org/2000/svg" xmlns:xlink="http://www.w3.org/1999/xlink" x="0px" y="0px"
	 width="960px" height="560px" viewBox="0 0 960 560" enable-background="new 0 0 960 560" xml:space="preserve">
<title>Vector Smart Object5</title>
<g>
	<linearGradient id="SVGID_1_" gradientUnits="userSpaceOnUse" x1="303.9214" y1="373.4561" x2="390.9507" y2="373.4561">
		<stop  offset="0" style="stop-color:#E2318F"/>
		<stop  offset="1" style="stop-color:#4285F4"/>
	</linearGradient>
	<path fill="url(#SVGID_1_)" d="M347.436,416.971c-24.033,0-43.515-19.482-43.515-43.515c0-24.033,19.482-43.516,43.515-43.515
		c23.997,0,43.464,19.426,43.515,43.423C390.951,397.411,371.483,416.92,347.436,416.971z M347.436,342.426
		c-17.137-0.05-31.07,13.801-31.121,30.938c-0.05,17.137,13.801,31.07,30.938,31.121c17.137,0.05,31.07-13.801,31.121-30.938
		c0-0.061,0-0.122,0-0.183C378.323,356.299,364.501,342.477,347.436,342.426z"/>
	<linearGradient id="SVGID_2_" gradientUnits="userSpaceOnUse" x1="243.1982" y1="215.4668" x2="353.8623" y2="215.4668">
		<stop  offset="0" style="stop-color:#E2318F"/>
		<stop  offset="1" style="stop-color:#4285F4"/>
	</linearGradient>
	<path fill="url(#SVGID_2_)" d="M249.298,236.944c-3.447-0.079-6.177-2.937-6.099-6.383c0.045-2.004,1.051-3.864,2.702-5
		c29.906-20.624,65.39-31.641,101.718-31.58c3.448,0,6.243,2.795,6.243,6.243s-2.795,6.243-6.243,6.243
		c-33.774-0.056-66.761,10.192-94.557,29.377C251.971,236.63,250.642,237.019,249.298,236.944z"/>
	<linearGradient id="SVGID_3_" gradientUnits="userSpaceOnUse" x1="407.5674" y1="209.8623" x2="458.9829" y2="209.8623">
		<stop  offset="0" style="stop-color:#E2318F"/>
		<stop  offset="1" style="stop-color:#4285F4"/>
	</linearGradient>
	<path fill="url(#SVGID_3_)" d="M452.643,293.771H413.81c-3.462-0.05-6.243-2.872-6.242-6.335V132.197
		c0-3.448,2.795-6.243,6.242-6.243l0,0h38.833c3.447-0.051,6.283,2.703,6.334,6.15c0,0.031,0,0.062,0,0.093V287.16
		c0.152,3.496-2.558,6.452-6.053,6.604C452.83,293.769,452.736,293.771,452.643,293.771z M420.328,280.918h26.256V138.439h-26.256
		V280.918z"/>
	<linearGradient id="SVGID_4_" gradientUnits="userSpaceOnUse" x1="475.96" y1="177.8682" x2="527.6514" y2="177.8682">
		<stop  offset="0" style="stop-color:#E2318F"/>
		<stop  offset="1" style="stop-color:#4285F4"/>
	</linearGradient>
	<path fill="url(#SVGID_4_)" d="M521.312,293.771h-39.108c-3.447,0.001-6.243-2.794-6.243-6.242c0-0.03,0-0.062,0.001-0.093V68.21
		c-0.052-3.396,2.661-6.191,6.058-6.243c0.062-0.001,0.123-0.001,0.185,0h39.108c3.447-0.051,6.283,2.703,6.334,6.15
		c0,0.031,0,0.062,0,0.093v218.95c0.152,3.496-2.558,6.452-6.053,6.604C521.499,293.769,521.405,293.771,521.312,293.771z
		 M488.538,280.918h26.255V74.453h-26.255V280.918z"/>
	<linearGradient id="SVGID_5_" gradientUnits="userSpaceOnUse" x1="544.3535" y1="191.043" x2="595.7637" y2="191.043">
		<stop  offset="0" style="stop-color:#E2318F"/>
		<stop  offset="1" style="stop-color:#4285F4"/>
	</linearGradient>
	<path fill="url(#SVGID_5_)" d="M589.43,293.771h-38.833c-3.447,0.001-6.243-2.794-6.243-6.242c0-0.03,0-0.062,0.001-0.093V94.649
		c-0.051-3.448,2.702-6.283,6.149-6.334c0.031,0,0.063,0,0.093,0h38.833c3.498,0,6.334,2.836,6.334,6.334v192.786
		C595.764,290.935,592.928,293.771,589.43,293.771z M556.932,280.918h26.255V100.983h-26.255V280.918z"/>
	<linearGradient id="SVGID_6_" gradientUnits="userSpaceOnUse" x1="612.7471" y1="149.1807" x2="664.0762" y2="149.1807">
		<stop  offset="0" style="stop-color:#E2318F"/>
		<stop  offset="1" style="stop-color:#4285F4"/>
	</linearGradient>
	<path fill="url(#SVGID_6_)" d="M657.823,293.771H618.99c-3.447,0.001-6.243-2.794-6.243-6.242c0-0.03,0-0.062,0-0.093V10.833
		c0-3.448,2.796-6.243,6.243-6.243l0,0h38.833c3.447,0,6.242,2.795,6.242,6.243l0,0V287.16c0.203,3.442-2.423,6.396-5.864,6.6
		C658.075,293.768,657.949,293.771,657.823,293.771z M625.232,280.918h26.348V17.167h-26.348V280.918z"/>
	<linearGradient id="SVGID_7_" gradientUnits="userSpaceOnUse" x1="681.1396" y1="248.6025" x2="732.4697" y2="248.6025">
		<stop  offset="0" style="stop-color:#E2318F"/>
		<stop  offset="1" style="stop-color:#4285F4"/>
	</linearGradient>
	<path fill="url(#SVGID_7_)" d="M726.217,293.771h-38.833c-3.448,0.001-6.243-2.794-6.243-6.242c0-0.03,0-0.062,0-0.093v-77.757
		c-0.051-3.396,2.661-6.191,6.058-6.243c0.062-0.001,0.124-0.001,0.186,0h38.833c3.396-0.051,6.191,2.661,6.242,6.058
		c0.001,0.062,0.001,0.124,0,0.185v77.481c0.203,3.442-2.423,6.396-5.864,6.6C726.469,293.768,726.343,293.771,726.217,293.771z
		 M693.626,280.918h26.348v-64.905h-26.348V280.918z"/>
	<linearGradient id="SVGID_8_" gradientUnits="userSpaceOnUse" x1="407.5674" y1="287.4824" x2="760.8262" y2="287.4824">
		<stop  offset="0" style="stop-color:#E2318F"/>
		<stop  offset="1" style="stop-color:#4285F4"/>
	</linearGradient>
	<path fill="url(#SVGID_8_)" d="M754.584,293.771H413.81c-3.462-0.05-6.243-2.872-6.242-6.335c0-3.447,2.795-6.242,6.242-6.242l0,0
		h340.774c3.447,0,6.242,2.795,6.242,6.242l0,0C760.826,290.898,758.046,293.721,754.584,293.771z"/>
	<linearGradient id="SVGID_9_" gradientUnits="userSpaceOnUse" x1="632.1182" y1="327.876" x2="760.8262" y2="327.876">
		<stop  offset="0" style="stop-color:#E2318F"/>
		<stop  offset="1" style="stop-color:#4285F4"/>
	</linearGradient>
	<path fill="url(#SVGID_9_)" d="M754.584,334.164H638.452c-3.447,0.051-6.283-2.703-6.333-6.15c-0.001-0.03-0.001-0.062-0.001-0.093
		c0-3.498,2.836-6.334,6.334-6.334h116.132c3.462,0.05,6.242,2.871,6.242,6.334C760.826,331.369,758.031,334.164,754.584,334.164
		L754.584,334.164z"/>
	<linearGradient id="SVGID_10_" gradientUnits="userSpaceOnUse" x1="625.0488" y1="500.6953" x2="676.459" y2="500.6953">
		<stop  offset="0" style="stop-color:#E2318F"/>
		<stop  offset="1" style="stop-color:#4285F4"/>
	</linearGradient>
	<path fill="url(#SVGID_10_)" d="M650.754,526.4c-14.196,0-25.705-11.509-25.705-25.705s11.509-25.705,25.705-25.705
		s25.705,11.509,25.705,25.705l0,0C676.408,514.87,664.93,526.35,650.754,526.4z M650.754,487.567
		c-7.25,0-13.128,5.877-13.128,13.128c0,7.25,5.878,13.128,13.128,13.128s13.128-5.878,13.128-13.128
		C663.882,493.444,658.004,487.567,650.754,487.567L650.754,487.567z"/>
	<linearGradient id="SVGID_11_" gradientUnits="userSpaceOnUse" x1="693.4424" y1="397.2324" x2="744.8525" y2="397.2324">
		<stop  offset="0" style="stop-color:#E2318F"/>
		<stop  offset="1" style="stop-color:#4285F4"/>
	</linearGradient>
	<path fill="url(#SVGID_11_)" d="M719.147,422.938c-14.196,0-25.705-11.508-25.705-25.705c0-14.196,11.509-25.704,25.705-25.704
		s25.705,11.508,25.705,25.704l0,0C744.802,411.408,733.323,422.888,719.147,422.938z M719.147,384.104
		c-7.249,0.102-13.044,6.061-12.943,13.311c0.102,7.25,6.062,13.044,13.311,12.943c7.178-0.101,12.943-5.947,12.944-13.126
		c0.001-7.25-5.876-13.128-13.127-13.129C719.271,384.104,719.209,384.104,719.147,384.104z"/>
	<linearGradient id="SVGID_12_" gradientUnits="userSpaceOnUse" x1="400.498" y1="334.2559" x2="451.9082" y2="334.2559">
		<stop  offset="0" style="stop-color:#E2318F"/>
		<stop  offset="1" style="stop-color:#4285F4"/>
	</linearGradient>
	<path fill="url(#SVGID_12_)" d="M426.203,308.551c-14.196,0-25.705,11.509-25.705,25.705s11.509,25.705,25.705,25.705
		s25.705-11.509,25.705-25.705l0,0C451.908,320.06,440.399,308.551,426.203,308.551z M426.203,347.384
		c-7.301,0.051-13.26-5.827-13.311-13.128s5.827-13.261,13.128-13.311c7.301-0.051,13.26,5.826,13.311,13.127
		c0.001,0.062,0.001,0.122,0,0.184C439.281,341.485,433.433,347.334,426.203,347.384z"/>
	<linearGradient id="SVGID_13_" gradientUnits="userSpaceOnUse" x1="206.7637" y1="393.1934" x2="488.582" y2="393.1934">
		<stop  offset="0" style="stop-color:#E2318F"/>
		<stop  offset="1" style="stop-color:#4285F4"/>
	</linearGradient>
	<path fill="url(#SVGID_13_)" d="M462.282,314.793c31.939,63.106,6.674,140.156-56.433,172.096
		c-10.648,5.39-21.998,9.265-33.718,11.512c-1.767,0.38-3.296,1.478-4.223,3.029l-20.472,35.436l-20.472-35.436
		c-0.9-1.576-2.442-2.682-4.223-3.029c-69.614-13.872-114.802-81.55-100.931-151.163c11.948-59.962,64.485-103.208,125.625-103.408
		c13.842,0.053,27.581,2.379,40.669,6.885V237.22c-13.167-4.106-26.876-6.21-40.669-6.243
		c-77.928,0.237-140.909,63.602-140.672,141.53c0.201,66.07,46.221,123.154,110.744,137.368l24.511,42.413
		c1.117,1.935,3.183,3.125,5.417,3.122c2.239,0.022,4.313-1.173,5.417-3.122l24.511-42.413
		c75.953-16.267,124.337-91.024,108.071-166.977c-2.07-9.666-5.153-19.086-9.198-28.105H462.282z"/>
	<linearGradient id="SVGID_14_" gradientUnits="userSpaceOnUse" x1="655.7119" y1="446.8984" x2="714.6494" y2="446.8984">
		<stop  offset="0" style="stop-color:#E2318F"/>
		<stop  offset="1" style="stop-color:#4285F4"/>
	</linearGradient>
	<path fill="url(#SVGID_14_)" d="M656.263,482.426c4.277-0.024,8.519,0.787,12.485,2.388l45.901-68.853
		c-4.162-1.11-7.841-3.563-10.466-6.978l-48.472,73.442H656.263z"/>
	<linearGradient id="SVGID_15_" gradientUnits="userSpaceOnUse" x1="586.584" y1="445.0625" x2="647.6328" y2="445.0625">
		<stop  offset="0" style="stop-color:#E2318F"/>
		<stop  offset="1" style="stop-color:#4285F4"/>
	</linearGradient>
	<path fill="url(#SVGID_15_)" d="M647.633,483.527l-50.4-82.622c-2.664,3.384-6.434,5.724-10.648,6.609l49.849,81.705
		C639.692,486.507,643.52,484.562,647.633,483.527z"/>
	<linearGradient id="SVGID_16_" gradientUnits="userSpaceOnUse" x1="556.6563" y1="388.6953" x2="608.0654" y2="388.6953">
		<stop  offset="0" style="stop-color:#E2318F"/>
		<stop  offset="1" style="stop-color:#4285F4"/>
	</linearGradient>
	<path fill="url(#SVGID_16_)" d="M582.36,362.99c-14.196,0-25.704,11.509-25.704,25.705S568.164,414.4,582.36,414.4
		s25.705-11.509,25.705-25.705l0,0C608.016,374.52,596.536,363.041,582.36,362.99z M582.36,401.823
		c-7.25,0-13.128-5.878-13.128-13.128c0-7.251,5.878-13.128,13.128-13.128c7.251,0,13.128,5.877,13.128,13.128
		C595.488,395.945,589.611,401.823,582.36,401.823L582.36,401.823z"/>
	<linearGradient id="SVGID_17_" gradientUnits="userSpaceOnUse" x1="519.1084" y1="417.7969" x2="571.9873" y2="417.7969">
		<stop  offset="0" style="stop-color:#E2318F"/>
		<stop  offset="1" style="stop-color:#4285F4"/>
	</linearGradient>
	<path fill="url(#SVGID_17_)" d="M526.911,440.655l45.076-35.895c-3.605-2.334-6.346-5.784-7.804-9.823l-45.075,36.538
		C523.043,433.091,525.951,436.512,526.911,440.655z"/>
	<linearGradient id="SVGID_18_" gradientUnits="userSpaceOnUse" x1="434.5576" y1="392.2295" x2="512.1309" y2="392.2295">
		<stop  offset="0" style="stop-color:#E2318F"/>
		<stop  offset="1" style="stop-color:#4285F4"/>
	</linearGradient>
	<path fill="url(#SVGID_18_)" d="M443.737,345.915c-2.319,3.72-5.46,6.86-9.18,9.18l67.292,83.449
		c1.694-4.4,5.619-7.555,10.281-8.262L443.737,345.915z"/>
	<linearGradient id="SVGID_19_" gradientUnits="userSpaceOnUse" x1="488.2627" y1="443.1348" x2="539.6719" y2="443.1348">
		<stop  offset="0" style="stop-color:#E2318F"/>
		<stop  offset="1" style="stop-color:#4285F4"/>
	</linearGradient>
	<path fill="url(#SVGID_19_)" d="M513.967,417.43c-14.196,0-25.704,11.508-25.704,25.705c0,14.196,11.508,25.704,25.704,25.704
		c14.197,0,25.705-11.508,25.705-25.704l0,0C539.672,428.938,528.164,417.43,513.967,417.43z M513.967,456.263
		c-7.25,0-13.127-5.878-13.127-13.128c0-7.251,5.877-13.128,13.127-13.128c7.251,0,13.128,5.877,13.128,13.128
		C527.095,450.385,521.218,456.263,513.967,456.263L513.967,456.263z"/>
</g>
</svg>
